<svg xmlns="http://www.w3.org/2000/svg" xmlns:xlink="http://www.w3.org/1999/xlink" width="250" zoomAndPan="magnify" viewBox="0 0 187.5 187.499992" height="250" preserveAspectRatio="xMidYMid meet" version="1.0"><defs><g/><clipPath id="5704d9dcf3"><path d="M 93 79.867188 L 157 79.867188 L 157 149 L 93 149 Z M 93 79.867188 " clip-rule="nonzero"/></clipPath></defs><g fill="#e6dbc6" fill-opacity="0.3216"><g transform="translate(27.735243, 78.541593)"><g><path d="M 1.109375 0 C 1.492188 -0.769531 1.738281 -1.546875 1.84375 -2.328125 C 1.957031 -3.117188 2.015625 -4.3125 2.015625 -5.90625 L 2.015625 -27.78125 C 2.015625 -29.382812 1.957031 -30.566406 1.84375 -31.328125 C 1.738281 -32.097656 1.492188 -32.867188 1.109375 -33.640625 L 8.796875 -33.640625 C 8.640625 -33.285156 8.535156 -32.976562 8.484375 -32.71875 C 8.429688 -32.46875 8.40625 -32.070312 8.40625 -31.53125 C 8.40625 -30.40625 8.601562 -28.84375 9 -26.84375 C 9.40625 -24.84375 9.894531 -22.640625 10.46875 -20.234375 C 11.050781 -17.828125 11.628906 -15.425781 12.203125 -13.03125 C 12.617188 -14.820312 13.078125 -16.628906 13.578125 -18.453125 C 14.078125 -20.285156 14.539062 -22.03125 14.96875 -23.6875 C 15.40625 -25.351562 15.757812 -26.859375 16.03125 -28.203125 C 16.300781 -29.554688 16.4375 -30.664062 16.4375 -31.53125 C 16.4375 -32.070312 16.410156 -32.46875 16.359375 -32.71875 C 16.316406 -32.976562 16.210938 -33.285156 16.046875 -33.640625 L 23.546875 -33.640625 C 23.191406 -32.867188 22.957031 -32.097656 22.84375 -31.328125 C 22.738281 -30.566406 22.6875 -29.382812 22.6875 -27.78125 L 22.6875 -5.90625 C 22.6875 -4.3125 22.738281 -3.117188 22.84375 -2.328125 C 22.957031 -1.546875 23.191406 -0.769531 23.546875 0 L 15.953125 0 C 16.335938 -0.769531 16.585938 -1.546875 16.703125 -2.328125 C 16.816406 -3.117188 16.875 -4.3125 16.875 -5.90625 C 16.875 -6.457031 16.875 -7.253906 16.875 -8.296875 C 16.875 -9.335938 16.875 -10.515625 16.875 -11.828125 C 16.875 -13.140625 16.878906 -14.457031 16.890625 -15.78125 C 16.910156 -17.113281 16.921875 -18.335938 16.921875 -19.453125 C 16.921875 -20.578125 16.921875 -21.484375 16.921875 -22.171875 C 16.921875 -22.867188 16.921875 -23.21875 16.921875 -23.21875 C 16.179688 -20.300781 15.488281 -17.5625 14.84375 -15 C 14.207031 -12.4375 13.597656 -9.941406 13.015625 -7.515625 C 12.441406 -5.097656 11.851562 -2.59375 11.25 0 L 9.375 0 C 8.757812 -2.59375 8.171875 -5.109375 7.609375 -7.546875 C 7.054688 -9.984375 6.484375 -12.472656 5.890625 -15.015625 C 5.296875 -17.566406 4.628906 -20.300781 3.890625 -23.21875 C 3.890625 -23.21875 3.890625 -22.867188 3.890625 -22.171875 C 3.890625 -21.484375 3.890625 -20.578125 3.890625 -19.453125 C 3.890625 -18.335938 3.894531 -17.113281 3.90625 -15.78125 C 3.925781 -14.457031 3.9375 -13.140625 3.9375 -11.828125 C 3.9375 -10.515625 3.9375 -9.335938 3.9375 -8.296875 C 3.9375 -7.253906 3.9375 -6.457031 3.9375 -5.90625 C 3.9375 -4.3125 3.992188 -3.117188 4.109375 -2.328125 C 4.222656 -1.546875 4.472656 -0.769531 4.859375 0 Z M 1.109375 0 "/></g></g></g><g fill="#e6dbc6" fill-opacity="0.3216"><g transform="translate(49.122928, 78.541593)"><g><path d="M 2.203125 -27.78125 C 2.203125 -29.382812 2.140625 -30.566406 2.015625 -31.328125 C 1.890625 -32.097656 1.601562 -32.867188 1.15625 -33.640625 L 17.34375 -33.640625 L 17.34375 -22.78125 L 16.78125 -22.78125 C 16.78125 -24.445312 16.53125 -25.96875 16.03125 -27.34375 C 15.53125 -28.726562 14.757812 -29.832031 13.71875 -30.65625 C 12.675781 -31.488281 11.335938 -31.90625 9.703125 -31.90625 L 7.875 -31.90625 L 7.875 -19.890625 L 8.703125 -19.890625 C 9.367188 -19.890625 10.070312 -20.097656 10.8125 -20.515625 C 11.550781 -20.929688 12.175781 -21.585938 12.6875 -22.484375 C 13.195312 -23.390625 13.453125 -24.546875 13.453125 -25.953125 L 14.03125 -25.953125 L 14.03125 -12.15625 L 13.453125 -12.15625 C 13.453125 -13.601562 13.195312 -14.765625 12.6875 -15.640625 C 12.175781 -16.523438 11.550781 -17.175781 10.8125 -17.59375 C 10.070312 -18.007812 9.367188 -18.21875 8.703125 -18.21875 L 7.875 -18.21875 L 7.875 -1.734375 C 10.125 -1.671875 11.832031 -1.941406 13 -2.546875 C 14.164062 -3.148438 15.015625 -4.140625 15.546875 -5.515625 C 16.078125 -6.898438 16.488281 -8.679688 16.78125 -10.859375 L 17.34375 -10.859375 L 17.34375 0 L 1.15625 0 C 1.601562 -0.769531 1.890625 -1.535156 2.015625 -2.296875 C 2.140625 -3.066406 2.203125 -4.253906 2.203125 -5.859375 Z M 2.203125 -27.78125 "/></g></g></g><g fill="#e6dbc6" fill-opacity="0.3216"><g transform="translate(64.791206, 78.541593)"><g><path d="M 1.109375 0 C 1.492188 -0.769531 1.738281 -1.546875 1.84375 -2.328125 C 1.957031 -3.117188 2.015625 -4.3125 2.015625 -5.90625 L 2.015625 -27.78125 C 2.015625 -29.382812 1.957031 -30.566406 1.84375 -31.328125 C 1.738281 -32.097656 1.492188 -32.867188 1.109375 -33.640625 L 8.796875 -33.640625 C 8.640625 -33.285156 8.535156 -32.976562 8.484375 -32.71875 C 8.429688 -32.46875 8.40625 -32.070312 8.40625 -31.53125 C 8.40625 -30.40625 8.601562 -28.84375 9 -26.84375 C 9.40625 -24.84375 9.894531 -22.640625 10.46875 -20.234375 C 11.050781 -17.828125 11.628906 -15.425781 12.203125 -13.03125 C 12.617188 -14.820312 13.078125 -16.628906 13.578125 -18.453125 C 14.078125 -20.285156 14.539062 -22.03125 14.96875 -23.6875 C 15.40625 -25.351562 15.757812 -26.859375 16.03125 -28.203125 C 16.300781 -29.554688 16.4375 -30.664062 16.4375 -31.53125 C 16.4375 -32.070312 16.410156 -32.46875 16.359375 -32.71875 C 16.316406 -32.976562 16.210938 -33.285156 16.046875 -33.640625 L 23.546875 -33.640625 C 23.191406 -32.867188 22.957031 -32.097656 22.84375 -31.328125 C 22.738281 -30.566406 22.6875 -29.382812 22.6875 -27.78125 L 22.6875 -5.90625 C 22.6875 -4.3125 22.738281 -3.117188 22.84375 -2.328125 C 22.957031 -1.546875 23.191406 -0.769531 23.546875 0 L 15.953125 0 C 16.335938 -0.769531 16.585938 -1.546875 16.703125 -2.328125 C 16.816406 -3.117188 16.875 -4.3125 16.875 -5.90625 C 16.875 -6.457031 16.875 -7.253906 16.875 -8.296875 C 16.875 -9.335938 16.875 -10.515625 16.875 -11.828125 C 16.875 -13.140625 16.878906 -14.457031 16.890625 -15.78125 C 16.910156 -17.113281 16.921875 -18.335938 16.921875 -19.453125 C 16.921875 -20.578125 16.921875 -21.484375 16.921875 -22.171875 C 16.921875 -22.867188 16.921875 -23.21875 16.921875 -23.21875 C 16.179688 -20.300781 15.488281 -17.5625 14.84375 -15 C 14.207031 -12.4375 13.597656 -9.941406 13.015625 -7.515625 C 12.441406 -5.097656 11.851562 -2.59375 11.25 0 L 9.375 0 C 8.757812 -2.59375 8.171875 -5.109375 7.609375 -7.546875 C 7.054688 -9.984375 6.484375 -12.472656 5.890625 -15.015625 C 5.296875 -17.566406 4.628906 -20.300781 3.890625 -23.21875 C 3.890625 -23.21875 3.890625 -22.867188 3.890625 -22.171875 C 3.890625 -21.484375 3.890625 -20.578125 3.890625 -19.453125 C 3.890625 -18.335938 3.894531 -17.113281 3.90625 -15.78125 C 3.925781 -14.457031 3.9375 -13.140625 3.9375 -11.828125 C 3.9375 -10.515625 3.9375 -9.335938 3.9375 -8.296875 C 3.9375 -7.253906 3.9375 -6.457031 3.9375 -5.90625 C 3.9375 -4.3125 3.992188 -3.117188 4.109375 -2.328125 C 4.222656 -1.546875 4.472656 -0.769531 4.859375 0 Z M 1.109375 0 "/></g></g></g><g fill="#e6dbc6" fill-opacity="0.3216"><g transform="translate(86.178891, 78.541593)"><g><path d="M 2.203125 -27.78125 C 2.203125 -29.382812 2.140625 -30.566406 2.015625 -31.328125 C 1.890625 -32.097656 1.601562 -32.867188 1.15625 -33.640625 L 17.34375 -33.640625 L 17.34375 -22.78125 L 16.78125 -22.78125 C 16.78125 -24.445312 16.53125 -25.96875 16.03125 -27.34375 C 15.53125 -28.726562 14.757812 -29.832031 13.71875 -30.65625 C 12.675781 -31.488281 11.335938 -31.90625 9.703125 -31.90625 L 7.875 -31.90625 L 7.875 -19.890625 L 8.703125 -19.890625 C 9.367188 -19.890625 10.070312 -20.097656 10.8125 -20.515625 C 11.550781 -20.929688 12.175781 -21.585938 12.6875 -22.484375 C 13.195312 -23.390625 13.453125 -24.546875 13.453125 -25.953125 L 14.03125 -25.953125 L 14.03125 -12.15625 L 13.453125 -12.15625 C 13.453125 -13.601562 13.195312 -14.765625 12.6875 -15.640625 C 12.175781 -16.523438 11.550781 -17.175781 10.8125 -17.59375 C 10.070312 -18.007812 9.367188 -18.21875 8.703125 -18.21875 L 7.875 -18.21875 L 7.875 -1.734375 C 10.125 -1.671875 11.832031 -1.941406 13 -2.546875 C 14.164062 -3.148438 15.015625 -4.140625 15.546875 -5.515625 C 16.078125 -6.898438 16.488281 -8.679688 16.78125 -10.859375 L 17.34375 -10.859375 L 17.34375 0 L 1.15625 0 C 1.601562 -0.769531 1.890625 -1.535156 2.015625 -2.296875 C 2.140625 -3.066406 2.203125 -4.253906 2.203125 -5.859375 Z M 2.203125 -27.78125 "/></g></g></g><g fill="#e6dbc6" fill-opacity="0.3216"><g transform="translate(101.847168, 78.541593)"><g><path d="M 1.109375 0 C 1.554688 -0.769531 1.847656 -1.546875 1.984375 -2.328125 C 2.128906 -3.117188 2.203125 -4.3125 2.203125 -5.90625 L 2.203125 -27.78125 C 2.203125 -28.875 2.171875 -29.753906 2.109375 -30.421875 C 2.046875 -31.097656 1.941406 -31.675781 1.796875 -32.15625 C 1.660156 -32.632812 1.429688 -33.128906 1.109375 -33.640625 L 8.171875 -33.640625 L 16.25 -8.796875 C 16.25 -8.796875 16.25 -9.195312 16.25 -10 C 16.25 -10.800781 16.25 -11.859375 16.25 -13.171875 C 16.25 -14.484375 16.238281 -15.90625 16.21875 -17.4375 C 16.207031 -18.976562 16.203125 -20.492188 16.203125 -21.984375 C 16.203125 -23.472656 16.203125 -24.796875 16.203125 -25.953125 C 16.203125 -27.109375 16.203125 -27.957031 16.203125 -28.5 C 16.203125 -29.59375 16.175781 -30.410156 16.125 -30.953125 C 16.070312 -31.492188 15.96875 -31.945312 15.8125 -32.3125 C 15.65625 -32.6875 15.429688 -33.128906 15.140625 -33.640625 L 19.328125 -33.640625 C 18.910156 -32.867188 18.617188 -32.09375 18.453125 -31.3125 C 18.296875 -30.53125 18.21875 -29.335938 18.21875 -27.734375 C 18.21875 -27.285156 18.21875 -26.441406 18.21875 -25.203125 C 18.21875 -23.972656 18.207031 -22.515625 18.1875 -20.828125 C 18.175781 -19.148438 18.171875 -17.363281 18.171875 -15.46875 C 18.171875 -13.582031 18.171875 -11.722656 18.171875 -9.890625 C 18.171875 -8.066406 18.160156 -6.410156 18.140625 -4.921875 C 18.128906 -3.429688 18.125 -2.238281 18.125 -1.34375 C 18.125 -0.445312 18.125 0 18.125 0 L 12.921875 0 L 4.140625 -27.0625 C 4.140625 -27.0625 4.140625 -26.617188 4.140625 -25.734375 C 4.140625 -24.859375 4.144531 -23.710938 4.15625 -22.296875 C 4.175781 -20.890625 4.1875 -19.351562 4.1875 -17.6875 C 4.1875 -16.019531 4.191406 -14.390625 4.203125 -12.796875 C 4.222656 -11.210938 4.234375 -9.804688 4.234375 -8.578125 C 4.234375 -7.347656 4.234375 -6.457031 4.234375 -5.90625 C 4.234375 -4.3125 4.300781 -3.117188 4.4375 -2.328125 C 4.582031 -1.546875 4.863281 -0.769531 5.28125 0 Z M 1.109375 0 "/></g></g></g><g fill="#e6dbc6" fill-opacity="0.3216"><g transform="translate(119.005381, 78.541593)"><g><path d="M 0.765625 -22.78125 L 0.765625 -33.640625 L 17.96875 -33.640625 L 17.96875 -22.78125 L 17.40625 -22.78125 C 17.40625 -24.445312 17.242188 -25.984375 16.921875 -27.390625 C 16.597656 -28.804688 16.097656 -29.953125 15.421875 -30.828125 C 14.753906 -31.710938 13.90625 -32.15625 12.875 -32.15625 L 12.203125 -32.203125 L 12.203125 -5.90625 C 12.203125 -4.3125 12.265625 -3.117188 12.390625 -2.328125 C 12.523438 -1.546875 12.816406 -0.769531 13.265625 0 L 5.484375 0 C 5.929688 -0.769531 6.21875 -1.546875 6.34375 -2.328125 C 6.46875 -3.117188 6.53125 -4.3125 6.53125 -5.90625 L 6.53125 -32.203125 L 5.8125 -32.15625 C 4.789062 -32.15625 3.941406 -31.710938 3.265625 -30.828125 C 2.597656 -29.953125 2.101562 -28.804688 1.78125 -27.390625 C 1.457031 -25.984375 1.296875 -24.445312 1.296875 -22.78125 Z M 0.765625 -22.78125 "/></g></g></g><g fill="#e6dbc6" fill-opacity="0.3216"><g transform="translate(134.481413, 78.541593)"><g><path d="M 11.25 0.34375 C 9.257812 0.34375 7.550781 -0.367188 6.125 -1.796875 C 4.695312 -3.222656 3.609375 -5.21875 2.859375 -7.78125 C 2.109375 -10.34375 1.734375 -13.34375 1.734375 -16.78125 C 1.734375 -20.207031 2.109375 -23.207031 2.859375 -25.78125 C 3.609375 -28.363281 4.695312 -30.367188 6.125 -31.796875 C 7.550781 -33.222656 9.257812 -33.9375 11.25 -33.9375 C 13.269531 -33.9375 14.984375 -33.222656 16.390625 -31.796875 C 17.796875 -30.367188 18.875 -28.363281 19.625 -25.78125 C 20.382812 -23.207031 20.765625 -20.207031 20.765625 -16.78125 C 20.765625 -13.34375 20.382812 -10.34375 19.625 -7.78125 C 18.875 -5.21875 17.796875 -3.222656 16.390625 -1.796875 C 14.984375 -0.367188 13.269531 0.34375 11.25 0.34375 Z M 7.59375 -16.78125 C 7.59375 -11.9375 7.835938 -8.175781 8.328125 -5.5 C 8.828125 -2.820312 9.816406 -1.484375 11.296875 -1.484375 C 12.796875 -1.484375 13.78125 -2.820312 14.25 -5.5 C 14.71875 -8.175781 14.953125 -11.9375 14.953125 -16.78125 C 14.953125 -21.644531 14.71875 -25.414062 14.25 -28.09375 C 13.78125 -30.769531 12.796875 -32.109375 11.296875 -32.109375 C 9.816406 -32.109375 8.828125 -30.769531 8.328125 -28.09375 C 7.835938 -25.414062 7.59375 -21.644531 7.59375 -16.78125 Z M 7.59375 -16.78125 "/></g></g></g><g fill="#e6dbc6" fill-opacity="1"><g transform="translate(26.758165, 77.564516)"><g><path d="M 1.109375 0 C 1.492188 -0.769531 1.738281 -1.546875 1.84375 -2.328125 C 1.957031 -3.117188 2.015625 -4.3125 2.015625 -5.90625 L 2.015625 -27.78125 C 2.015625 -29.382812 1.957031 -30.566406 1.84375 -31.328125 C 1.738281 -32.097656 1.492188 -32.867188 1.109375 -33.640625 L 8.796875 -33.640625 C 8.640625 -33.285156 8.535156 -32.976562 8.484375 -32.71875 C 8.429688 -32.46875 8.40625 -32.070312 8.40625 -31.53125 C 8.40625 -30.40625 8.601562 -28.84375 9 -26.84375 C 9.40625 -24.84375 9.894531 -22.640625 10.46875 -20.234375 C 11.050781 -17.828125 11.628906 -15.425781 12.203125 -13.03125 C 12.617188 -14.820312 13.078125 -16.628906 13.578125 -18.453125 C 14.078125 -20.285156 14.539062 -22.03125 14.96875 -23.6875 C 15.40625 -25.351562 15.757812 -26.859375 16.03125 -28.203125 C 16.300781 -29.554688 16.4375 -30.664062 16.4375 -31.53125 C 16.4375 -32.070312 16.410156 -32.46875 16.359375 -32.71875 C 16.316406 -32.976562 16.210938 -33.285156 16.046875 -33.640625 L 23.546875 -33.640625 C 23.191406 -32.867188 22.957031 -32.097656 22.84375 -31.328125 C 22.738281 -30.566406 22.6875 -29.382812 22.6875 -27.78125 L 22.6875 -5.90625 C 22.6875 -4.3125 22.738281 -3.117188 22.84375 -2.328125 C 22.957031 -1.546875 23.191406 -0.769531 23.546875 0 L 15.953125 0 C 16.335938 -0.769531 16.585938 -1.546875 16.703125 -2.328125 C 16.816406 -3.117188 16.875 -4.3125 16.875 -5.90625 C 16.875 -6.457031 16.875 -7.253906 16.875 -8.296875 C 16.875 -9.335938 16.875 -10.515625 16.875 -11.828125 C 16.875 -13.140625 16.878906 -14.457031 16.890625 -15.78125 C 16.910156 -17.113281 16.921875 -18.335938 16.921875 -19.453125 C 16.921875 -20.578125 16.921875 -21.484375 16.921875 -22.171875 C 16.921875 -22.867188 16.921875 -23.21875 16.921875 -23.21875 C 16.179688 -20.300781 15.488281 -17.5625 14.84375 -15 C 14.207031 -12.4375 13.597656 -9.941406 13.015625 -7.515625 C 12.441406 -5.097656 11.851562 -2.59375 11.25 0 L 9.375 0 C 8.757812 -2.59375 8.171875 -5.109375 7.609375 -7.546875 C 7.054688 -9.984375 6.484375 -12.472656 5.890625 -15.015625 C 5.296875 -17.566406 4.628906 -20.300781 3.890625 -23.21875 C 3.890625 -23.21875 3.890625 -22.867188 3.890625 -22.171875 C 3.890625 -21.484375 3.890625 -20.578125 3.890625 -19.453125 C 3.890625 -18.335938 3.894531 -17.113281 3.90625 -15.78125 C 3.925781 -14.457031 3.9375 -13.140625 3.9375 -11.828125 C 3.9375 -10.515625 3.9375 -9.335938 3.9375 -8.296875 C 3.9375 -7.253906 3.9375 -6.457031 3.9375 -5.90625 C 3.9375 -4.3125 3.992188 -3.117188 4.109375 -2.328125 C 4.222656 -1.546875 4.472656 -0.769531 4.859375 0 Z M 1.109375 0 "/></g></g></g><g fill="#e6dbc6" fill-opacity="1"><g transform="translate(48.14585, 77.564516)"><g><path d="M 2.203125 -27.78125 C 2.203125 -29.382812 2.140625 -30.566406 2.015625 -31.328125 C 1.890625 -32.097656 1.601562 -32.867188 1.15625 -33.640625 L 17.34375 -33.640625 L 17.34375 -22.78125 L 16.78125 -22.78125 C 16.78125 -24.445312 16.53125 -25.96875 16.03125 -27.34375 C 15.53125 -28.726562 14.757812 -29.832031 13.71875 -30.65625 C 12.675781 -31.488281 11.335938 -31.90625 9.703125 -31.90625 L 7.875 -31.90625 L 7.875 -19.890625 L 8.703125 -19.890625 C 9.367188 -19.890625 10.070312 -20.097656 10.8125 -20.515625 C 11.550781 -20.929688 12.175781 -21.585938 12.6875 -22.484375 C 13.195312 -23.390625 13.453125 -24.546875 13.453125 -25.953125 L 14.03125 -25.953125 L 14.03125 -12.15625 L 13.453125 -12.15625 C 13.453125 -13.601562 13.195312 -14.765625 12.6875 -15.640625 C 12.175781 -16.523438 11.550781 -17.175781 10.8125 -17.59375 C 10.070312 -18.007812 9.367188 -18.21875 8.703125 -18.21875 L 7.875 -18.21875 L 7.875 -1.734375 C 10.125 -1.671875 11.832031 -1.941406 13 -2.546875 C 14.164062 -3.148438 15.015625 -4.140625 15.546875 -5.515625 C 16.078125 -6.898438 16.488281 -8.679688 16.78125 -10.859375 L 17.34375 -10.859375 L 17.34375 0 L 1.15625 0 C 1.601562 -0.769531 1.890625 -1.535156 2.015625 -2.296875 C 2.140625 -3.066406 2.203125 -4.253906 2.203125 -5.859375 Z M 2.203125 -27.78125 "/></g></g></g><g fill="#e6dbc6" fill-opacity="1"><g transform="translate(63.814127, 77.564516)"><g><path d="M 1.109375 0 C 1.492188 -0.769531 1.738281 -1.546875 1.84375 -2.328125 C 1.957031 -3.117188 2.015625 -4.3125 2.015625 -5.90625 L 2.015625 -27.78125 C 2.015625 -29.382812 1.957031 -30.566406 1.84375 -31.328125 C 1.738281 -32.097656 1.492188 -32.867188 1.109375 -33.640625 L 8.796875 -33.640625 C 8.640625 -33.285156 8.535156 -32.976562 8.484375 -32.71875 C 8.429688 -32.46875 8.40625 -32.070312 8.40625 -31.53125 C 8.40625 -30.40625 8.601562 -28.84375 9 -26.84375 C 9.40625 -24.84375 9.894531 -22.640625 10.46875 -20.234375 C 11.050781 -17.828125 11.628906 -15.425781 12.203125 -13.03125 C 12.617188 -14.820312 13.078125 -16.628906 13.578125 -18.453125 C 14.078125 -20.285156 14.539062 -22.03125 14.96875 -23.6875 C 15.40625 -25.351562 15.757812 -26.859375 16.03125 -28.203125 C 16.300781 -29.554688 16.4375 -30.664062 16.4375 -31.53125 C 16.4375 -32.070312 16.410156 -32.46875 16.359375 -32.71875 C 16.316406 -32.976562 16.210938 -33.285156 16.046875 -33.640625 L 23.546875 -33.640625 C 23.191406 -32.867188 22.957031 -32.097656 22.84375 -31.328125 C 22.738281 -30.566406 22.6875 -29.382812 22.6875 -27.78125 L 22.6875 -5.90625 C 22.6875 -4.3125 22.738281 -3.117188 22.84375 -2.328125 C 22.957031 -1.546875 23.191406 -0.769531 23.546875 0 L 15.953125 0 C 16.335938 -0.769531 16.585938 -1.546875 16.703125 -2.328125 C 16.816406 -3.117188 16.875 -4.3125 16.875 -5.90625 C 16.875 -6.457031 16.875 -7.253906 16.875 -8.296875 C 16.875 -9.335938 16.875 -10.515625 16.875 -11.828125 C 16.875 -13.140625 16.878906 -14.457031 16.890625 -15.78125 C 16.910156 -17.113281 16.921875 -18.335938 16.921875 -19.453125 C 16.921875 -20.578125 16.921875 -21.484375 16.921875 -22.171875 C 16.921875 -22.867188 16.921875 -23.21875 16.921875 -23.21875 C 16.179688 -20.300781 15.488281 -17.5625 14.84375 -15 C 14.207031 -12.4375 13.597656 -9.941406 13.015625 -7.515625 C 12.441406 -5.097656 11.851562 -2.59375 11.25 0 L 9.375 0 C 8.757812 -2.59375 8.171875 -5.109375 7.609375 -7.546875 C 7.054688 -9.984375 6.484375 -12.472656 5.890625 -15.015625 C 5.296875 -17.566406 4.628906 -20.300781 3.890625 -23.21875 C 3.890625 -23.21875 3.890625 -22.867188 3.890625 -22.171875 C 3.890625 -21.484375 3.890625 -20.578125 3.890625 -19.453125 C 3.890625 -18.335938 3.894531 -17.113281 3.90625 -15.78125 C 3.925781 -14.457031 3.9375 -13.140625 3.9375 -11.828125 C 3.9375 -10.515625 3.9375 -9.335938 3.9375 -8.296875 C 3.9375 -7.253906 3.9375 -6.457031 3.9375 -5.90625 C 3.9375 -4.3125 3.992188 -3.117188 4.109375 -2.328125 C 4.222656 -1.546875 4.472656 -0.769531 4.859375 0 Z M 1.109375 0 "/></g></g></g><g fill="#e6dbc6" fill-opacity="1"><g transform="translate(85.201812, 77.564516)"><g><path d="M 2.203125 -27.78125 C 2.203125 -29.382812 2.140625 -30.566406 2.015625 -31.328125 C 1.890625 -32.097656 1.601562 -32.867188 1.15625 -33.640625 L 17.34375 -33.640625 L 17.34375 -22.78125 L 16.78125 -22.78125 C 16.78125 -24.445312 16.53125 -25.96875 16.03125 -27.34375 C 15.53125 -28.726562 14.757812 -29.832031 13.71875 -30.65625 C 12.675781 -31.488281 11.335938 -31.90625 9.703125 -31.90625 L 7.875 -31.90625 L 7.875 -19.890625 L 8.703125 -19.890625 C 9.367188 -19.890625 10.070312 -20.097656 10.8125 -20.515625 C 11.550781 -20.929688 12.175781 -21.585938 12.6875 -22.484375 C 13.195312 -23.390625 13.453125 -24.546875 13.453125 -25.953125 L 14.03125 -25.953125 L 14.03125 -12.15625 L 13.453125 -12.15625 C 13.453125 -13.601562 13.195312 -14.765625 12.6875 -15.640625 C 12.175781 -16.523438 11.550781 -17.175781 10.8125 -17.59375 C 10.070312 -18.007812 9.367188 -18.21875 8.703125 -18.21875 L 7.875 -18.21875 L 7.875 -1.734375 C 10.125 -1.671875 11.832031 -1.941406 13 -2.546875 C 14.164062 -3.148438 15.015625 -4.140625 15.546875 -5.515625 C 16.078125 -6.898438 16.488281 -8.679688 16.78125 -10.859375 L 17.34375 -10.859375 L 17.34375 0 L 1.15625 0 C 1.601562 -0.769531 1.890625 -1.535156 2.015625 -2.296875 C 2.140625 -3.066406 2.203125 -4.253906 2.203125 -5.859375 Z M 2.203125 -27.78125 "/></g></g></g><g fill="#e6dbc6" fill-opacity="1"><g transform="translate(100.87009, 77.564516)"><g><path d="M 1.109375 0 C 1.554688 -0.769531 1.847656 -1.546875 1.984375 -2.328125 C 2.128906 -3.117188 2.203125 -4.3125 2.203125 -5.90625 L 2.203125 -27.78125 C 2.203125 -28.875 2.171875 -29.753906 2.109375 -30.421875 C 2.046875 -31.097656 1.941406 -31.675781 1.796875 -32.15625 C 1.660156 -32.632812 1.429688 -33.128906 1.109375 -33.640625 L 8.171875 -33.640625 L 16.25 -8.796875 C 16.25 -8.796875 16.25 -9.195312 16.25 -10 C 16.25 -10.800781 16.25 -11.859375 16.25 -13.171875 C 16.25 -14.484375 16.238281 -15.90625 16.21875 -17.4375 C 16.207031 -18.976562 16.203125 -20.492188 16.203125 -21.984375 C 16.203125 -23.472656 16.203125 -24.796875 16.203125 -25.953125 C 16.203125 -27.109375 16.203125 -27.957031 16.203125 -28.5 C 16.203125 -29.59375 16.175781 -30.410156 16.125 -30.953125 C 16.070312 -31.492188 15.96875 -31.945312 15.8125 -32.3125 C 15.65625 -32.6875 15.429688 -33.128906 15.140625 -33.640625 L 19.328125 -33.640625 C 18.910156 -32.867188 18.617188 -32.09375 18.453125 -31.3125 C 18.296875 -30.53125 18.21875 -29.335938 18.21875 -27.734375 C 18.21875 -27.285156 18.21875 -26.441406 18.21875 -25.203125 C 18.21875 -23.972656 18.207031 -22.515625 18.1875 -20.828125 C 18.175781 -19.148438 18.171875 -17.363281 18.171875 -15.46875 C 18.171875 -13.582031 18.171875 -11.722656 18.171875 -9.890625 C 18.171875 -8.066406 18.160156 -6.410156 18.140625 -4.921875 C 18.128906 -3.429688 18.125 -2.238281 18.125 -1.34375 C 18.125 -0.445312 18.125 0 18.125 0 L 12.921875 0 L 4.140625 -27.0625 C 4.140625 -27.0625 4.140625 -26.617188 4.140625 -25.734375 C 4.140625 -24.859375 4.144531 -23.710938 4.15625 -22.296875 C 4.175781 -20.890625 4.1875 -19.351562 4.1875 -17.6875 C 4.1875 -16.019531 4.191406 -14.390625 4.203125 -12.796875 C 4.222656 -11.210938 4.234375 -9.804688 4.234375 -8.578125 C 4.234375 -7.347656 4.234375 -6.457031 4.234375 -5.90625 C 4.234375 -4.3125 4.300781 -3.117188 4.4375 -2.328125 C 4.582031 -1.546875 4.863281 -0.769531 5.28125 0 Z M 1.109375 0 "/></g></g></g><g fill="#e6dbc6" fill-opacity="1"><g transform="translate(118.028302, 77.564516)"><g><path d="M 0.765625 -22.78125 L 0.765625 -33.640625 L 17.96875 -33.640625 L 17.96875 -22.78125 L 17.40625 -22.78125 C 17.40625 -24.445312 17.242188 -25.984375 16.921875 -27.390625 C 16.597656 -28.804688 16.097656 -29.953125 15.421875 -30.828125 C 14.753906 -31.710938 13.90625 -32.15625 12.875 -32.15625 L 12.203125 -32.203125 L 12.203125 -5.90625 C 12.203125 -4.3125 12.265625 -3.117188 12.390625 -2.328125 C 12.523438 -1.546875 12.816406 -0.769531 13.265625 0 L 5.484375 0 C 5.929688 -0.769531 6.21875 -1.546875 6.34375 -2.328125 C 6.46875 -3.117188 6.53125 -4.3125 6.53125 -5.90625 L 6.53125 -32.203125 L 5.8125 -32.15625 C 4.789062 -32.15625 3.941406 -31.710938 3.265625 -30.828125 C 2.597656 -29.953125 2.101562 -28.804688 1.78125 -27.390625 C 1.457031 -25.984375 1.296875 -24.445312 1.296875 -22.78125 Z M 0.765625 -22.78125 "/></g></g></g><g fill="#e6dbc6" fill-opacity="1"><g transform="translate(133.504335, 77.564516)"><g><path d="M 11.25 0.34375 C 9.257812 0.34375 7.550781 -0.367188 6.125 -1.796875 C 4.695312 -3.222656 3.609375 -5.21875 2.859375 -7.78125 C 2.109375 -10.34375 1.734375 -13.34375 1.734375 -16.78125 C 1.734375 -20.207031 2.109375 -23.207031 2.859375 -25.78125 C 3.609375 -28.363281 4.695312 -30.367188 6.125 -31.796875 C 7.550781 -33.222656 9.257812 -33.9375 11.25 -33.9375 C 13.269531 -33.9375 14.984375 -33.222656 16.390625 -31.796875 C 17.796875 -30.367188 18.875 -28.363281 19.625 -25.78125 C 20.382812 -23.207031 20.765625 -20.207031 20.765625 -16.78125 C 20.765625 -13.34375 20.382812 -10.34375 19.625 -7.78125 C 18.875 -5.21875 17.796875 -3.222656 16.390625 -1.796875 C 14.984375 -0.367188 13.269531 0.34375 11.25 0.34375 Z M 7.59375 -16.78125 C 7.59375 -11.9375 7.835938 -8.175781 8.328125 -5.5 C 8.828125 -2.820312 9.816406 -1.484375 11.296875 -1.484375 C 12.796875 -1.484375 13.78125 -2.820312 14.25 -5.5 C 14.71875 -8.175781 14.953125 -11.9375 14.953125 -16.78125 C 14.953125 -21.644531 14.71875 -25.414062 14.25 -28.09375 C 13.78125 -30.769531 12.796875 -32.109375 11.296875 -32.109375 C 9.816406 -32.109375 8.828125 -30.769531 8.328125 -28.09375 C 7.835938 -25.414062 7.59375 -21.644531 7.59375 -16.78125 Z M 7.59375 -16.78125 "/></g></g></g><g fill="#e6dbc6" fill-opacity="0.3216"><g transform="translate(27.735243, 121.656106)"><g/></g></g><g fill="#e6dbc6" fill-opacity="1"><g transform="translate(26.758165, 120.679029)"><g/></g></g><g fill="#e6dbc6" fill-opacity="0.3216"><g transform="translate(34.081608, 121.656106)"><g><path d="M 1.109375 0 C 1.492188 -0.769531 1.738281 -1.546875 1.84375 -2.328125 C 1.957031 -3.117188 2.015625 -4.3125 2.015625 -5.90625 L 2.015625 -27.78125 C 2.015625 -29.382812 1.957031 -30.566406 1.84375 -31.328125 C 1.738281 -32.097656 1.492188 -32.867188 1.109375 -33.640625 L 8.796875 -33.640625 C 8.640625 -33.285156 8.535156 -32.976562 8.484375 -32.71875 C 8.429688 -32.46875 8.40625 -32.070312 8.40625 -31.53125 C 8.40625 -30.40625 8.601562 -28.84375 9 -26.84375 C 9.40625 -24.84375 9.894531 -22.640625 10.46875 -20.234375 C 11.050781 -17.828125 11.628906 -15.425781 12.203125 -13.03125 C 12.617188 -14.820312 13.078125 -16.628906 13.578125 -18.453125 C 14.078125 -20.285156 14.539062 -22.03125 14.96875 -23.6875 C 15.40625 -25.351562 15.757812 -26.859375 16.03125 -28.203125 C 16.300781 -29.554688 16.4375 -30.664062 16.4375 -31.53125 C 16.4375 -32.070312 16.410156 -32.46875 16.359375 -32.71875 C 16.316406 -32.976562 16.210938 -33.285156 16.046875 -33.640625 L 23.546875 -33.640625 C 23.191406 -32.867188 22.957031 -32.097656 22.84375 -31.328125 C 22.738281 -30.566406 22.6875 -29.382812 22.6875 -27.78125 L 22.6875 -5.90625 C 22.6875 -4.3125 22.738281 -3.117188 22.84375 -2.328125 C 22.957031 -1.546875 23.191406 -0.769531 23.546875 0 L 15.953125 0 C 16.335938 -0.769531 16.585938 -1.546875 16.703125 -2.328125 C 16.816406 -3.117188 16.875 -4.3125 16.875 -5.90625 C 16.875 -6.457031 16.875 -7.253906 16.875 -8.296875 C 16.875 -9.335938 16.875 -10.515625 16.875 -11.828125 C 16.875 -13.140625 16.878906 -14.457031 16.890625 -15.78125 C 16.910156 -17.113281 16.921875 -18.335938 16.921875 -19.453125 C 16.921875 -20.578125 16.921875 -21.484375 16.921875 -22.171875 C 16.921875 -22.867188 16.921875 -23.21875 16.921875 -23.21875 C 16.179688 -20.300781 15.488281 -17.5625 14.84375 -15 C 14.207031 -12.4375 13.597656 -9.941406 13.015625 -7.515625 C 12.441406 -5.097656 11.851562 -2.59375 11.25 0 L 9.375 0 C 8.757812 -2.59375 8.171875 -5.109375 7.609375 -7.546875 C 7.054688 -9.984375 6.484375 -12.472656 5.890625 -15.015625 C 5.296875 -17.566406 4.628906 -20.300781 3.890625 -23.21875 C 3.890625 -23.21875 3.890625 -22.867188 3.890625 -22.171875 C 3.890625 -21.484375 3.890625 -20.578125 3.890625 -19.453125 C 3.890625 -18.335938 3.894531 -17.113281 3.90625 -15.78125 C 3.925781 -14.457031 3.9375 -13.140625 3.9375 -11.828125 C 3.9375 -10.515625 3.9375 -9.335938 3.9375 -8.296875 C 3.9375 -7.253906 3.9375 -6.457031 3.9375 -5.90625 C 3.9375 -4.3125 3.992188 -3.117188 4.109375 -2.328125 C 4.222656 -1.546875 4.472656 -0.769531 4.859375 0 Z M 1.109375 0 "/></g></g></g><g fill="#e6dbc6" fill-opacity="0.3216"><g transform="translate(55.469293, 121.656106)"><g><path d="M 11.25 0.34375 C 9.257812 0.34375 7.550781 -0.367188 6.125 -1.796875 C 4.695312 -3.222656 3.609375 -5.21875 2.859375 -7.78125 C 2.109375 -10.34375 1.734375 -13.34375 1.734375 -16.78125 C 1.734375 -20.207031 2.109375 -23.207031 2.859375 -25.78125 C 3.609375 -28.363281 4.695312 -30.367188 6.125 -31.796875 C 7.550781 -33.222656 9.257812 -33.9375 11.25 -33.9375 C 13.269531 -33.9375 14.984375 -33.222656 16.390625 -31.796875 C 17.796875 -30.367188 18.875 -28.363281 19.625 -25.78125 C 20.382812 -23.207031 20.765625 -20.207031 20.765625 -16.78125 C 20.765625 -13.34375 20.382812 -10.34375 19.625 -7.78125 C 18.875 -5.21875 17.796875 -3.222656 16.390625 -1.796875 C 14.984375 -0.367188 13.269531 0.34375 11.25 0.34375 Z M 7.59375 -16.78125 C 7.59375 -11.9375 7.835938 -8.175781 8.328125 -5.5 C 8.828125 -2.820312 9.816406 -1.484375 11.296875 -1.484375 C 12.796875 -1.484375 13.78125 -2.820312 14.25 -5.5 C 14.71875 -8.175781 14.953125 -11.9375 14.953125 -16.78125 C 14.953125 -21.644531 14.71875 -25.414062 14.25 -28.09375 C 13.78125 -30.769531 12.796875 -32.109375 11.296875 -32.109375 C 9.816406 -32.109375 8.828125 -30.769531 8.328125 -28.09375 C 7.835938 -25.414062 7.59375 -21.644531 7.59375 -16.78125 Z M 7.59375 -16.78125 "/></g></g></g><g fill="#e6dbc6" fill-opacity="0.3216"><g transform="translate(74.69418, 121.656106)"><g><path d="M 1.15625 0 C 1.601562 -0.769531 1.890625 -1.546875 2.015625 -2.328125 C 2.140625 -3.117188 2.203125 -4.3125 2.203125 -5.90625 L 2.203125 -27.484375 C 2.203125 -29.085938 2.140625 -30.328125 2.015625 -31.203125 C 1.890625 -32.085938 1.601562 -32.914062 1.15625 -33.6875 C 1.988281 -33.6875 2.960938 -33.6875 4.078125 -33.6875 C 5.203125 -33.6875 6.332031 -33.6875 7.46875 -33.6875 C 8.613281 -33.6875 9.617188 -33.6875 10.484375 -33.6875 C 11.890625 -33.6875 13.203125 -33.519531 14.421875 -33.1875 C 15.640625 -32.851562 16.625 -32.21875 17.375 -31.28125 C 18.125 -30.351562 18.5 -28.976562 18.5 -27.15625 C 18.5 -25.519531 18.085938 -24.019531 17.265625 -22.65625 C 16.453125 -21.300781 15.535156 -20.09375 14.515625 -19.03125 C 14.992188 -17.113281 15.441406 -15.359375 15.859375 -13.765625 C 16.273438 -12.179688 16.644531 -10.75 16.96875 -9.46875 C 17.675781 -6.84375 18.285156 -4.816406 18.796875 -3.390625 C 19.304688 -1.960938 19.878906 -0.832031 20.515625 0 L 12.40625 0 C 12.59375 -0.351562 12.703125 -0.945312 12.734375 -1.78125 C 12.765625 -2.613281 12.6875 -3.523438 12.5 -4.515625 C 12.4375 -4.867188 12.335938 -5.316406 12.203125 -5.859375 C 12.078125 -6.410156 11.9375 -7.019531 11.78125 -7.6875 C 11.550781 -8.6875 11.257812 -9.757812 10.90625 -10.90625 C 10.550781 -12.0625 10.164062 -13.394531 9.75 -14.90625 C 9.207031 -14.382812 8.757812 -13.816406 8.40625 -13.203125 C 8.050781 -12.597656 7.875 -11.929688 7.875 -11.203125 L 7.875 -5.90625 C 7.875 -4.3125 7.9375 -3.117188 8.0625 -2.328125 C 8.195312 -1.546875 8.488281 -0.769531 8.9375 0 Z M 9.609375 -31.625 L 7.875 -31.625 L 7.875 -15.09375 C 8.519531 -15.757812 9.226562 -16.660156 10 -17.796875 C 10.769531 -18.941406 11.441406 -20.304688 12.015625 -21.890625 C 12.585938 -23.472656 12.875 -25.273438 12.875 -27.296875 C 12.875 -28.453125 12.59375 -29.460938 12.03125 -30.328125 C 11.476562 -31.191406 10.671875 -31.625 9.609375 -31.625 Z M 9.609375 -31.625 "/></g></g></g><g fill="#e6dbc6" fill-opacity="0.3216"><g transform="translate(92.429143, 121.656106)"><g><path d="M 1.109375 0 C 1.554688 -0.769531 1.84375 -1.546875 1.96875 -2.328125 C 2.09375 -3.117188 2.15625 -4.3125 2.15625 -5.90625 L 2.15625 -27.78125 C 2.15625 -29.382812 2.09375 -30.566406 1.96875 -31.328125 C 1.84375 -32.097656 1.554688 -32.867188 1.109375 -33.640625 L 8.890625 -33.640625 C 8.597656 -33.128906 8.375 -32.632812 8.21875 -32.15625 C 8.0625 -31.675781 7.957031 -31.097656 7.90625 -30.421875 C 7.851562 -29.753906 7.828125 -28.875 7.828125 -27.78125 L 7.828125 -5.90625 C 7.828125 -4.3125 7.890625 -3.117188 8.015625 -2.328125 C 8.148438 -1.546875 8.441406 -0.769531 8.890625 0 Z M 1.109375 0 "/></g></g></g><g fill="#e6dbc6" fill-opacity="1"><g transform="translate(33.104529, 120.679029)"><g><path d="M 1.109375 0 C 1.492188 -0.769531 1.738281 -1.546875 1.84375 -2.328125 C 1.957031 -3.117188 2.015625 -4.3125 2.015625 -5.90625 L 2.015625 -27.78125 C 2.015625 -29.382812 1.957031 -30.566406 1.84375 -31.328125 C 1.738281 -32.097656 1.492188 -32.867188 1.109375 -33.640625 L 8.796875 -33.640625 C 8.640625 -33.285156 8.535156 -32.976562 8.484375 -32.71875 C 8.429688 -32.46875 8.40625 -32.070312 8.40625 -31.53125 C 8.40625 -30.40625 8.601562 -28.84375 9 -26.84375 C 9.40625 -24.84375 9.894531 -22.640625 10.46875 -20.234375 C 11.050781 -17.828125 11.628906 -15.425781 12.203125 -13.03125 C 12.617188 -14.820312 13.078125 -16.628906 13.578125 -18.453125 C 14.078125 -20.285156 14.539062 -22.03125 14.96875 -23.6875 C 15.40625 -25.351562 15.757812 -26.859375 16.03125 -28.203125 C 16.300781 -29.554688 16.4375 -30.664062 16.4375 -31.53125 C 16.4375 -32.070312 16.410156 -32.46875 16.359375 -32.71875 C 16.316406 -32.976562 16.210938 -33.285156 16.046875 -33.640625 L 23.546875 -33.640625 C 23.191406 -32.867188 22.957031 -32.097656 22.84375 -31.328125 C 22.738281 -30.566406 22.6875 -29.382812 22.6875 -27.78125 L 22.6875 -5.90625 C 22.6875 -4.3125 22.738281 -3.117188 22.84375 -2.328125 C 22.957031 -1.546875 23.191406 -0.769531 23.546875 0 L 15.953125 0 C 16.335938 -0.769531 16.585938 -1.546875 16.703125 -2.328125 C 16.816406 -3.117188 16.875 -4.3125 16.875 -5.90625 C 16.875 -6.457031 16.875 -7.253906 16.875 -8.296875 C 16.875 -9.335938 16.875 -10.515625 16.875 -11.828125 C 16.875 -13.140625 16.878906 -14.457031 16.890625 -15.78125 C 16.910156 -17.113281 16.921875 -18.335938 16.921875 -19.453125 C 16.921875 -20.578125 16.921875 -21.484375 16.921875 -22.171875 C 16.921875 -22.867188 16.921875 -23.21875 16.921875 -23.21875 C 16.179688 -20.300781 15.488281 -17.5625 14.84375 -15 C 14.207031 -12.4375 13.597656 -9.941406 13.015625 -7.515625 C 12.441406 -5.097656 11.851562 -2.59375 11.25 0 L 9.375 0 C 8.757812 -2.59375 8.171875 -5.109375 7.609375 -7.546875 C 7.054688 -9.984375 6.484375 -12.472656 5.890625 -15.015625 C 5.296875 -17.566406 4.628906 -20.300781 3.890625 -23.21875 C 3.890625 -23.21875 3.890625 -22.867188 3.890625 -22.171875 C 3.890625 -21.484375 3.890625 -20.578125 3.890625 -19.453125 C 3.890625 -18.335938 3.894531 -17.113281 3.90625 -15.78125 C 3.925781 -14.457031 3.9375 -13.140625 3.9375 -11.828125 C 3.9375 -10.515625 3.9375 -9.335938 3.9375 -8.296875 C 3.9375 -7.253906 3.9375 -6.457031 3.9375 -5.90625 C 3.9375 -4.3125 3.992188 -3.117188 4.109375 -2.328125 C 4.222656 -1.546875 4.472656 -0.769531 4.859375 0 Z M 1.109375 0 "/></g></g></g><g fill="#e6dbc6" fill-opacity="1"><g transform="translate(54.492214, 120.679029)"><g><path d="M 11.25 0.34375 C 9.257812 0.34375 7.550781 -0.367188 6.125 -1.796875 C 4.695312 -3.222656 3.609375 -5.21875 2.859375 -7.78125 C 2.109375 -10.34375 1.734375 -13.34375 1.734375 -16.78125 C 1.734375 -20.207031 2.109375 -23.207031 2.859375 -25.78125 C 3.609375 -28.363281 4.695312 -30.367188 6.125 -31.796875 C 7.550781 -33.222656 9.257812 -33.9375 11.25 -33.9375 C 13.269531 -33.9375 14.984375 -33.222656 16.390625 -31.796875 C 17.796875 -30.367188 18.875 -28.363281 19.625 -25.78125 C 20.382812 -23.207031 20.765625 -20.207031 20.765625 -16.78125 C 20.765625 -13.34375 20.382812 -10.34375 19.625 -7.78125 C 18.875 -5.21875 17.796875 -3.222656 16.390625 -1.796875 C 14.984375 -0.367188 13.269531 0.34375 11.25 0.34375 Z M 7.59375 -16.78125 C 7.59375 -11.9375 7.835938 -8.175781 8.328125 -5.5 C 8.828125 -2.820312 9.816406 -1.484375 11.296875 -1.484375 C 12.796875 -1.484375 13.78125 -2.820312 14.25 -5.5 C 14.71875 -8.175781 14.953125 -11.9375 14.953125 -16.78125 C 14.953125 -21.644531 14.71875 -25.414062 14.25 -28.09375 C 13.78125 -30.769531 12.796875 -32.109375 11.296875 -32.109375 C 9.816406 -32.109375 8.828125 -30.769531 8.328125 -28.09375 C 7.835938 -25.414062 7.59375 -21.644531 7.59375 -16.78125 Z M 7.59375 -16.78125 "/></g></g></g><g fill="#e6dbc6" fill-opacity="1"><g transform="translate(73.717102, 120.679029)"><g><path d="M 1.15625 0 C 1.601562 -0.769531 1.890625 -1.546875 2.015625 -2.328125 C 2.140625 -3.117188 2.203125 -4.3125 2.203125 -5.90625 L 2.203125 -27.484375 C 2.203125 -29.085938 2.140625 -30.328125 2.015625 -31.203125 C 1.890625 -32.085938 1.601562 -32.914062 1.15625 -33.6875 C 1.988281 -33.6875 2.960938 -33.6875 4.078125 -33.6875 C 5.203125 -33.6875 6.332031 -33.6875 7.46875 -33.6875 C 8.613281 -33.6875 9.617188 -33.6875 10.484375 -33.6875 C 11.890625 -33.6875 13.203125 -33.519531 14.421875 -33.1875 C 15.640625 -32.851562 16.625 -32.21875 17.375 -31.28125 C 18.125 -30.351562 18.5 -28.976562 18.5 -27.15625 C 18.5 -25.519531 18.085938 -24.019531 17.265625 -22.65625 C 16.453125 -21.300781 15.535156 -20.09375 14.515625 -19.03125 C 14.992188 -17.113281 15.441406 -15.359375 15.859375 -13.765625 C 16.273438 -12.179688 16.644531 -10.75 16.96875 -9.46875 C 17.675781 -6.84375 18.285156 -4.816406 18.796875 -3.390625 C 19.304688 -1.960938 19.878906 -0.832031 20.515625 0 L 12.40625 0 C 12.59375 -0.351562 12.703125 -0.945312 12.734375 -1.78125 C 12.765625 -2.613281 12.6875 -3.523438 12.5 -4.515625 C 12.4375 -4.867188 12.335938 -5.316406 12.203125 -5.859375 C 12.078125 -6.410156 11.9375 -7.019531 11.78125 -7.6875 C 11.550781 -8.6875 11.257812 -9.757812 10.90625 -10.90625 C 10.550781 -12.0625 10.164062 -13.394531 9.75 -14.90625 C 9.207031 -14.382812 8.757812 -13.816406 8.40625 -13.203125 C 8.050781 -12.597656 7.875 -11.929688 7.875 -11.203125 L 7.875 -5.90625 C 7.875 -4.3125 7.9375 -3.117188 8.0625 -2.328125 C 8.195312 -1.546875 8.488281 -0.769531 8.9375 0 Z M 9.609375 -31.625 L 7.875 -31.625 L 7.875 -15.09375 C 8.519531 -15.757812 9.226562 -16.660156 10 -17.796875 C 10.769531 -18.941406 11.441406 -20.304688 12.015625 -21.890625 C 12.585938 -23.472656 12.875 -25.273438 12.875 -27.296875 C 12.875 -28.453125 12.59375 -29.460938 12.03125 -30.328125 C 11.476562 -31.191406 10.671875 -31.625 9.609375 -31.625 Z M 9.609375 -31.625 "/></g></g></g><g fill="#e6dbc6" fill-opacity="1"><g transform="translate(91.452064, 120.679029)"><g><path d="M 1.109375 0 C 1.554688 -0.769531 1.84375 -1.546875 1.96875 -2.328125 C 2.09375 -3.117188 2.15625 -4.3125 2.15625 -5.90625 L 2.15625 -27.78125 C 2.15625 -29.382812 2.09375 -30.566406 1.96875 -31.328125 C 1.84375 -32.097656 1.554688 -32.867188 1.109375 -33.640625 L 8.890625 -33.640625 C 8.597656 -33.128906 8.375 -32.632812 8.21875 -32.15625 C 8.0625 -31.675781 7.957031 -31.097656 7.90625 -30.421875 C 7.851562 -29.753906 7.828125 -28.875 7.828125 -27.78125 L 7.828125 -5.90625 C 7.828125 -4.3125 7.890625 -3.117188 8.015625 -2.328125 C 8.148438 -1.546875 8.441406 -0.769531 8.890625 0 Z M 1.109375 0 "/></g></g></g><g clip-path="url(#5704d9dcf3)"><path fill="#e6dbc6" d="M 126.566406 136.949219 C 126.609375 137.964844 126.339844 138.511719 125.285156 138.015625 C 124.46875 137.507812 124.464844 136.304688 124.4375 135.433594 C 124.625 132.890625 125.429688 130.210938 124.488281 127.734375 C 124.289062 127.296875 123.546875 125.785156 123.140625 126.769531 C 123.125 126.894531 122.890625 128.128906 123.117188 128.578125 C 124.125 132.148438 123.777344 132.769531 122.765625 136.273438 C 122.664062 137.382812 123.367188 138.277344 123.488281 139.339844 C 123.539062 139.761719 123.609375 140.195312 123.648438 140.625 C 123.699219 141.171875 123.59375 141.722656 123.332031 142.207031 C 123.25 142.355469 123.152344 142.480469 122.933594 142.484375 C 122.375 142.566406 121.992188 142.332031 121.789062 141.804688 C 121.378906 143.527344 121.902344 145.410156 121.066406 147.03125 C 118.320312 148.816406 119.972656 142.5625 118.863281 140.707031 C 118.667969 140.375 118.542969 140.003906 118.503906 139.617188 C 118.234375 136.867188 119.027344 133.894531 118.230469 131.246094 C 115.171875 129.53125 118.054688 127.640625 116.871094 125.144531 C 114.808594 126.617188 117.097656 132.957031 114.679688 132.996094 C 112.964844 132.417969 113.222656 130.191406 113.277344 128.730469 C 110.085938 128.136719 106.113281 130.171875 103.375 131.792969 C 102.394531 132.25 101.3125 133.773438 100.183594 133.625 C 95.859375 132.652344 92.988281 128.089844 93.289062 123.773438 C 93.394531 122.597656 93.183594 120.742188 94.355469 120.085938 C 103.253906 113.140625 107.375 107.527344 119.550781 107.863281 C 119.917969 107.78125 120.011719 107.78125 120.09375 107.378906 C 120.269531 106.816406 120.675781 106.355469 120.875 105.8125 C 119.5625 105.144531 120.601562 103.648438 121.28125 102.886719 C 121.9375 102.109375 121.792969 100.957031 122.40625 100.15625 C 123.210938 99.109375 125.605469 99.816406 125.039062 99.042969 C 122.601562 94.585938 126 89.78125 126.441406 85.222656 C 126.609375 83.628906 126.554688 82.023438 126.675781 80.425781 C 126.675781 80.335938 126.570312 80.007812 126.847656 79.867188 C 126.882812 79.953125 127.128906 81.214844 127.28125 82.179688 C 127.375 82.761719 127.519531 83.332031 127.726562 83.886719 C 129.570312 88.875 130.542969 94.878906 127.3125 99.492188 C 128.296875 99.421875 129.082031 98.714844 130.066406 98.773438 C 131.378906 99.355469 130.824219 101.589844 130.460938 102.675781 C 130.171875 103.773438 131.097656 104.847656 130.355469 105.878906 C 131.863281 106.042969 133.445312 105.566406 134.992188 105.636719 C 136.484375 105.625 138.394531 104.558594 139.609375 105.804688 C 141.230469 108.90625 131.691406 114.027344 128.988281 113.542969 C 128.484375 115.964844 134.34375 112.136719 135.917969 113.355469 C 136.480469 112.433594 137.667969 112.179688 138.371094 111.378906 C 139.359375 110.28125 140.507812 108.945312 140.40625 107.378906 C 140.089844 104.421875 139.371094 100.4375 142.257812 98.523438 C 142.304688 97.910156 142.105469 97.207031 142.46875 96.660156 C 144.546875 95.496094 145.511719 107.152344 145.578125 108.695312 C 146.175781 106.382812 146.757812 104.03125 149.511719 103.597656 C 150.878906 101.777344 153.34375 100.949219 155.554688 101.511719 C 160.152344 97.507812 151.175781 111.332031 149.910156 111.449219 C 146.515625 116.78125 145.886719 120.890625 140.066406 124.378906 C 140.589844 127.828125 137.535156 127.691406 137.640625 125.40625 C 136.292969 126.105469 134.804688 126.488281 133.621094 127.378906 C 133.644531 128.257812 134.023438 130.492188 133.222656 130.90625 C 133.03125 131.152344 133.234375 132.757812 132.828125 133.054688 C 129.609375 134.398438 132.460938 127.667969 131.238281 126.605469 C 130.761719 126.992188 130.816406 127.550781 130.660156 128.074219 C 130.5625 128.238281 130.636719 131.554688 130.660156 131.625 C 130.644531 134.976562 130.96875 136.605469 130.019531 137.984375 C 129.605469 139.167969 129.785156 140.683594 129.75 141.886719 C 130.023438 147.558594 129.289062 148.34375 128.851562 148.476562 C 126.199219 149.417969 127.277344 143.160156 127.363281 141.785156 C 127.371094 140.136719 127.347656 138.453125 126.566406 136.949219 Z M 127.839844 143.398438 C 127.515625 144.289062 127.808594 147.453125 128.234375 147.960938 C 130.15625 147.621094 128.605469 140.722656 129.15625 138.9375 C 129.074219 137.300781 130.324219 137.136719 130.074219 135.683594 C 129.988281 134.222656 130.070312 132.757812 130.066406 131.304688 C 130.1875 129.960938 129.378906 125.867188 131.53125 126.082031 C 132.339844 126.347656 132.167969 127.546875 132.082031 128.167969 C 132.066406 128.8125 131.746094 132.609375 132.140625 132.636719 C 132.808594 132.617188 132.03125 131.019531 133.03125 130.105469 C 133.105469 128.433594 132.824219 126.714844 133.179688 125.074219 C 133.976562 122.484375 138.707031 119.265625 138.421875 124.152344 C 138.445312 124.910156 137.828125 126.449219 139.074219 126.433594 C 139.433594 125.894531 139.347656 125.261719 139.492188 124.695312 C 138.507812 121.933594 139.851562 122.511719 139.671875 121.015625 C 139.652344 120.859375 139.558594 120.726562 139.429688 120.644531 C 139.335938 120.585938 139.253906 120.519531 139.148438 120.480469 C 139.042969 120.441406 138.9375 120.402344 138.84375 120.34375 C 137.976562 119.804688 137.882812 119.007812 137.714844 118.390625 C 137.582031 118.511719 134.496094 120.445312 133.964844 120.472656 C 133.023438 120.023438 135.175781 119.136719 135.566406 118.964844 C 136.472656 118.753906 137 117.921875 137.621094 117.304688 C 138.5625 116.300781 139.769531 115.207031 139.683594 113.722656 C 138.878906 114.285156 138.007812 114.300781 137.070312 114.246094 C 136.054688 114.382812 135.21875 113.539062 134.183594 113.859375 C 132.167969 114.171875 131.167969 115.183594 128.976562 114.863281 C 128.898438 115.136719 129.003906 115.574219 128.722656 115.71875 C 128.390625 115.738281 128.328125 115.679688 128.320312 115.359375 C 128.320312 114.402344 128.253906 113.4375 128.453125 112.492188 C 128.574219 111.714844 129.316406 112.183594 129.226562 111.0625 C 129.359375 110.398438 128.597656 107.304688 129.257812 106.046875 C 129.523438 105.6875 129.933594 105.398438 129.914062 104.894531 C 129.910156 104.855469 129.445312 103.011719 129.898438 102.25 C 130.054688 101.652344 130.691406 100.300781 130.011719 99.59375 C 129.90625 99.488281 129.742188 99.460938 129.605469 99.519531 C 125.71875 101.199219 125.582031 99.425781 122.992188 100.292969 C 122.238281 100.945312 122.460938 102.679688 121.5625 103.457031 C 121.28125 103.808594 120.640625 104.734375 120.886719 105.140625 C 121.472656 105.734375 121.601562 103.777344 122.253906 104.207031 C 122.328125 104.753906 119.6875 108.695312 120.957031 108.230469 C 121.363281 107.523438 121.472656 106.558594 122.46875 106.511719 C 123.03125 105.863281 122.746094 104.929688 123.019531 104.167969 C 123.28125 103.757812 123.1875 103.003906 123.8125 102.96875 C 123.882812 103.765625 123.40625 104.53125 123.40625 105.332031 C 123.273438 106.664062 123.214844 106.78125 122.070312 107.269531 C 121.691406 107.84375 121.632812 108.992188 120.757812 109.019531 C 120.3125 110.117188 119.066406 112.628906 121.34375 111.296875 C 121.625 111.691406 121.039062 112.289062 120.605469 112.207031 C 120.484375 112.980469 120.707031 115.144531 119.976562 115.472656 C 119.605469 115.699219 118.921875 116.195312 118.582031 115.714844 C 118.621094 115.695312 119.859375 115.285156 119.808594 114.421875 C 117.613281 115.289062 114.691406 113.609375 112.96875 115.480469 C 112.765625 115.703125 112.527344 115.890625 112.257812 116.019531 C 111.976562 116.15625 111.683594 116.269531 111.457031 116.03125 C 112.277344 115.117188 110.808594 115.335938 110.636719 115.441406 C 110.308594 115.472656 110.007812 115.792969 110.199219 116.175781 C 110.453125 116.183594 111.621094 117.25 111.257812 117.820312 C 111.46875 118.933594 113.117188 118.367188 113.703125 119.148438 C 116.015625 122.472656 112.273438 129.699219 114.714844 132.320312 C 115.972656 131.546875 114.230469 124.910156 116.914062 124.433594 C 118.484375 125.183594 117.628906 127.757812 117.382812 129.226562 C 117.320312 130.054688 118.367188 130.277344 118.796875 130.824219 C 119.484375 132.859375 119.203125 135.164062 119.179688 137.300781 C 118.804688 140.40625 119.511719 139.644531 119.9375 142.039062 C 120.164062 142.511719 119.714844 147.875 120.671875 146.292969 C 121.25 145.195312 120.332031 140.460938 122.15625 140.976562 C 123.332031 143.648438 122.933594 139.535156 122.714844 138.777344 C 122.613281 138.15625 122.113281 137.652344 122.167969 136.996094 C 121.867188 135.0625 123.289062 133.996094 123.152344 132.289062 C 123.140625 132.148438 123.136719 132.011719 123.144531 131.875 C 123.226562 130.347656 122.28125 129.054688 122.402344 127.511719 C 122.355469 125.894531 123.527344 125.097656 124.625 126.566406 C 125.210938 127.664062 125.605469 128.882812 125.585938 130.117188 C 125.554688 131.363281 124.621094 136.019531 125.390625 137.175781 C 126.441406 138.746094 125.285156 134.894531 125.542969 134.484375 C 125.53125 133.574219 126.914062 133.335938 127.015625 134.328125 C 127.234375 135.046875 126.914062 135.816406 127.175781 136.527344 C 128.074219 138.707031 128.210938 141.164062 127.839844 143.398438 Z M 95.402344 129.417969 C 102.523438 137.886719 101.527344 127.832031 113.367188 127.792969 C 113.152344 125.128906 114.738281 122.292969 113.40625 119.765625 C 112.976562 118.957031 111.878906 119.378906 111.203125 118.859375 C 110.597656 118.519531 110.574219 117.859375 110.730469 117.273438 C 110.480469 117.007812 110.003906 116.757812 109.660156 116.765625 C 108.921875 117.007812 108.070312 116.941406 107.316406 117.253906 C 106.902344 117.375 106.628906 117.652344 106.15625 117.632812 C 106.957031 116.648438 108.421875 116.550781 109.570312 116.207031 C 109.242188 114.265625 111.828125 114.929688 112.976562 114.5625 C 113.488281 114.308594 114.035156 113.976562 114.625 113.96875 C 116.550781 113.574219 120.148438 115.339844 120.050781 112.277344 C 118.160156 111.496094 121.089844 108.503906 119.820312 108.628906 C 115.296875 109.21875 110.867188 108.367188 106.96875 111.441406 C 102.753906 114.207031 98.835938 117.414062 94.757812 120.351562 C 92.871094 122.320312 94.273438 127.339844 95.402344 129.417969 Z M 141.253906 122.441406 C 144.953125 120.53125 147.371094 114.070312 149.410156 110.359375 C 149.839844 109.664062 149.382812 108.871094 149.519531 108.105469 C 149.628906 106.75 150.105469 105.484375 150.578125 104.222656 C 146.660156 103.804688 147.09375 107.457031 145.554688 109.707031 C 144.074219 115.167969 144.875 117.519531 141.253906 122.441406 Z M 137.371094 108.953125 C 139.644531 104.582031 132.410156 106.886719 130.316406 106.34375 C 129.429688 106.257812 129.660156 107.722656 129.589844 108.304688 C 129.464844 109.503906 130.328125 110.648438 129.789062 111.820312 C 129.40625 112.789062 128.949219 112.351562 129.070312 112.863281 C 132.285156 112.757812 135.1875 110.921875 137.371094 108.953125 Z M 143.910156 109.496094 C 139.824219 109.796875 141.347656 115.9375 138.113281 117.777344 C 138.511719 118.359375 138.285156 119.308594 138.96875 119.667969 C 140.03125 119.972656 140.605469 121.058594 139.929688 122.371094 C 139.707031 122.699219 139.808594 123.042969 139.875 123.398438 C 141.679688 120.546875 143.738281 117.625 143.9375 114.132812 C 142.703125 113.445312 143.398438 110.566406 143.910156 109.496094 Z M 141.105469 108.261719 C 141.085938 108.394531 141.085938 108.527344 141.085938 108.660156 C 141.082031 109.183594 140.285156 110.144531 140.074219 110.542969 C 139.332031 111.855469 138.050781 112.617188 136.882812 113.480469 C 138.34375 113.78125 139.90625 113.308594 140.300781 111.71875 C 140.796875 110.144531 142.433594 108.570312 144.175781 109.085938 C 145.367188 108.058594 144.574219 104.769531 144.355469 103.304688 C 142.628906 102.6875 142.664062 100.699219 142.253906 99.238281 C 141.097656 100.054688 141 101.507812 140.914062 102.792969 C 140.90625 102.921875 141.242188 107.257812 141.105469 108.261719 Z M 127.140625 84.402344 C 126.941406 89.09375 123.226562 94.335938 125.710938 98.960938 C 125.765625 98.4375 125.582031 97.867188 125.847656 97.382812 C 126.382812 96.378906 126.015625 95.199219 126.492188 94.175781 C 127.640625 93.015625 126.582031 98.6875 126.703125 99.179688 C 129.660156 95.015625 129.050781 88.824219 127.140625 84.402344 Z M 133.640625 126.699219 C 134.425781 125.820312 138.023438 124.988281 137.800781 124.257812 C 137.988281 119.246094 133.027344 124.203125 133.640625 126.699219 Z M 152.882812 107.070312 C 151.890625 103.28125 157.917969 101.15625 152.449219 102.191406 C 152.0625 104.992188 151.332031 107.644531 150.261719 110.246094 C 151.277344 109.246094 152.007812 108.132812 152.882812 107.070312 Z M 126.375 136.28125 C 126.460938 135.6875 126.542969 134.941406 126.347656 134.34375 C 125.941406 134.496094 126.285156 135.914062 126.375 136.28125 Z M 151.277344 102.75 C 150.925781 102.796875 150.546875 103.320312 150.152344 103.558594 C 150.871094 103.699219 151.03125 103.332031 151.277344 102.75 Z M 151.277344 102.75 " fill-opacity="1" fill-rule="nonzero"/></g><path fill="#e6dbc6" d="M 119.957031 135.347656 C 120.070312 133.734375 119.835938 132.1875 119.457031 130.640625 C 119.355469 130.230469 119.308594 129.808594 119.320312 129.386719 C 119.371094 127.636719 119.347656 124.824219 121.175781 124.59375 C 121.851562 125.109375 121.050781 125.933594 121.175781 126.578125 C 121.183594 127.296875 121.351562 128.046875 121.554688 128.757812 C 121.683594 129.210938 121.71875 129.6875 121.664062 130.15625 C 121.433594 132.117188 121.515625 134.101562 121.222656 136.058594 C 120.726562 136.988281 119.714844 136.152344 119.957031 135.347656 Z M 120.730469 135.277344 C 120.910156 134.203125 120.882812 133.078125 120.875 131.980469 C 120.832031 131.070312 121.378906 130.195312 121.046875 129.289062 C 120.792969 128.292969 120.507812 127.222656 120.566406 126.199219 C 120.613281 125.875 121.019531 125.480469 120.75 125.1875 C 120.261719 125.664062 119.839844 127.203125 119.972656 129.105469 C 119.980469 129.351562 119.898438 129.621094 119.976562 129.835938 C 120.316406 131.273438 120.503906 134.34375 120.546875 135.390625 C 120.734375 135.527344 120.746094 135.476562 120.730469 135.277344 Z M 120.730469 135.277344 " fill-opacity="1" fill-rule="nonzero"/><path fill="#e6dbc6" d="M 128.839844 130.78125 C 129.472656 130.503906 129.164062 132.269531 129.28125 132.675781 C 129.402344 134.136719 129.707031 135.675781 128.710938 136.925781 C 128.445312 136.484375 128.707031 136.136719 128.757812 135.6875 C 129.070312 134.066406 128.375 132.375 128.839844 130.78125 Z M 128.839844 130.78125 " fill-opacity="1" fill-rule="nonzero"/><path fill="#e6dbc6" d="M 130.574219 116.964844 C 130.425781 117.015625 130.375 117.152344 130.167969 117.113281 C 129.613281 117 129.054688 117.035156 128.527344 117.257812 C 127.710938 117.644531 126.796875 117.878906 125.898438 117.675781 C 125.527344 117.605469 125.011719 117.753906 124.726562 117.441406 C 124.902344 117.121094 125.113281 117.339844 125.375 117.289062 C 127.289062 117.640625 129.347656 115.722656 130.574219 116.964844 Z M 130.574219 116.964844 " fill-opacity="1" fill-rule="nonzero"/><path fill="#e6dbc6" d="M 125.316406 123.082031 C 125.402344 123.160156 125.472656 123.21875 125.566406 123.300781 C 125.089844 123.949219 125.125 125.121094 126.210938 124.621094 C 126.671875 125.152344 125.695312 125.390625 125.296875 125.210938 C 124.515625 124.84375 124.636719 123.507812 125.316406 123.082031 Z M 125.316406 123.082031 " fill-opacity="1" fill-rule="nonzero"/><path fill="#e6dbc6" d="M 121.800781 122.445312 C 121.875 122.5 121.945312 122.546875 122.023438 122.605469 C 121.320312 124.214844 119.503906 122.476562 120.910156 121.449219 C 121.519531 121.4375 121.089844 121.800781 120.921875 122.0625 C 120.820312 122.222656 120.847656 122.386719 120.972656 122.503906 C 121.273438 122.847656 121.480469 122.566406 121.800781 122.445312 Z M 121.800781 122.445312 " fill-opacity="1" fill-rule="nonzero"/><path fill="#e6dbc6" d="M 115.371094 121.894531 C 114.929688 121.820312 115.097656 120.597656 114.835938 120.152344 C 114.734375 119.960938 114.5 119.800781 114.578125 119.542969 C 114.582031 119.527344 114.582031 119.511719 114.578125 119.492188 C 114.558594 119.398438 114.652344 119.316406 114.742188 119.34375 C 115.394531 119.535156 115.699219 121.335938 115.371094 121.894531 Z M 115.371094 121.894531 " fill-opacity="1" fill-rule="nonzero"/><path fill="#e6dbc6" d="M 135.402344 115.132812 C 135.464844 114.648438 137.214844 114.816406 137.597656 114.980469 C 137.382812 115.65625 136.359375 115.3125 135.820312 115.363281 C 135.640625 115.386719 135.636719 115.367188 135.402344 115.132812 Z M 135.402344 115.132812 " fill-opacity="1" fill-rule="nonzero"/><path fill="#e6dbc6" d="M 117.160156 116.121094 C 116.929688 116.660156 116.753906 115.914062 115.273438 116.472656 C 114.371094 115.96875 116.707031 115.308594 117.160156 116.121094 Z M 117.160156 116.121094 " fill-opacity="1" fill-rule="nonzero"/><path fill="#e6dbc6" d="M 122.308594 109.925781 C 122.5625 109.992188 122.773438 109.738281 123.011719 109.875 C 122.933594 110.089844 122.910156 110.277344 122.664062 110.328125 C 121.996094 110.9375 121.289062 109.367188 121.992188 109.003906 C 122.6875 108.945312 121.988281 109.621094 122.308594 109.925781 Z M 122.308594 109.925781 " fill-opacity="1" fill-rule="nonzero"/><path fill="#e6dbc6" d="M 121.371094 114.195312 C 121.375 113.988281 121.25 113.800781 121.324219 113.613281 C 121.417969 113.332031 121.316406 113 121.574219 112.785156 C 122.082031 112.78125 121.914062 114.386719 121.371094 114.195312 Z M 121.371094 114.195312 " fill-opacity="1" fill-rule="nonzero"/><path fill="#e6dbc6" d="M 131.324219 117.007812 C 131.425781 116.726562 131.421875 116.546875 131.796875 116.742188 C 132.3125 117.148438 131.644531 117.1875 131.324219 117.007812 Z M 131.324219 117.007812 " fill-opacity="1" fill-rule="nonzero"/></svg>