<svg xmlns="http://www.w3.org/2000/svg" xmlns:xlink="http://www.w3.org/1999/xlink" width="250" zoomAndPan="magnify" viewBox="0 0 187.5 149.999998" height="200" preserveAspectRatio="xMidYMid meet" version="1.0"><defs><g/><clipPath id="5f57c26828"><path d="M 93 58.894531 L 169 58.894531 L 169 141 L 93 141 Z M 93 58.894531 " clip-rule="nonzero"/></clipPath></defs><g fill="#e6dbc6" fill-opacity="0.3216"><g transform="translate(15.817569, 57.330126)"><g><path d="M 1.3125 0 C 1.757812 -0.90625 2.050781 -1.820312 2.1875 -2.75 C 2.320312 -3.675781 2.390625 -5.085938 2.390625 -6.984375 L 2.390625 -32.8125 C 2.390625 -34.707031 2.320312 -36.109375 2.1875 -37.015625 C 2.050781 -37.921875 1.757812 -38.828125 1.3125 -39.734375 L 10.390625 -39.734375 C 10.203125 -39.316406 10.078125 -38.957031 10.015625 -38.65625 C 9.960938 -38.351562 9.9375 -37.878906 9.9375 -37.234375 C 9.9375 -35.910156 10.171875 -34.066406 10.640625 -31.703125 C 11.117188 -29.335938 11.695312 -26.734375 12.375 -23.890625 C 13.050781 -21.054688 13.734375 -18.222656 14.421875 -15.390625 C 14.910156 -17.503906 15.445312 -19.640625 16.03125 -21.796875 C 16.625 -23.953125 17.175781 -26.015625 17.6875 -27.984375 C 18.195312 -29.953125 18.609375 -31.726562 18.921875 -33.3125 C 19.242188 -34.90625 19.40625 -36.210938 19.40625 -37.234375 C 19.40625 -37.878906 19.378906 -38.351562 19.328125 -38.65625 C 19.273438 -38.957031 19.148438 -39.316406 18.953125 -39.734375 L 27.8125 -39.734375 C 27.394531 -38.828125 27.117188 -37.921875 26.984375 -37.015625 C 26.859375 -36.109375 26.796875 -34.707031 26.796875 -32.8125 L 26.796875 -6.984375 C 26.796875 -5.085938 26.859375 -3.675781 26.984375 -2.75 C 27.117188 -1.820312 27.394531 -0.90625 27.8125 0 L 18.84375 0 C 19.300781 -0.90625 19.59375 -1.820312 19.71875 -2.75 C 19.851562 -3.675781 19.921875 -5.085938 19.921875 -6.984375 C 19.921875 -7.628906 19.921875 -8.566406 19.921875 -9.796875 C 19.921875 -11.023438 19.921875 -12.414062 19.921875 -13.96875 C 19.921875 -15.519531 19.929688 -17.078125 19.953125 -18.640625 C 19.972656 -20.210938 19.984375 -21.660156 19.984375 -22.984375 C 19.984375 -24.316406 19.984375 -25.390625 19.984375 -26.203125 C 19.984375 -27.015625 19.984375 -27.421875 19.984375 -27.421875 C 19.109375 -23.972656 18.289062 -20.734375 17.53125 -17.703125 C 16.78125 -14.679688 16.0625 -11.738281 15.375 -8.875 C 14.695312 -6.019531 14 -3.0625 13.28125 0 L 11.0625 0 C 10.34375 -3.0625 9.648438 -6.03125 8.984375 -8.90625 C 8.328125 -11.78125 7.648438 -14.722656 6.953125 -17.734375 C 6.253906 -20.742188 5.46875 -23.972656 4.59375 -27.421875 C 4.59375 -27.421875 4.59375 -27.015625 4.59375 -26.203125 C 4.59375 -25.390625 4.59375 -24.316406 4.59375 -22.984375 C 4.59375 -21.660156 4.601562 -20.210938 4.625 -18.640625 C 4.644531 -17.078125 4.65625 -15.519531 4.65625 -13.96875 C 4.65625 -12.414062 4.65625 -11.023438 4.65625 -9.796875 C 4.65625 -8.566406 4.65625 -7.628906 4.65625 -6.984375 C 4.65625 -5.085938 4.71875 -3.675781 4.84375 -2.75 C 4.976562 -1.820312 5.273438 -0.90625 5.734375 0 Z M 1.3125 0 "/></g></g></g><g fill="#e6dbc6" fill-opacity="0.3216"><g transform="translate(41.081021, 57.330126)"><g><path d="M 2.609375 -32.8125 C 2.609375 -34.707031 2.53125 -36.109375 2.375 -37.015625 C 2.226562 -37.921875 1.890625 -38.828125 1.359375 -39.734375 L 20.5 -39.734375 L 20.5 -26.90625 L 19.8125 -26.90625 C 19.8125 -28.875 19.515625 -30.671875 18.921875 -32.296875 C 18.335938 -33.921875 17.429688 -35.222656 16.203125 -36.203125 C 14.972656 -37.191406 13.394531 -37.6875 11.46875 -37.6875 L 9.3125 -37.6875 L 9.3125 -23.5 L 10.28125 -23.5 C 11.070312 -23.5 11.898438 -23.742188 12.765625 -24.234375 C 13.640625 -24.734375 14.378906 -25.507812 14.984375 -26.5625 C 15.585938 -27.625 15.890625 -28.988281 15.890625 -30.65625 L 16.578125 -30.65625 L 16.578125 -14.359375 L 15.890625 -14.359375 C 15.890625 -16.066406 15.585938 -17.4375 14.984375 -18.46875 C 14.378906 -19.507812 13.640625 -20.273438 12.765625 -20.765625 C 11.898438 -21.265625 11.070312 -21.515625 10.28125 -21.515625 L 9.3125 -21.515625 L 9.3125 -2.046875 C 11.957031 -1.972656 13.96875 -2.296875 15.34375 -3.015625 C 16.726562 -3.734375 17.734375 -4.90625 18.359375 -6.53125 C 18.984375 -8.15625 19.46875 -10.253906 19.8125 -12.828125 L 20.5 -12.828125 L 20.5 0 L 1.359375 0 C 1.890625 -0.90625 2.226562 -1.8125 2.375 -2.71875 C 2.53125 -3.632812 2.609375 -5.035156 2.609375 -6.921875 Z M 2.609375 -32.8125 "/></g></g></g><g fill="#e6dbc6" fill-opacity="0.3216"><g transform="translate(59.588624, 57.330126)"><g><path d="M 1.3125 0 C 1.757812 -0.90625 2.050781 -1.820312 2.1875 -2.75 C 2.320312 -3.675781 2.390625 -5.085938 2.390625 -6.984375 L 2.390625 -32.8125 C 2.390625 -34.707031 2.320312 -36.109375 2.1875 -37.015625 C 2.050781 -37.921875 1.757812 -38.828125 1.3125 -39.734375 L 10.390625 -39.734375 C 10.203125 -39.316406 10.078125 -38.957031 10.015625 -38.65625 C 9.960938 -38.351562 9.9375 -37.878906 9.9375 -37.234375 C 9.9375 -35.910156 10.171875 -34.066406 10.640625 -31.703125 C 11.117188 -29.335938 11.695312 -26.734375 12.375 -23.890625 C 13.050781 -21.054688 13.734375 -18.222656 14.421875 -15.390625 C 14.910156 -17.503906 15.445312 -19.640625 16.03125 -21.796875 C 16.625 -23.953125 17.175781 -26.015625 17.6875 -27.984375 C 18.195312 -29.953125 18.609375 -31.726562 18.921875 -33.3125 C 19.242188 -34.90625 19.40625 -36.210938 19.40625 -37.234375 C 19.40625 -37.878906 19.378906 -38.351562 19.328125 -38.65625 C 19.273438 -38.957031 19.148438 -39.316406 18.953125 -39.734375 L 27.8125 -39.734375 C 27.394531 -38.828125 27.117188 -37.921875 26.984375 -37.015625 C 26.859375 -36.109375 26.796875 -34.707031 26.796875 -32.8125 L 26.796875 -6.984375 C 26.796875 -5.085938 26.859375 -3.675781 26.984375 -2.75 C 27.117188 -1.820312 27.394531 -0.90625 27.8125 0 L 18.84375 0 C 19.300781 -0.90625 19.59375 -1.820312 19.71875 -2.75 C 19.851562 -3.675781 19.921875 -5.085938 19.921875 -6.984375 C 19.921875 -7.628906 19.921875 -8.566406 19.921875 -9.796875 C 19.921875 -11.023438 19.921875 -12.414062 19.921875 -13.96875 C 19.921875 -15.519531 19.929688 -17.078125 19.953125 -18.640625 C 19.972656 -20.210938 19.984375 -21.660156 19.984375 -22.984375 C 19.984375 -24.316406 19.984375 -25.390625 19.984375 -26.203125 C 19.984375 -27.015625 19.984375 -27.421875 19.984375 -27.421875 C 19.109375 -23.972656 18.289062 -20.734375 17.53125 -17.703125 C 16.78125 -14.679688 16.0625 -11.738281 15.375 -8.875 C 14.695312 -6.019531 14 -3.0625 13.28125 0 L 11.0625 0 C 10.34375 -3.0625 9.648438 -6.03125 8.984375 -8.90625 C 8.328125 -11.78125 7.648438 -14.722656 6.953125 -17.734375 C 6.253906 -20.742188 5.46875 -23.972656 4.59375 -27.421875 C 4.59375 -27.421875 4.59375 -27.015625 4.59375 -26.203125 C 4.59375 -25.390625 4.59375 -24.316406 4.59375 -22.984375 C 4.59375 -21.660156 4.601562 -20.210938 4.625 -18.640625 C 4.644531 -17.078125 4.65625 -15.519531 4.65625 -13.96875 C 4.65625 -12.414062 4.65625 -11.023438 4.65625 -9.796875 C 4.65625 -8.566406 4.65625 -7.628906 4.65625 -6.984375 C 4.65625 -5.085938 4.71875 -3.675781 4.84375 -2.75 C 4.976562 -1.820312 5.273438 -0.90625 5.734375 0 Z M 1.3125 0 "/></g></g></g><g fill="#e6dbc6" fill-opacity="0.3216"><g transform="translate(84.852076, 57.330126)"><g><path d="M 2.609375 -32.8125 C 2.609375 -34.707031 2.53125 -36.109375 2.375 -37.015625 C 2.226562 -37.921875 1.890625 -38.828125 1.359375 -39.734375 L 20.5 -39.734375 L 20.5 -26.90625 L 19.8125 -26.90625 C 19.8125 -28.875 19.515625 -30.671875 18.921875 -32.296875 C 18.335938 -33.921875 17.429688 -35.222656 16.203125 -36.203125 C 14.972656 -37.191406 13.394531 -37.6875 11.46875 -37.6875 L 9.3125 -37.6875 L 9.3125 -23.5 L 10.28125 -23.5 C 11.070312 -23.5 11.898438 -23.742188 12.765625 -24.234375 C 13.640625 -24.734375 14.378906 -25.507812 14.984375 -26.5625 C 15.585938 -27.625 15.890625 -28.988281 15.890625 -30.65625 L 16.578125 -30.65625 L 16.578125 -14.359375 L 15.890625 -14.359375 C 15.890625 -16.066406 15.585938 -17.4375 14.984375 -18.46875 C 14.378906 -19.507812 13.640625 -20.273438 12.765625 -20.765625 C 11.898438 -21.265625 11.070312 -21.515625 10.28125 -21.515625 L 9.3125 -21.515625 L 9.3125 -2.046875 C 11.957031 -1.972656 13.96875 -2.296875 15.34375 -3.015625 C 16.726562 -3.734375 17.734375 -4.90625 18.359375 -6.53125 C 18.984375 -8.15625 19.46875 -10.253906 19.8125 -12.828125 L 20.5 -12.828125 L 20.5 0 L 1.359375 0 C 1.890625 -0.90625 2.226562 -1.8125 2.375 -2.71875 C 2.53125 -3.632812 2.609375 -5.035156 2.609375 -6.921875 Z M 2.609375 -32.8125 "/></g></g></g><g fill="#e6dbc6" fill-opacity="0.3216"><g transform="translate(103.359679, 57.330126)"><g><path d="M 1.3125 0 C 1.832031 -0.90625 2.175781 -1.820312 2.34375 -2.75 C 2.519531 -3.675781 2.609375 -5.085938 2.609375 -6.984375 L 2.609375 -32.8125 C 2.609375 -34.09375 2.570312 -35.128906 2.5 -35.921875 C 2.425781 -36.722656 2.300781 -37.40625 2.125 -37.96875 C 1.957031 -38.539062 1.6875 -39.128906 1.3125 -39.734375 L 9.65625 -39.734375 L 19.1875 -10.390625 C 19.1875 -10.390625 19.1875 -10.859375 19.1875 -11.796875 C 19.1875 -12.742188 19.1875 -13.992188 19.1875 -15.546875 C 19.1875 -17.097656 19.175781 -18.78125 19.15625 -20.59375 C 19.132812 -22.414062 19.125 -24.207031 19.125 -25.96875 C 19.125 -27.726562 19.125 -29.289062 19.125 -30.65625 C 19.125 -32.019531 19.125 -33.019531 19.125 -33.65625 C 19.125 -34.945312 19.09375 -35.910156 19.03125 -36.546875 C 18.976562 -37.191406 18.859375 -37.734375 18.671875 -38.171875 C 18.484375 -38.609375 18.21875 -39.128906 17.875 -39.734375 L 22.8125 -39.734375 C 22.320312 -38.828125 21.984375 -37.910156 21.796875 -36.984375 C 21.609375 -36.054688 21.515625 -34.644531 21.515625 -32.75 C 21.515625 -32.21875 21.515625 -31.222656 21.515625 -29.765625 C 21.515625 -28.316406 21.503906 -26.597656 21.484375 -24.609375 C 21.460938 -22.617188 21.453125 -20.503906 21.453125 -18.265625 C 21.453125 -16.035156 21.453125 -13.84375 21.453125 -11.6875 C 21.453125 -9.53125 21.441406 -7.570312 21.421875 -5.8125 C 21.410156 -4.050781 21.40625 -2.640625 21.40625 -1.578125 C 21.40625 -0.523438 21.40625 0 21.40625 0 L 15.265625 0 L 4.875 -31.953125 C 4.875 -31.953125 4.875 -31.429688 4.875 -30.390625 C 4.875 -29.359375 4.882812 -28.007812 4.90625 -26.34375 C 4.925781 -24.675781 4.9375 -22.859375 4.9375 -20.890625 C 4.9375 -18.921875 4.945312 -17 4.96875 -15.125 C 4.988281 -13.25 5 -11.582031 5 -10.125 C 5 -8.675781 5 -7.628906 5 -6.984375 C 5 -5.085938 5.082031 -3.675781 5.25 -2.75 C 5.414062 -1.820312 5.75 -0.90625 6.25 0 Z M 1.3125 0 "/></g></g></g><g fill="#e6dbc6" fill-opacity="0.3216"><g transform="translate(123.627214, 57.330126)"><g><path d="M 0.90625 -26.90625 L 0.90625 -39.734375 L 21.234375 -39.734375 L 21.234375 -26.90625 L 20.546875 -26.90625 C 20.546875 -28.875 20.351562 -30.691406 19.96875 -32.359375 C 19.59375 -34.023438 19.007812 -35.375 18.21875 -36.40625 C 17.425781 -37.445312 16.425781 -37.96875 15.21875 -37.96875 L 14.421875 -38.03125 L 14.421875 -6.984375 C 14.421875 -5.085938 14.492188 -3.675781 14.640625 -2.75 C 14.796875 -1.820312 15.140625 -0.90625 15.671875 0 L 6.46875 0 C 7 -0.90625 7.335938 -1.820312 7.484375 -2.75 C 7.640625 -3.675781 7.71875 -5.085938 7.71875 -6.984375 L 7.71875 -38.03125 L 6.875 -37.96875 C 5.65625 -37.96875 4.648438 -37.445312 3.859375 -36.40625 C 3.066406 -35.375 2.476562 -34.023438 2.09375 -32.359375 C 1.71875 -30.691406 1.53125 -28.875 1.53125 -26.90625 Z M 0.90625 -26.90625 "/></g></g></g><g fill="#e6dbc6" fill-opacity="0.3216"><g transform="translate(141.907734, 57.330126)"><g><path d="M 13.28125 0.390625 C 10.9375 0.390625 8.921875 -0.445312 7.234375 -2.125 C 5.554688 -3.8125 4.269531 -6.164062 3.375 -9.1875 C 2.488281 -12.21875 2.046875 -15.757812 2.046875 -19.8125 C 2.046875 -23.863281 2.488281 -27.410156 3.375 -30.453125 C 4.269531 -33.503906 5.554688 -35.867188 7.234375 -37.546875 C 8.921875 -39.234375 10.9375 -40.078125 13.28125 -40.078125 C 15.664062 -40.078125 17.691406 -39.234375 19.359375 -37.546875 C 21.023438 -35.867188 22.300781 -33.503906 23.1875 -30.453125 C 24.070312 -27.410156 24.515625 -23.863281 24.515625 -19.8125 C 24.515625 -15.757812 24.070312 -12.21875 23.1875 -9.1875 C 22.300781 -6.164062 21.023438 -3.8125 19.359375 -2.125 C 17.691406 -0.445312 15.664062 0.390625 13.28125 0.390625 Z M 8.96875 -19.8125 C 8.96875 -14.09375 9.257812 -9.65625 9.84375 -6.5 C 10.4375 -3.34375 11.601562 -1.765625 13.34375 -1.765625 C 15.125 -1.765625 16.285156 -3.34375 16.828125 -6.5 C 17.378906 -9.65625 17.65625 -14.09375 17.65625 -19.8125 C 17.65625 -25.5625 17.378906 -30.015625 16.828125 -33.171875 C 16.285156 -36.335938 15.125 -37.921875 13.34375 -37.921875 C 11.601562 -37.921875 10.4375 -36.335938 9.84375 -33.171875 C 9.257812 -30.015625 8.96875 -25.5625 8.96875 -19.8125 Z M 8.96875 -19.8125 "/></g></g></g><g fill="#e6dbc6" fill-opacity="1"><g transform="translate(14.663429, 56.175987)"><g><path d="M 1.3125 0 C 1.757812 -0.90625 2.050781 -1.820312 2.1875 -2.75 C 2.320312 -3.675781 2.390625 -5.085938 2.390625 -6.984375 L 2.390625 -32.8125 C 2.390625 -34.707031 2.320312 -36.109375 2.1875 -37.015625 C 2.050781 -37.921875 1.757812 -38.828125 1.3125 -39.734375 L 10.390625 -39.734375 C 10.203125 -39.316406 10.078125 -38.957031 10.015625 -38.65625 C 9.960938 -38.351562 9.9375 -37.878906 9.9375 -37.234375 C 9.9375 -35.910156 10.171875 -34.066406 10.640625 -31.703125 C 11.117188 -29.335938 11.695312 -26.734375 12.375 -23.890625 C 13.050781 -21.054688 13.734375 -18.222656 14.421875 -15.390625 C 14.910156 -17.503906 15.445312 -19.640625 16.03125 -21.796875 C 16.625 -23.953125 17.175781 -26.015625 17.6875 -27.984375 C 18.195312 -29.953125 18.609375 -31.726562 18.921875 -33.3125 C 19.242188 -34.90625 19.40625 -36.210938 19.40625 -37.234375 C 19.40625 -37.878906 19.378906 -38.351562 19.328125 -38.65625 C 19.273438 -38.957031 19.148438 -39.316406 18.953125 -39.734375 L 27.8125 -39.734375 C 27.394531 -38.828125 27.117188 -37.921875 26.984375 -37.015625 C 26.859375 -36.109375 26.796875 -34.707031 26.796875 -32.8125 L 26.796875 -6.984375 C 26.796875 -5.085938 26.859375 -3.675781 26.984375 -2.75 C 27.117188 -1.820312 27.394531 -0.90625 27.8125 0 L 18.84375 0 C 19.300781 -0.90625 19.59375 -1.820312 19.71875 -2.75 C 19.851562 -3.675781 19.921875 -5.085938 19.921875 -6.984375 C 19.921875 -7.628906 19.921875 -8.566406 19.921875 -9.796875 C 19.921875 -11.023438 19.921875 -12.414062 19.921875 -13.96875 C 19.921875 -15.519531 19.929688 -17.078125 19.953125 -18.640625 C 19.972656 -20.210938 19.984375 -21.660156 19.984375 -22.984375 C 19.984375 -24.316406 19.984375 -25.390625 19.984375 -26.203125 C 19.984375 -27.015625 19.984375 -27.421875 19.984375 -27.421875 C 19.109375 -23.972656 18.289062 -20.734375 17.53125 -17.703125 C 16.78125 -14.679688 16.0625 -11.738281 15.375 -8.875 C 14.695312 -6.019531 14 -3.0625 13.28125 0 L 11.0625 0 C 10.34375 -3.0625 9.648438 -6.03125 8.984375 -8.90625 C 8.328125 -11.78125 7.648438 -14.722656 6.953125 -17.734375 C 6.253906 -20.742188 5.46875 -23.972656 4.59375 -27.421875 C 4.59375 -27.421875 4.59375 -27.015625 4.59375 -26.203125 C 4.59375 -25.390625 4.59375 -24.316406 4.59375 -22.984375 C 4.59375 -21.660156 4.601562 -20.210938 4.625 -18.640625 C 4.644531 -17.078125 4.65625 -15.519531 4.65625 -13.96875 C 4.65625 -12.414062 4.65625 -11.023438 4.65625 -9.796875 C 4.65625 -8.566406 4.65625 -7.628906 4.65625 -6.984375 C 4.65625 -5.085938 4.71875 -3.675781 4.84375 -2.75 C 4.976562 -1.820312 5.273438 -0.90625 5.734375 0 Z M 1.3125 0 "/></g></g></g><g fill="#e6dbc6" fill-opacity="1"><g transform="translate(39.926881, 56.175987)"><g><path d="M 2.609375 -32.8125 C 2.609375 -34.707031 2.53125 -36.109375 2.375 -37.015625 C 2.226562 -37.921875 1.890625 -38.828125 1.359375 -39.734375 L 20.5 -39.734375 L 20.5 -26.90625 L 19.8125 -26.90625 C 19.8125 -28.875 19.515625 -30.671875 18.921875 -32.296875 C 18.335938 -33.921875 17.429688 -35.222656 16.203125 -36.203125 C 14.972656 -37.191406 13.394531 -37.6875 11.46875 -37.6875 L 9.3125 -37.6875 L 9.3125 -23.5 L 10.28125 -23.5 C 11.070312 -23.5 11.898438 -23.742188 12.765625 -24.234375 C 13.640625 -24.734375 14.378906 -25.507812 14.984375 -26.5625 C 15.585938 -27.625 15.890625 -28.988281 15.890625 -30.65625 L 16.578125 -30.65625 L 16.578125 -14.359375 L 15.890625 -14.359375 C 15.890625 -16.066406 15.585938 -17.4375 14.984375 -18.46875 C 14.378906 -19.507812 13.640625 -20.273438 12.765625 -20.765625 C 11.898438 -21.265625 11.070312 -21.515625 10.28125 -21.515625 L 9.3125 -21.515625 L 9.3125 -2.046875 C 11.957031 -1.972656 13.96875 -2.296875 15.34375 -3.015625 C 16.726562 -3.734375 17.734375 -4.90625 18.359375 -6.53125 C 18.984375 -8.15625 19.46875 -10.253906 19.8125 -12.828125 L 20.5 -12.828125 L 20.5 0 L 1.359375 0 C 1.890625 -0.90625 2.226562 -1.8125 2.375 -2.71875 C 2.53125 -3.632812 2.609375 -5.035156 2.609375 -6.921875 Z M 2.609375 -32.8125 "/></g></g></g><g fill="#e6dbc6" fill-opacity="1"><g transform="translate(58.434484, 56.175987)"><g><path d="M 1.3125 0 C 1.757812 -0.90625 2.050781 -1.820312 2.1875 -2.75 C 2.320312 -3.675781 2.390625 -5.085938 2.390625 -6.984375 L 2.390625 -32.8125 C 2.390625 -34.707031 2.320312 -36.109375 2.1875 -37.015625 C 2.050781 -37.921875 1.757812 -38.828125 1.3125 -39.734375 L 10.390625 -39.734375 C 10.203125 -39.316406 10.078125 -38.957031 10.015625 -38.65625 C 9.960938 -38.351562 9.9375 -37.878906 9.9375 -37.234375 C 9.9375 -35.910156 10.171875 -34.066406 10.640625 -31.703125 C 11.117188 -29.335938 11.695312 -26.734375 12.375 -23.890625 C 13.050781 -21.054688 13.734375 -18.222656 14.421875 -15.390625 C 14.910156 -17.503906 15.445312 -19.640625 16.03125 -21.796875 C 16.625 -23.953125 17.175781 -26.015625 17.6875 -27.984375 C 18.195312 -29.953125 18.609375 -31.726562 18.921875 -33.3125 C 19.242188 -34.90625 19.40625 -36.210938 19.40625 -37.234375 C 19.40625 -37.878906 19.378906 -38.351562 19.328125 -38.65625 C 19.273438 -38.957031 19.148438 -39.316406 18.953125 -39.734375 L 27.8125 -39.734375 C 27.394531 -38.828125 27.117188 -37.921875 26.984375 -37.015625 C 26.859375 -36.109375 26.796875 -34.707031 26.796875 -32.8125 L 26.796875 -6.984375 C 26.796875 -5.085938 26.859375 -3.675781 26.984375 -2.75 C 27.117188 -1.820312 27.394531 -0.90625 27.8125 0 L 18.84375 0 C 19.300781 -0.90625 19.59375 -1.820312 19.71875 -2.75 C 19.851562 -3.675781 19.921875 -5.085938 19.921875 -6.984375 C 19.921875 -7.628906 19.921875 -8.566406 19.921875 -9.796875 C 19.921875 -11.023438 19.921875 -12.414062 19.921875 -13.96875 C 19.921875 -15.519531 19.929688 -17.078125 19.953125 -18.640625 C 19.972656 -20.210938 19.984375 -21.660156 19.984375 -22.984375 C 19.984375 -24.316406 19.984375 -25.390625 19.984375 -26.203125 C 19.984375 -27.015625 19.984375 -27.421875 19.984375 -27.421875 C 19.109375 -23.972656 18.289062 -20.734375 17.53125 -17.703125 C 16.78125 -14.679688 16.0625 -11.738281 15.375 -8.875 C 14.695312 -6.019531 14 -3.0625 13.28125 0 L 11.0625 0 C 10.34375 -3.0625 9.648438 -6.03125 8.984375 -8.90625 C 8.328125 -11.78125 7.648438 -14.722656 6.953125 -17.734375 C 6.253906 -20.742188 5.46875 -23.972656 4.59375 -27.421875 C 4.59375 -27.421875 4.59375 -27.015625 4.59375 -26.203125 C 4.59375 -25.390625 4.59375 -24.316406 4.59375 -22.984375 C 4.59375 -21.660156 4.601562 -20.210938 4.625 -18.640625 C 4.644531 -17.078125 4.65625 -15.519531 4.65625 -13.96875 C 4.65625 -12.414062 4.65625 -11.023438 4.65625 -9.796875 C 4.65625 -8.566406 4.65625 -7.628906 4.65625 -6.984375 C 4.65625 -5.085938 4.71875 -3.675781 4.84375 -2.75 C 4.976562 -1.820312 5.273438 -0.90625 5.734375 0 Z M 1.3125 0 "/></g></g></g><g fill="#e6dbc6" fill-opacity="1"><g transform="translate(83.697936, 56.175987)"><g><path d="M 2.609375 -32.8125 C 2.609375 -34.707031 2.53125 -36.109375 2.375 -37.015625 C 2.226562 -37.921875 1.890625 -38.828125 1.359375 -39.734375 L 20.5 -39.734375 L 20.5 -26.90625 L 19.8125 -26.90625 C 19.8125 -28.875 19.515625 -30.671875 18.921875 -32.296875 C 18.335938 -33.921875 17.429688 -35.222656 16.203125 -36.203125 C 14.972656 -37.191406 13.394531 -37.6875 11.46875 -37.6875 L 9.3125 -37.6875 L 9.3125 -23.5 L 10.28125 -23.5 C 11.070312 -23.5 11.898438 -23.742188 12.765625 -24.234375 C 13.640625 -24.734375 14.378906 -25.507812 14.984375 -26.5625 C 15.585938 -27.625 15.890625 -28.988281 15.890625 -30.65625 L 16.578125 -30.65625 L 16.578125 -14.359375 L 15.890625 -14.359375 C 15.890625 -16.066406 15.585938 -17.4375 14.984375 -18.46875 C 14.378906 -19.507812 13.640625 -20.273438 12.765625 -20.765625 C 11.898438 -21.265625 11.070312 -21.515625 10.28125 -21.515625 L 9.3125 -21.515625 L 9.3125 -2.046875 C 11.957031 -1.972656 13.96875 -2.296875 15.34375 -3.015625 C 16.726562 -3.734375 17.734375 -4.90625 18.359375 -6.53125 C 18.984375 -8.15625 19.46875 -10.253906 19.8125 -12.828125 L 20.5 -12.828125 L 20.5 0 L 1.359375 0 C 1.890625 -0.90625 2.226562 -1.8125 2.375 -2.71875 C 2.53125 -3.632812 2.609375 -5.035156 2.609375 -6.921875 Z M 2.609375 -32.8125 "/></g></g></g><g fill="#e6dbc6" fill-opacity="1"><g transform="translate(102.205539, 56.175987)"><g><path d="M 1.3125 0 C 1.832031 -0.90625 2.175781 -1.820312 2.34375 -2.75 C 2.519531 -3.675781 2.609375 -5.085938 2.609375 -6.984375 L 2.609375 -32.8125 C 2.609375 -34.09375 2.570312 -35.128906 2.5 -35.921875 C 2.425781 -36.722656 2.300781 -37.40625 2.125 -37.96875 C 1.957031 -38.539062 1.6875 -39.128906 1.3125 -39.734375 L 9.65625 -39.734375 L 19.1875 -10.390625 C 19.1875 -10.390625 19.1875 -10.859375 19.1875 -11.796875 C 19.1875 -12.742188 19.1875 -13.992188 19.1875 -15.546875 C 19.1875 -17.097656 19.175781 -18.78125 19.15625 -20.59375 C 19.132812 -22.414062 19.125 -24.207031 19.125 -25.96875 C 19.125 -27.726562 19.125 -29.289062 19.125 -30.65625 C 19.125 -32.019531 19.125 -33.019531 19.125 -33.65625 C 19.125 -34.945312 19.09375 -35.910156 19.03125 -36.546875 C 18.976562 -37.191406 18.859375 -37.734375 18.671875 -38.171875 C 18.484375 -38.609375 18.21875 -39.128906 17.875 -39.734375 L 22.8125 -39.734375 C 22.320312 -38.828125 21.984375 -37.910156 21.796875 -36.984375 C 21.609375 -36.054688 21.515625 -34.644531 21.515625 -32.75 C 21.515625 -32.21875 21.515625 -31.222656 21.515625 -29.765625 C 21.515625 -28.316406 21.503906 -26.597656 21.484375 -24.609375 C 21.460938 -22.617188 21.453125 -20.503906 21.453125 -18.265625 C 21.453125 -16.035156 21.453125 -13.84375 21.453125 -11.6875 C 21.453125 -9.53125 21.441406 -7.570312 21.421875 -5.8125 C 21.410156 -4.050781 21.40625 -2.640625 21.40625 -1.578125 C 21.40625 -0.523438 21.40625 0 21.40625 0 L 15.265625 0 L 4.875 -31.953125 C 4.875 -31.953125 4.875 -31.429688 4.875 -30.390625 C 4.875 -29.359375 4.882812 -28.007812 4.90625 -26.34375 C 4.925781 -24.675781 4.9375 -22.859375 4.9375 -20.890625 C 4.9375 -18.921875 4.945312 -17 4.96875 -15.125 C 4.988281 -13.25 5 -11.582031 5 -10.125 C 5 -8.675781 5 -7.628906 5 -6.984375 C 5 -5.085938 5.082031 -3.675781 5.25 -2.75 C 5.414062 -1.820312 5.75 -0.90625 6.25 0 Z M 1.3125 0 "/></g></g></g><g fill="#e6dbc6" fill-opacity="1"><g transform="translate(122.473075, 56.175987)"><g><path d="M 0.90625 -26.90625 L 0.90625 -39.734375 L 21.234375 -39.734375 L 21.234375 -26.90625 L 20.546875 -26.90625 C 20.546875 -28.875 20.351562 -30.691406 19.96875 -32.359375 C 19.59375 -34.023438 19.007812 -35.375 18.21875 -36.40625 C 17.425781 -37.445312 16.425781 -37.96875 15.21875 -37.96875 L 14.421875 -38.03125 L 14.421875 -6.984375 C 14.421875 -5.085938 14.492188 -3.675781 14.640625 -2.75 C 14.796875 -1.820312 15.140625 -0.90625 15.671875 0 L 6.46875 0 C 7 -0.90625 7.335938 -1.820312 7.484375 -2.75 C 7.640625 -3.675781 7.71875 -5.085938 7.71875 -6.984375 L 7.71875 -38.03125 L 6.875 -37.96875 C 5.65625 -37.96875 4.648438 -37.445312 3.859375 -36.40625 C 3.066406 -35.375 2.476562 -34.023438 2.09375 -32.359375 C 1.71875 -30.691406 1.53125 -28.875 1.53125 -26.90625 Z M 0.90625 -26.90625 "/></g></g></g><g fill="#e6dbc6" fill-opacity="1"><g transform="translate(140.753595, 56.175987)"><g><path d="M 13.28125 0.390625 C 10.9375 0.390625 8.921875 -0.445312 7.234375 -2.125 C 5.554688 -3.8125 4.269531 -6.164062 3.375 -9.1875 C 2.488281 -12.21875 2.046875 -15.757812 2.046875 -19.8125 C 2.046875 -23.863281 2.488281 -27.410156 3.375 -30.453125 C 4.269531 -33.503906 5.554688 -35.867188 7.234375 -37.546875 C 8.921875 -39.234375 10.9375 -40.078125 13.28125 -40.078125 C 15.664062 -40.078125 17.691406 -39.234375 19.359375 -37.546875 C 21.023438 -35.867188 22.300781 -33.503906 23.1875 -30.453125 C 24.070312 -27.410156 24.515625 -23.863281 24.515625 -19.8125 C 24.515625 -15.757812 24.070312 -12.21875 23.1875 -9.1875 C 22.300781 -6.164062 21.023438 -3.8125 19.359375 -2.125 C 17.691406 -0.445312 15.664062 0.390625 13.28125 0.390625 Z M 8.96875 -19.8125 C 8.96875 -14.09375 9.257812 -9.65625 9.84375 -6.5 C 10.4375 -3.34375 11.601562 -1.765625 13.34375 -1.765625 C 15.125 -1.765625 16.285156 -3.34375 16.828125 -6.5 C 17.378906 -9.65625 17.65625 -14.09375 17.65625 -19.8125 C 17.65625 -25.5625 17.378906 -30.015625 16.828125 -33.171875 C 16.285156 -36.335938 15.125 -37.921875 13.34375 -37.921875 C 11.601562 -37.921875 10.4375 -36.335938 9.84375 -33.171875 C 9.257812 -30.015625 8.96875 -25.5625 8.96875 -19.8125 Z M 8.96875 -19.8125 "/></g></g></g><g fill="#e6dbc6" fill-opacity="0.3216"><g transform="translate(15.817569, 108.257631)"><g/></g></g><g fill="#e6dbc6" fill-opacity="1"><g transform="translate(14.663429, 107.103492)"><g/></g></g><g fill="#e6dbc6" fill-opacity="0.3216"><g transform="translate(23.31399, 108.257631)"><g><path d="M 1.3125 0 C 1.757812 -0.90625 2.050781 -1.820312 2.1875 -2.75 C 2.320312 -3.675781 2.390625 -5.085938 2.390625 -6.984375 L 2.390625 -32.8125 C 2.390625 -34.707031 2.320312 -36.109375 2.1875 -37.015625 C 2.050781 -37.921875 1.757812 -38.828125 1.3125 -39.734375 L 10.390625 -39.734375 C 10.203125 -39.316406 10.078125 -38.957031 10.015625 -38.65625 C 9.960938 -38.351562 9.9375 -37.878906 9.9375 -37.234375 C 9.9375 -35.910156 10.171875 -34.066406 10.640625 -31.703125 C 11.117188 -29.335938 11.695312 -26.734375 12.375 -23.890625 C 13.050781 -21.054688 13.734375 -18.222656 14.421875 -15.390625 C 14.910156 -17.503906 15.445312 -19.640625 16.03125 -21.796875 C 16.625 -23.953125 17.175781 -26.015625 17.6875 -27.984375 C 18.195312 -29.953125 18.609375 -31.726562 18.921875 -33.3125 C 19.242188 -34.90625 19.40625 -36.210938 19.40625 -37.234375 C 19.40625 -37.878906 19.378906 -38.351562 19.328125 -38.65625 C 19.273438 -38.957031 19.148438 -39.316406 18.953125 -39.734375 L 27.8125 -39.734375 C 27.394531 -38.828125 27.117188 -37.921875 26.984375 -37.015625 C 26.859375 -36.109375 26.796875 -34.707031 26.796875 -32.8125 L 26.796875 -6.984375 C 26.796875 -5.085938 26.859375 -3.675781 26.984375 -2.75 C 27.117188 -1.820312 27.394531 -0.90625 27.8125 0 L 18.84375 0 C 19.300781 -0.90625 19.59375 -1.820312 19.71875 -2.75 C 19.851562 -3.675781 19.921875 -5.085938 19.921875 -6.984375 C 19.921875 -7.628906 19.921875 -8.566406 19.921875 -9.796875 C 19.921875 -11.023438 19.921875 -12.414062 19.921875 -13.96875 C 19.921875 -15.519531 19.929688 -17.078125 19.953125 -18.640625 C 19.972656 -20.210938 19.984375 -21.660156 19.984375 -22.984375 C 19.984375 -24.316406 19.984375 -25.390625 19.984375 -26.203125 C 19.984375 -27.015625 19.984375 -27.421875 19.984375 -27.421875 C 19.109375 -23.972656 18.289062 -20.734375 17.53125 -17.703125 C 16.78125 -14.679688 16.0625 -11.738281 15.375 -8.875 C 14.695312 -6.019531 14 -3.0625 13.28125 0 L 11.0625 0 C 10.34375 -3.0625 9.648438 -6.03125 8.984375 -8.90625 C 8.328125 -11.78125 7.648438 -14.722656 6.953125 -17.734375 C 6.253906 -20.742188 5.46875 -23.972656 4.59375 -27.421875 C 4.59375 -27.421875 4.59375 -27.015625 4.59375 -26.203125 C 4.59375 -25.390625 4.59375 -24.316406 4.59375 -22.984375 C 4.59375 -21.660156 4.601562 -20.210938 4.625 -18.640625 C 4.644531 -17.078125 4.65625 -15.519531 4.65625 -13.96875 C 4.65625 -12.414062 4.65625 -11.023438 4.65625 -9.796875 C 4.65625 -8.566406 4.65625 -7.628906 4.65625 -6.984375 C 4.65625 -5.085938 4.71875 -3.675781 4.84375 -2.75 C 4.976562 -1.820312 5.273438 -0.90625 5.734375 0 Z M 1.3125 0 "/></g></g></g><g fill="#e6dbc6" fill-opacity="0.3216"><g transform="translate(48.577442, 108.257631)"><g><path d="M 13.28125 0.390625 C 10.9375 0.390625 8.921875 -0.445312 7.234375 -2.125 C 5.554688 -3.8125 4.269531 -6.164062 3.375 -9.1875 C 2.488281 -12.21875 2.046875 -15.757812 2.046875 -19.8125 C 2.046875 -23.863281 2.488281 -27.410156 3.375 -30.453125 C 4.269531 -33.503906 5.554688 -35.867188 7.234375 -37.546875 C 8.921875 -39.234375 10.9375 -40.078125 13.28125 -40.078125 C 15.664062 -40.078125 17.691406 -39.234375 19.359375 -37.546875 C 21.023438 -35.867188 22.300781 -33.503906 23.1875 -30.453125 C 24.070312 -27.410156 24.515625 -23.863281 24.515625 -19.8125 C 24.515625 -15.757812 24.070312 -12.21875 23.1875 -9.1875 C 22.300781 -6.164062 21.023438 -3.8125 19.359375 -2.125 C 17.691406 -0.445312 15.664062 0.390625 13.28125 0.390625 Z M 8.96875 -19.8125 C 8.96875 -14.09375 9.257812 -9.65625 9.84375 -6.5 C 10.4375 -3.34375 11.601562 -1.765625 13.34375 -1.765625 C 15.125 -1.765625 16.285156 -3.34375 16.828125 -6.5 C 17.378906 -9.65625 17.65625 -14.09375 17.65625 -19.8125 C 17.65625 -25.5625 17.378906 -30.015625 16.828125 -33.171875 C 16.285156 -36.335938 15.125 -37.921875 13.34375 -37.921875 C 11.601562 -37.921875 10.4375 -36.335938 9.84375 -33.171875 C 9.257812 -30.015625 8.96875 -25.5625 8.96875 -19.8125 Z M 8.96875 -19.8125 "/></g></g></g><g fill="#e6dbc6" fill-opacity="0.3216"><g transform="translate(71.286165, 108.257631)"><g><path d="M 1.359375 0 C 1.890625 -0.90625 2.226562 -1.820312 2.375 -2.75 C 2.53125 -3.675781 2.609375 -5.085938 2.609375 -6.984375 L 2.609375 -32.46875 C 2.609375 -34.363281 2.53125 -35.832031 2.375 -36.875 C 2.226562 -37.914062 1.890625 -38.890625 1.359375 -39.796875 C 2.347656 -39.796875 3.503906 -39.796875 4.828125 -39.796875 C 6.148438 -39.796875 7.484375 -39.796875 8.828125 -39.796875 C 10.171875 -39.796875 11.351562 -39.796875 12.375 -39.796875 C 14.039062 -39.796875 15.59375 -39.59375 17.03125 -39.1875 C 18.46875 -38.789062 19.628906 -38.046875 20.515625 -36.953125 C 21.410156 -35.859375 21.859375 -34.234375 21.859375 -32.078125 C 21.859375 -30.140625 21.375 -28.367188 20.40625 -26.765625 C 19.4375 -25.160156 18.347656 -23.734375 17.140625 -22.484375 C 17.710938 -20.210938 18.242188 -18.140625 18.734375 -16.265625 C 19.222656 -14.390625 19.65625 -12.695312 20.03125 -11.1875 C 20.863281 -8.082031 21.582031 -5.6875 22.1875 -4 C 22.800781 -2.3125 23.484375 -0.976562 24.234375 0 L 14.640625 0 C 14.867188 -0.414062 15 -1.113281 15.03125 -2.09375 C 15.070312 -3.082031 14.984375 -4.164062 14.765625 -5.34375 C 14.679688 -5.75 14.5625 -6.273438 14.40625 -6.921875 C 14.257812 -7.566406 14.09375 -8.285156 13.90625 -9.078125 C 13.644531 -10.253906 13.304688 -11.519531 12.890625 -12.875 C 12.472656 -14.238281 12.015625 -15.8125 11.515625 -17.59375 C 10.878906 -16.988281 10.351562 -16.328125 9.9375 -15.609375 C 9.519531 -14.890625 9.3125 -14.09375 9.3125 -13.21875 L 9.3125 -6.984375 C 9.3125 -5.085938 9.382812 -3.675781 9.53125 -2.75 C 9.6875 -1.820312 10.03125 -0.90625 10.5625 0 Z M 11.359375 -37.359375 L 9.3125 -37.359375 L 9.3125 -17.828125 C 10.0625 -18.617188 10.890625 -19.6875 11.796875 -21.03125 C 12.710938 -22.375 13.507812 -23.984375 14.1875 -25.859375 C 14.875 -27.734375 15.21875 -29.863281 15.21875 -32.25 C 15.21875 -33.601562 14.882812 -34.789062 14.21875 -35.8125 C 13.550781 -36.84375 12.597656 -37.359375 11.359375 -37.359375 Z M 11.359375 -37.359375 "/></g></g></g><g fill="#e6dbc6" fill-opacity="0.3216"><g transform="translate(92.234967, 108.257631)"><g><path d="M 1.3125 0 C 1.832031 -0.90625 2.164062 -1.820312 2.3125 -2.75 C 2.46875 -3.675781 2.546875 -5.085938 2.546875 -6.984375 L 2.546875 -32.8125 C 2.546875 -34.707031 2.46875 -36.109375 2.3125 -37.015625 C 2.164062 -37.921875 1.832031 -38.828125 1.3125 -39.734375 L 10.5 -39.734375 C 10.15625 -39.128906 9.890625 -38.539062 9.703125 -37.96875 C 9.515625 -37.40625 9.390625 -36.722656 9.328125 -35.921875 C 9.273438 -35.128906 9.25 -34.09375 9.25 -32.8125 L 9.25 -6.984375 C 9.25 -5.085938 9.320312 -3.675781 9.46875 -2.75 C 9.625 -1.820312 9.96875 -0.90625 10.5 0 Z M 1.3125 0 "/></g></g></g><g fill="#e6dbc6" fill-opacity="1"><g transform="translate(22.15985, 107.103492)"><g><path d="M 1.3125 0 C 1.757812 -0.90625 2.050781 -1.820312 2.1875 -2.75 C 2.320312 -3.675781 2.390625 -5.085938 2.390625 -6.984375 L 2.390625 -32.8125 C 2.390625 -34.707031 2.320312 -36.109375 2.1875 -37.015625 C 2.050781 -37.921875 1.757812 -38.828125 1.3125 -39.734375 L 10.390625 -39.734375 C 10.203125 -39.316406 10.078125 -38.957031 10.015625 -38.65625 C 9.960938 -38.351562 9.9375 -37.878906 9.9375 -37.234375 C 9.9375 -35.910156 10.171875 -34.066406 10.640625 -31.703125 C 11.117188 -29.335938 11.695312 -26.734375 12.375 -23.890625 C 13.050781 -21.054688 13.734375 -18.222656 14.421875 -15.390625 C 14.910156 -17.503906 15.445312 -19.640625 16.03125 -21.796875 C 16.625 -23.953125 17.175781 -26.015625 17.6875 -27.984375 C 18.195312 -29.953125 18.609375 -31.726562 18.921875 -33.3125 C 19.242188 -34.90625 19.40625 -36.210938 19.40625 -37.234375 C 19.40625 -37.878906 19.378906 -38.351562 19.328125 -38.65625 C 19.273438 -38.957031 19.148438 -39.316406 18.953125 -39.734375 L 27.8125 -39.734375 C 27.394531 -38.828125 27.117188 -37.921875 26.984375 -37.015625 C 26.859375 -36.109375 26.796875 -34.707031 26.796875 -32.8125 L 26.796875 -6.984375 C 26.796875 -5.085938 26.859375 -3.675781 26.984375 -2.75 C 27.117188 -1.820312 27.394531 -0.90625 27.8125 0 L 18.84375 0 C 19.300781 -0.90625 19.59375 -1.820312 19.71875 -2.75 C 19.851562 -3.675781 19.921875 -5.085938 19.921875 -6.984375 C 19.921875 -7.628906 19.921875 -8.566406 19.921875 -9.796875 C 19.921875 -11.023438 19.921875 -12.414062 19.921875 -13.96875 C 19.921875 -15.519531 19.929688 -17.078125 19.953125 -18.640625 C 19.972656 -20.210938 19.984375 -21.660156 19.984375 -22.984375 C 19.984375 -24.316406 19.984375 -25.390625 19.984375 -26.203125 C 19.984375 -27.015625 19.984375 -27.421875 19.984375 -27.421875 C 19.109375 -23.972656 18.289062 -20.734375 17.53125 -17.703125 C 16.78125 -14.679688 16.0625 -11.738281 15.375 -8.875 C 14.695312 -6.019531 14 -3.0625 13.28125 0 L 11.0625 0 C 10.34375 -3.0625 9.648438 -6.03125 8.984375 -8.90625 C 8.328125 -11.78125 7.648438 -14.722656 6.953125 -17.734375 C 6.253906 -20.742188 5.46875 -23.972656 4.59375 -27.421875 C 4.59375 -27.421875 4.59375 -27.015625 4.59375 -26.203125 C 4.59375 -25.390625 4.59375 -24.316406 4.59375 -22.984375 C 4.59375 -21.660156 4.601562 -20.210938 4.625 -18.640625 C 4.644531 -17.078125 4.65625 -15.519531 4.65625 -13.96875 C 4.65625 -12.414062 4.65625 -11.023438 4.65625 -9.796875 C 4.65625 -8.566406 4.65625 -7.628906 4.65625 -6.984375 C 4.65625 -5.085938 4.71875 -3.675781 4.84375 -2.75 C 4.976562 -1.820312 5.273438 -0.90625 5.734375 0 Z M 1.3125 0 "/></g></g></g><g fill="#e6dbc6" fill-opacity="1"><g transform="translate(47.423302, 107.103492)"><g><path d="M 13.28125 0.390625 C 10.9375 0.390625 8.921875 -0.445312 7.234375 -2.125 C 5.554688 -3.8125 4.269531 -6.164062 3.375 -9.1875 C 2.488281 -12.21875 2.046875 -15.757812 2.046875 -19.8125 C 2.046875 -23.863281 2.488281 -27.410156 3.375 -30.453125 C 4.269531 -33.503906 5.554688 -35.867188 7.234375 -37.546875 C 8.921875 -39.234375 10.9375 -40.078125 13.28125 -40.078125 C 15.664062 -40.078125 17.691406 -39.234375 19.359375 -37.546875 C 21.023438 -35.867188 22.300781 -33.503906 23.1875 -30.453125 C 24.070312 -27.410156 24.515625 -23.863281 24.515625 -19.8125 C 24.515625 -15.757812 24.070312 -12.21875 23.1875 -9.1875 C 22.300781 -6.164062 21.023438 -3.8125 19.359375 -2.125 C 17.691406 -0.445312 15.664062 0.390625 13.28125 0.390625 Z M 8.96875 -19.8125 C 8.96875 -14.09375 9.257812 -9.65625 9.84375 -6.5 C 10.4375 -3.34375 11.601562 -1.765625 13.34375 -1.765625 C 15.125 -1.765625 16.285156 -3.34375 16.828125 -6.5 C 17.378906 -9.65625 17.65625 -14.09375 17.65625 -19.8125 C 17.65625 -25.5625 17.378906 -30.015625 16.828125 -33.171875 C 16.285156 -36.335938 15.125 -37.921875 13.34375 -37.921875 C 11.601562 -37.921875 10.4375 -36.335938 9.84375 -33.171875 C 9.257812 -30.015625 8.96875 -25.5625 8.96875 -19.8125 Z M 8.96875 -19.8125 "/></g></g></g><g fill="#e6dbc6" fill-opacity="1"><g transform="translate(70.132025, 107.103492)"><g><path d="M 1.359375 0 C 1.890625 -0.90625 2.226562 -1.820312 2.375 -2.75 C 2.53125 -3.675781 2.609375 -5.085938 2.609375 -6.984375 L 2.609375 -32.46875 C 2.609375 -34.363281 2.53125 -35.832031 2.375 -36.875 C 2.226562 -37.914062 1.890625 -38.890625 1.359375 -39.796875 C 2.347656 -39.796875 3.503906 -39.796875 4.828125 -39.796875 C 6.148438 -39.796875 7.484375 -39.796875 8.828125 -39.796875 C 10.171875 -39.796875 11.351562 -39.796875 12.375 -39.796875 C 14.039062 -39.796875 15.59375 -39.59375 17.03125 -39.1875 C 18.46875 -38.789062 19.628906 -38.046875 20.515625 -36.953125 C 21.410156 -35.859375 21.859375 -34.234375 21.859375 -32.078125 C 21.859375 -30.140625 21.375 -28.367188 20.40625 -26.765625 C 19.4375 -25.160156 18.347656 -23.734375 17.140625 -22.484375 C 17.710938 -20.210938 18.242188 -18.140625 18.734375 -16.265625 C 19.222656 -14.390625 19.65625 -12.695312 20.03125 -11.1875 C 20.863281 -8.082031 21.582031 -5.6875 22.1875 -4 C 22.800781 -2.3125 23.484375 -0.976562 24.234375 0 L 14.640625 0 C 14.867188 -0.414062 15 -1.113281 15.03125 -2.09375 C 15.070312 -3.082031 14.984375 -4.164062 14.765625 -5.34375 C 14.679688 -5.75 14.5625 -6.273438 14.40625 -6.921875 C 14.257812 -7.566406 14.09375 -8.285156 13.90625 -9.078125 C 13.644531 -10.253906 13.304688 -11.519531 12.890625 -12.875 C 12.472656 -14.238281 12.015625 -15.8125 11.515625 -17.59375 C 10.878906 -16.988281 10.351562 -16.328125 9.9375 -15.609375 C 9.519531 -14.890625 9.3125 -14.09375 9.3125 -13.21875 L 9.3125 -6.984375 C 9.3125 -5.085938 9.382812 -3.675781 9.53125 -2.75 C 9.6875 -1.820312 10.03125 -0.90625 10.5625 0 Z M 11.359375 -37.359375 L 9.3125 -37.359375 L 9.3125 -17.828125 C 10.0625 -18.617188 10.890625 -19.6875 11.796875 -21.03125 C 12.710938 -22.375 13.507812 -23.984375 14.1875 -25.859375 C 14.875 -27.734375 15.21875 -29.863281 15.21875 -32.25 C 15.21875 -33.601562 14.882812 -34.789062 14.21875 -35.8125 C 13.550781 -36.84375 12.597656 -37.359375 11.359375 -37.359375 Z M 11.359375 -37.359375 "/></g></g></g><g fill="#e6dbc6" fill-opacity="1"><g transform="translate(91.080827, 107.103492)"><g><path d="M 1.3125 0 C 1.832031 -0.90625 2.164062 -1.820312 2.3125 -2.75 C 2.46875 -3.675781 2.546875 -5.085938 2.546875 -6.984375 L 2.546875 -32.8125 C 2.546875 -34.707031 2.46875 -36.109375 2.3125 -37.015625 C 2.164062 -37.921875 1.832031 -38.828125 1.3125 -39.734375 L 10.5 -39.734375 C 10.15625 -39.128906 9.890625 -38.539062 9.703125 -37.96875 C 9.515625 -37.40625 9.390625 -36.722656 9.328125 -35.921875 C 9.273438 -35.128906 9.25 -34.09375 9.25 -32.8125 L 9.25 -6.984375 C 9.25 -5.085938 9.320312 -3.675781 9.46875 -2.75 C 9.625 -1.820312 9.96875 -0.90625 10.5 0 Z M 1.3125 0 "/></g></g></g><g clip-path="url(#5f57c26828)"><path fill="#e6dbc6" d="M 132.558594 126.320312 C 132.609375 127.523438 132.292969 128.167969 131.046875 127.578125 C 130.078125 126.984375 130.078125 125.558594 130.042969 124.53125 C 130.265625 121.53125 131.214844 118.363281 130.105469 115.4375 C 129.867188 114.921875 128.992188 113.132812 128.511719 114.296875 C 128.496094 114.445312 128.214844 115.902344 128.484375 116.4375 C 129.675781 120.652344 129.265625 121.382812 128.066406 125.523438 C 127.949219 126.835938 128.777344 127.890625 128.921875 129.144531 C 128.980469 129.644531 129.066406 130.15625 129.113281 130.664062 C 129.171875 131.308594 129.046875 131.960938 128.738281 132.53125 C 128.640625 132.710938 128.523438 132.855469 128.265625 132.859375 C 127.605469 132.960938 127.15625 132.679688 126.917969 132.054688 C 126.433594 134.09375 127.050781 136.316406 126.0625 138.230469 C 122.816406 140.339844 124.769531 132.953125 123.460938 130.761719 C 123.226562 130.371094 123.082031 129.929688 123.035156 129.476562 C 122.714844 126.222656 123.65625 122.710938 122.710938 119.582031 C 119.097656 117.558594 122.503906 115.324219 121.109375 112.378906 C 118.667969 114.121094 121.371094 121.605469 118.519531 121.65625 C 116.492188 120.96875 116.796875 118.339844 116.863281 116.613281 C 113.09375 115.914062 108.402344 118.316406 105.164062 120.230469 C 104.007812 120.773438 102.726562 122.574219 101.394531 122.394531 C 96.285156 121.246094 92.894531 115.855469 93.25 110.757812 C 93.375 109.367188 93.125 107.175781 94.507812 106.402344 C 105.019531 98.199219 109.890625 91.566406 124.269531 91.964844 C 124.707031 91.867188 124.816406 91.871094 124.910156 91.390625 C 125.121094 90.726562 125.601562 90.183594 125.835938 89.542969 C 124.285156 88.753906 125.511719 86.988281 126.3125 86.085938 C 127.09375 85.167969 126.921875 83.808594 127.640625 82.863281 C 128.597656 81.625 131.421875 82.460938 130.753906 81.546875 C 127.875 76.28125 131.890625 70.605469 132.410156 65.222656 C 132.609375 63.335938 132.546875 61.445312 132.6875 59.554688 C 132.6875 59.449219 132.5625 59.0625 132.890625 58.894531 C 132.933594 59 133.21875 60.488281 133.402344 61.628906 C 133.511719 62.316406 133.6875 62.992188 133.925781 63.644531 C 136.109375 69.539062 137.253906 76.628906 133.4375 82.078125 C 134.601562 81.992188 135.53125 81.15625 136.691406 81.230469 C 138.242188 81.914062 137.589844 84.554688 137.160156 85.839844 C 136.816406 87.132812 137.910156 88.402344 137.03125 89.621094 C 138.8125 89.8125 140.683594 89.253906 142.511719 89.335938 C 144.273438 89.324219 146.53125 88.058594 147.964844 89.535156 C 149.882812 93.195312 138.613281 99.246094 135.421875 98.671875 C 134.824219 101.53125 141.742188 97.015625 143.605469 98.449219 C 144.265625 97.363281 145.671875 97.0625 146.503906 96.117188 C 147.667969 94.824219 149.023438 93.242188 148.90625 91.394531 C 148.535156 87.902344 147.683594 83.195312 151.09375 80.933594 C 151.148438 80.210938 150.910156 79.378906 151.34375 78.730469 C 153.796875 77.355469 154.9375 91.128906 155.011719 92.945312 C 155.722656 90.214844 156.410156 87.4375 159.664062 86.925781 C 161.273438 84.777344 164.1875 83.796875 166.796875 84.460938 C 172.230469 79.734375 161.628906 96.0625 160.132812 96.203125 C 156.125 102.5 155.378906 107.351562 148.503906 111.476562 C 149.121094 115.550781 145.511719 115.386719 145.640625 112.6875 C 144.046875 113.515625 142.292969 113.964844 140.890625 115.019531 C 140.917969 116.054688 141.363281 118.695312 140.421875 119.183594 C 140.195312 119.472656 140.433594 121.371094 139.957031 121.722656 C 136.152344 123.308594 139.519531 115.359375 138.074219 114.101562 C 137.511719 114.558594 137.578125 115.222656 137.394531 115.839844 C 137.277344 116.03125 137.363281 119.953125 137.394531 120.035156 C 137.375 123.992188 137.757812 125.914062 136.636719 127.546875 C 136.148438 128.945312 136.359375 130.734375 136.316406 132.15625 C 136.640625 138.851562 135.777344 139.78125 135.253906 139.9375 C 132.121094 141.050781 133.394531 133.660156 133.5 132.035156 C 133.511719 130.085938 133.484375 128.097656 132.558594 126.320312 Z M 134.066406 133.941406 C 133.679688 134.988281 134.027344 138.726562 134.527344 139.328125 C 136.796875 138.929688 134.96875 130.78125 135.621094 128.671875 C 135.523438 126.738281 137 126.542969 136.703125 124.828125 C 136.601562 123.101562 136.695312 121.375 136.691406 119.652344 C 136.832031 118.066406 135.882812 113.230469 138.421875 113.488281 C 139.378906 113.796875 139.175781 115.21875 139.074219 115.949219 C 139.054688 116.710938 138.675781 121.199219 139.144531 121.230469 C 139.933594 121.203125 139.015625 119.320312 140.195312 118.238281 C 140.28125 116.261719 139.949219 114.234375 140.371094 112.292969 C 141.3125 109.238281 146.898438 105.4375 146.5625 111.207031 C 146.589844 112.101562 145.859375 113.921875 147.332031 113.902344 C 147.753906 113.265625 147.65625 112.515625 147.828125 111.847656 C 146.664062 108.585938 148.25 109.269531 148.035156 107.5 C 148.015625 107.316406 147.90625 107.160156 147.75 107.0625 C 147.644531 106.996094 147.542969 106.914062 147.417969 106.867188 C 147.292969 106.824219 147.171875 106.777344 147.058594 106.707031 C 146.035156 106.070312 145.925781 105.132812 145.726562 104.402344 C 145.570312 104.542969 141.921875 106.828125 141.296875 106.859375 C 140.183594 106.328125 142.730469 105.28125 143.1875 105.078125 C 144.257812 104.832031 144.882812 103.847656 145.613281 103.117188 C 146.730469 101.933594 148.152344 100.640625 148.054688 98.886719 C 147.101562 99.550781 146.070312 99.566406 144.964844 99.503906 C 143.765625 99.664062 142.777344 98.667969 141.554688 99.046875 C 139.175781 99.414062 137.996094 100.613281 135.402344 100.234375 C 135.3125 100.558594 135.4375 101.074219 135.105469 101.246094 C 134.714844 101.265625 134.640625 101.199219 134.632812 100.820312 C 134.628906 99.6875 134.550781 98.550781 134.785156 97.433594 C 134.929688 96.515625 135.808594 97.070312 135.699219 95.742188 C 135.855469 94.960938 134.957031 91.304688 135.734375 89.820312 C 136.050781 89.398438 136.539062 89.054688 136.511719 88.457031 C 136.507812 88.414062 135.960938 86.234375 136.492188 85.335938 C 136.679688 84.628906 137.429688 83.03125 136.625 82.199219 C 136.503906 82.070312 136.308594 82.039062 136.148438 82.109375 C 131.558594 84.09375 131.394531 82 128.339844 83.023438 C 127.445312 83.792969 127.710938 85.84375 126.648438 86.757812 C 126.3125 87.175781 125.558594 88.269531 125.851562 88.746094 C 126.542969 89.453125 126.695312 87.140625 127.460938 87.648438 C 127.554688 88.292969 124.433594 92.945312 125.933594 92.398438 C 126.414062 91.5625 126.542969 90.425781 127.71875 90.367188 C 128.382812 89.601562 128.046875 88.5 128.371094 87.597656 C 128.679688 87.117188 128.570312 86.226562 129.304688 86.183594 C 129.390625 87.125 128.824219 88.03125 128.824219 88.976562 C 128.671875 90.550781 128.601562 90.6875 127.25 91.265625 C 126.800781 91.941406 126.730469 93.296875 125.695312 93.332031 C 125.171875 94.625 123.699219 97.59375 126.390625 96.023438 C 126.71875 96.488281 126.027344 97.191406 125.519531 97.097656 C 125.375 98.007812 125.640625 100.566406 124.773438 100.953125 C 124.339844 101.222656 123.53125 101.808594 123.125 101.242188 C 123.175781 101.21875 124.636719 100.734375 124.578125 99.710938 C 121.984375 100.734375 118.53125 98.753906 116.496094 100.964844 C 116.257812 101.226562 115.976562 101.449219 115.65625 101.601562 C 115.324219 101.761719 114.980469 101.894531 114.710938 101.613281 C 115.679688 100.53125 113.945312 100.789062 113.742188 100.914062 C 113.351562 100.953125 112.996094 101.332031 113.226562 101.78125 C 113.523438 101.792969 114.902344 103.050781 114.472656 103.726562 C 114.722656 105.042969 116.671875 104.371094 117.367188 105.296875 C 120.09375 109.21875 115.675781 117.761719 118.558594 120.855469 C 120.046875 119.941406 117.984375 112.101562 121.15625 111.539062 C 123.011719 112.425781 122 115.464844 121.710938 117.199219 C 121.636719 118.175781 122.875 118.441406 123.382812 119.085938 C 124.195312 121.492188 123.859375 124.214844 123.835938 126.738281 C 123.386719 130.40625 124.226562 129.507812 124.730469 132.332031 C 124.996094 132.894531 124.464844 139.226562 125.59375 137.359375 C 126.277344 136.0625 125.195312 130.472656 127.351562 131.078125 C 128.738281 134.234375 128.265625 129.375 128.007812 128.484375 C 127.890625 127.75 127.300781 127.152344 127.363281 126.375 C 127.007812 124.09375 128.6875 122.835938 128.527344 120.816406 C 128.511719 120.652344 128.507812 120.492188 128.515625 120.328125 C 128.613281 118.527344 127.496094 116.996094 127.640625 115.175781 C 127.585938 113.265625 128.96875 112.324219 130.261719 114.058594 C 130.957031 115.351562 131.421875 116.792969 131.402344 118.25 C 131.359375 119.722656 130.257812 125.222656 131.171875 126.589844 C 132.410156 128.445312 131.042969 123.894531 131.347656 123.410156 C 131.335938 122.335938 132.96875 122.054688 133.089844 123.226562 C 133.347656 124.074219 132.96875 124.984375 133.277344 125.824219 C 134.339844 128.394531 134.503906 131.300781 134.066406 133.941406 Z M 95.746094 117.425781 C 104.160156 127.429688 102.984375 115.550781 116.96875 115.507812 C 116.714844 112.359375 118.589844 109.011719 117.011719 106.023438 C 116.503906 105.070312 115.207031 105.570312 114.410156 104.953125 C 113.695312 104.550781 113.671875 103.773438 113.851562 103.082031 C 113.554688 102.765625 112.996094 102.472656 112.589844 102.480469 C 111.714844 102.765625 110.710938 102.6875 109.820312 103.058594 C 109.332031 103.199219 109.007812 103.527344 108.449219 103.503906 C 109.394531 102.34375 111.125 102.226562 112.480469 101.820312 C 112.09375 99.527344 115.152344 100.308594 116.503906 99.875 C 117.109375 99.578125 117.753906 99.1875 118.453125 99.175781 C 120.730469 98.710938 124.980469 100.796875 124.863281 97.179688 C 122.628906 96.253906 126.089844 92.722656 124.59375 92.871094 C 119.25 93.5625 114.015625 92.558594 109.410156 96.191406 C 104.429688 99.457031 99.804688 103.246094 94.984375 106.714844 C 92.757812 109.039062 94.414062 114.96875 95.746094 117.425781 Z M 149.910156 109.1875 C 154.277344 106.929688 157.132812 99.296875 159.542969 94.914062 C 160.050781 94.09375 159.511719 93.15625 159.671875 92.25 C 159.800781 90.648438 160.363281 89.15625 160.921875 87.664062 C 156.292969 87.171875 156.808594 91.484375 154.988281 94.144531 C 153.242188 100.589844 154.183594 103.371094 149.910156 109.1875 Z M 145.320312 93.25 C 148.007812 88.089844 139.460938 90.8125 136.988281 90.171875 C 135.941406 90.066406 136.214844 91.796875 136.128906 92.484375 C 135.984375 93.902344 137 95.257812 136.363281 96.640625 C 135.914062 97.785156 135.371094 97.269531 135.519531 97.871094 C 139.3125 97.75 142.738281 95.578125 145.320312 93.25 Z M 153.046875 93.894531 C 148.21875 94.25 150.015625 101.5 146.195312 103.679688 C 146.667969 104.363281 146.398438 105.484375 147.207031 105.90625 C 148.460938 106.269531 149.144531 107.554688 148.339844 109.101562 C 148.078125 109.488281 148.199219 109.894531 148.28125 110.3125 C 150.410156 106.945312 152.839844 103.496094 153.078125 99.371094 C 151.617188 98.558594 152.441406 95.160156 153.046875 93.894531 Z M 149.730469 92.4375 C 149.710938 92.589844 149.710938 92.75 149.707031 92.90625 C 149.703125 93.527344 148.761719 94.660156 148.515625 95.128906 C 147.636719 96.679688 146.125 97.582031 144.746094 98.601562 C 146.472656 98.957031 148.316406 98.394531 148.78125 96.519531 C 149.367188 94.660156 151.300781 92.800781 153.359375 93.410156 C 154.765625 92.195312 153.828125 88.3125 153.570312 86.582031 C 151.53125 85.851562 151.570312 83.5 151.089844 81.773438 C 149.722656 82.742188 149.609375 84.460938 149.507812 85.976562 C 149.496094 86.128906 149.894531 91.253906 149.730469 92.4375 Z M 133.238281 64.253906 C 133 69.792969 128.613281 75.988281 131.550781 81.453125 C 131.613281 80.828125 131.394531 80.15625 131.710938 79.585938 C 132.339844 78.402344 131.90625 77.003906 132.472656 75.796875 C 133.824219 74.429688 132.578125 81.128906 132.71875 81.707031 C 136.210938 76.789062 135.492188 69.476562 133.238281 64.253906 Z M 140.917969 114.214844 C 141.84375 113.175781 146.089844 112.191406 145.828125 111.332031 C 146.050781 105.410156 140.191406 111.265625 140.917969 114.214844 Z M 163.640625 91.03125 C 162.46875 86.554688 169.59375 84.042969 163.128906 85.265625 C 162.675781 88.574219 161.8125 91.703125 160.550781 94.777344 C 161.75 93.601562 162.609375 92.28125 163.640625 91.03125 Z M 132.332031 125.53125 C 132.433594 124.832031 132.53125 123.949219 132.296875 123.246094 C 131.816406 123.421875 132.226562 125.101562 132.332031 125.53125 Z M 161.75 85.925781 C 161.332031 85.984375 160.882812 86.597656 160.417969 86.878906 C 161.265625 87.046875 161.457031 86.613281 161.75 85.925781 Z M 161.75 85.925781 " fill-opacity="1" fill-rule="nonzero"/></g><path fill="#e6dbc6" d="M 124.75 124.433594 C 124.886719 122.523438 124.609375 120.699219 124.160156 118.871094 C 124.039062 118.386719 123.984375 117.886719 124 117.390625 C 124.058594 115.320312 124.03125 112 126.1875 111.726562 C 126.988281 112.335938 126.042969 113.3125 126.1875 114.070312 C 126.199219 114.921875 126.398438 115.804688 126.636719 116.644531 C 126.792969 117.183594 126.832031 117.746094 126.769531 118.300781 C 126.496094 120.617188 126.589844 122.960938 126.246094 125.273438 C 125.660156 126.367188 124.464844 125.378906 124.75 124.433594 Z M 125.667969 124.347656 C 125.878906 123.078125 125.84375 121.746094 125.835938 120.453125 C 125.785156 119.378906 126.429688 118.34375 126.039062 117.273438 C 125.742188 116.097656 125.402344 114.832031 125.46875 113.625 C 125.527344 113.242188 126.007812 112.773438 125.6875 112.429688 C 125.113281 112.992188 124.613281 114.808594 124.769531 117.058594 C 124.777344 117.347656 124.683594 117.667969 124.777344 117.917969 C 125.175781 119.617188 125.394531 123.246094 125.445312 124.480469 C 125.667969 124.640625 125.683594 124.582031 125.667969 124.347656 Z M 125.667969 124.347656 " fill-opacity="1" fill-rule="nonzero"/><path fill="#e6dbc6" d="M 135.242188 119.035156 C 135.992188 118.707031 135.628906 120.792969 135.765625 121.273438 C 135.910156 123 136.269531 124.816406 135.089844 126.292969 C 134.777344 125.773438 135.089844 125.363281 135.144531 124.832031 C 135.519531 122.914062 134.691406 120.921875 135.242188 119.035156 Z M 135.242188 119.035156 " fill-opacity="1" fill-rule="nonzero"/><path fill="#e6dbc6" d="M 137.292969 102.71875 C 137.113281 102.777344 137.054688 102.941406 136.8125 102.890625 C 136.160156 102.757812 135.5 102.800781 134.871094 103.0625 C 133.910156 103.519531 132.828125 103.796875 131.769531 103.554688 C 131.332031 103.472656 130.722656 103.648438 130.382812 103.277344 C 130.59375 102.902344 130.84375 103.15625 131.152344 103.101562 C 133.410156 103.515625 135.84375 101.25 137.292969 102.71875 Z M 137.292969 102.71875 " fill-opacity="1" fill-rule="nonzero"/><path fill="#e6dbc6" d="M 131.082031 109.941406 C 131.1875 110.03125 131.265625 110.105469 131.375 110.199219 C 130.816406 110.964844 130.855469 112.351562 132.136719 111.761719 C 132.683594 112.390625 131.53125 112.671875 131.058594 112.457031 C 130.132812 112.023438 130.277344 110.445312 131.082031 109.941406 Z M 131.082031 109.941406 " fill-opacity="1" fill-rule="nonzero"/><path fill="#e6dbc6" d="M 126.925781 109.1875 C 127.019531 109.253906 127.097656 109.308594 127.191406 109.378906 C 126.363281 111.277344 124.214844 109.230469 125.878906 108.011719 C 126.597656 108 126.089844 108.425781 125.890625 108.738281 C 125.773438 108.925781 125.804688 109.121094 125.953125 109.257812 C 126.308594 109.664062 126.550781 109.332031 126.925781 109.1875 Z M 126.925781 109.1875 " fill-opacity="1" fill-rule="nonzero"/><path fill="#e6dbc6" d="M 119.335938 108.539062 C 118.8125 108.453125 119.011719 107.003906 118.703125 106.480469 C 118.582031 106.253906 118.304688 106.066406 118.398438 105.761719 C 118.402344 105.742188 118.402344 105.722656 118.398438 105.703125 C 118.371094 105.59375 118.484375 105.492188 118.589844 105.527344 C 119.359375 105.75 119.722656 107.878906 119.335938 108.539062 Z M 119.335938 108.539062 " fill-opacity="1" fill-rule="nonzero"/><path fill="#e6dbc6" d="M 142.996094 100.550781 C 143.070312 99.980469 145.136719 100.179688 145.589844 100.371094 C 145.335938 101.167969 144.125 100.761719 143.488281 100.824219 C 143.277344 100.851562 143.273438 100.828125 142.996094 100.550781 Z M 142.996094 100.550781 " fill-opacity="1" fill-rule="nonzero"/><path fill="#e6dbc6" d="M 121.445312 101.722656 C 121.175781 102.359375 120.96875 101.476562 119.21875 102.136719 C 118.15625 101.539062 120.910156 100.757812 121.445312 101.722656 Z M 121.445312 101.722656 " fill-opacity="1" fill-rule="nonzero"/><path fill="#e6dbc6" d="M 127.527344 94.402344 C 127.832031 94.480469 128.078125 94.179688 128.359375 94.34375 C 128.265625 94.59375 128.238281 94.816406 127.949219 94.875 C 127.160156 95.59375 126.324219 93.738281 127.152344 93.3125 C 127.976562 93.242188 127.148438 94.039062 127.527344 94.402344 Z M 127.527344 94.402344 " fill-opacity="1" fill-rule="nonzero"/><path fill="#e6dbc6" d="M 126.421875 99.445312 C 126.425781 99.199219 126.277344 98.976562 126.367188 98.757812 C 126.480469 98.425781 126.355469 98.035156 126.660156 97.78125 C 127.261719 97.773438 127.0625 99.671875 126.421875 99.445312 Z M 126.421875 99.445312 " fill-opacity="1" fill-rule="nonzero"/><path fill="#e6dbc6" d="M 138.179688 102.769531 C 138.296875 102.433594 138.292969 102.222656 138.738281 102.453125 C 139.34375 102.933594 138.554688 102.976562 138.179688 102.769531 Z M 138.179688 102.769531 " fill-opacity="1" fill-rule="nonzero"/></svg>