<svg xmlns="http://www.w3.org/2000/svg" xmlns:xlink="http://www.w3.org/1999/xlink" width="500" zoomAndPan="magnify" viewBox="0 0 375 374.999991" height="500" preserveAspectRatio="xMidYMid meet" version="1.0"><defs><g/><clipPath id="e702c95e46"><path d="M 181 167.488281 L 318 167.488281 L 318 314 L 181 314 Z M 181 167.488281 " clip-rule="nonzero"/></clipPath></defs><g fill="#e6dbc6" fill-opacity="0.3216"><g transform="translate(39.723968, 162.202792)"><g><path d="M 2.515625 0 C 3.390625 -1.75 3.953125 -3.515625 4.203125 -5.296875 C 4.460938 -7.085938 4.59375 -9.804688 4.59375 -13.453125 L 4.59375 -63.234375 C 4.59375 -66.878906 4.460938 -69.578125 4.203125 -71.328125 C 3.953125 -73.078125 3.390625 -74.828125 2.515625 -76.578125 L 20.015625 -76.578125 C 19.648438 -75.773438 19.410156 -75.082031 19.296875 -74.5 C 19.191406 -73.914062 19.140625 -73.003906 19.140625 -71.765625 C 19.140625 -69.210938 19.59375 -65.65625 20.5 -61.09375 C 21.414062 -56.53125 22.53125 -51.515625 23.84375 -46.046875 C 25.15625 -40.578125 26.46875 -35.109375 27.78125 -29.640625 C 28.726562 -33.722656 29.765625 -37.84375 30.890625 -42 C 32.023438 -46.15625 33.082031 -50.128906 34.0625 -53.921875 C 35.050781 -57.722656 35.851562 -61.15625 36.46875 -64.21875 C 37.09375 -67.28125 37.40625 -69.796875 37.40625 -71.765625 C 37.40625 -73.003906 37.347656 -73.914062 37.234375 -74.5 C 37.128906 -75.082031 36.894531 -75.773438 36.53125 -76.578125 L 53.59375 -76.578125 C 52.789062 -74.828125 52.257812 -73.078125 52 -71.328125 C 51.75 -69.578125 51.625 -66.878906 51.625 -63.234375 L 51.625 -13.453125 C 51.625 -9.804688 51.75 -7.085938 52 -5.296875 C 52.257812 -3.515625 52.789062 -1.75 53.59375 0 L 36.3125 0 C 37.1875 -1.75 37.75 -3.515625 38 -5.296875 C 38.257812 -7.085938 38.390625 -9.804688 38.390625 -13.453125 C 38.390625 -14.691406 38.390625 -16.492188 38.390625 -18.859375 C 38.390625 -21.234375 38.390625 -23.914062 38.390625 -26.90625 C 38.390625 -29.894531 38.40625 -32.898438 38.4375 -35.921875 C 38.476562 -38.953125 38.5 -41.742188 38.5 -44.296875 C 38.5 -46.847656 38.5 -48.90625 38.5 -50.46875 C 38.5 -52.039062 38.5 -52.828125 38.5 -52.828125 C 36.820312 -46.191406 35.253906 -39.957031 33.796875 -34.125 C 32.335938 -28.289062 30.953125 -22.617188 29.640625 -17.109375 C 28.328125 -11.609375 26.976562 -5.90625 25.59375 0 L 21.328125 0 C 19.941406 -5.90625 18.609375 -11.628906 17.328125 -17.171875 C 16.054688 -22.710938 14.742188 -28.378906 13.390625 -34.171875 C 12.046875 -39.972656 10.535156 -46.191406 8.859375 -52.828125 C 8.859375 -52.828125 8.859375 -52.039062 8.859375 -50.46875 C 8.859375 -48.90625 8.859375 -46.847656 8.859375 -44.296875 C 8.859375 -41.742188 8.875 -38.953125 8.90625 -35.921875 C 8.945312 -32.898438 8.96875 -29.894531 8.96875 -26.90625 C 8.96875 -23.914062 8.96875 -21.234375 8.96875 -18.859375 C 8.96875 -16.492188 8.96875 -14.691406 8.96875 -13.453125 C 8.96875 -9.804688 9.09375 -7.085938 9.34375 -5.296875 C 9.601562 -3.515625 10.171875 -1.75 11.046875 0 Z M 2.515625 0 "/></g></g></g><g fill="#e6dbc6" fill-opacity="0.3216"><g transform="translate(88.405359, 162.202792)"><g><path d="M 5.03125 -63.234375 C 5.03125 -66.878906 4.882812 -69.578125 4.59375 -71.328125 C 4.300781 -73.078125 3.644531 -74.828125 2.625 -76.578125 L 39.484375 -76.578125 L 39.484375 -51.84375 L 38.171875 -51.84375 C 38.171875 -55.644531 37.601562 -59.113281 36.46875 -62.25 C 35.34375 -65.382812 33.59375 -67.898438 31.21875 -69.796875 C 28.851562 -71.691406 25.8125 -72.640625 22.09375 -72.640625 L 17.9375 -72.640625 L 17.9375 -45.28125 L 19.796875 -45.28125 C 21.328125 -45.28125 22.929688 -45.753906 24.609375 -46.703125 C 26.285156 -47.648438 27.707031 -49.144531 28.875 -51.1875 C 30.039062 -53.226562 30.625 -55.859375 30.625 -59.078125 L 31.9375 -59.078125 L 31.9375 -27.671875 L 30.625 -27.671875 C 30.625 -30.953125 30.039062 -33.59375 28.875 -35.59375 C 27.707031 -37.601562 26.285156 -39.082031 24.609375 -40.03125 C 22.929688 -40.976562 21.328125 -41.453125 19.796875 -41.453125 L 17.9375 -41.453125 L 17.9375 -3.9375 C 23.039062 -3.789062 26.921875 -4.410156 29.578125 -5.796875 C 32.242188 -7.179688 34.175781 -9.441406 35.375 -12.578125 C 36.582031 -15.710938 37.515625 -19.757812 38.171875 -24.71875 L 39.484375 -24.71875 L 39.484375 0 L 2.625 0 C 3.644531 -1.75 4.300781 -3.5 4.59375 -5.25 C 4.882812 -7 5.03125 -9.695312 5.03125 -13.34375 Z M 5.03125 -63.234375 "/></g></g></g><g fill="#e6dbc6" fill-opacity="0.3216"><g transform="translate(124.068572, 162.202792)"><g><path d="M 2.515625 0 C 3.390625 -1.75 3.953125 -3.515625 4.203125 -5.296875 C 4.460938 -7.085938 4.59375 -9.804688 4.59375 -13.453125 L 4.59375 -63.234375 C 4.59375 -66.878906 4.460938 -69.578125 4.203125 -71.328125 C 3.953125 -73.078125 3.390625 -74.828125 2.515625 -76.578125 L 20.015625 -76.578125 C 19.648438 -75.773438 19.410156 -75.082031 19.296875 -74.5 C 19.191406 -73.914062 19.140625 -73.003906 19.140625 -71.765625 C 19.140625 -69.210938 19.59375 -65.65625 20.5 -61.09375 C 21.414062 -56.53125 22.53125 -51.515625 23.84375 -46.046875 C 25.15625 -40.578125 26.46875 -35.109375 27.78125 -29.640625 C 28.726562 -33.722656 29.765625 -37.84375 30.890625 -42 C 32.023438 -46.15625 33.082031 -50.128906 34.0625 -53.921875 C 35.050781 -57.722656 35.851562 -61.15625 36.46875 -64.21875 C 37.09375 -67.28125 37.40625 -69.796875 37.40625 -71.765625 C 37.40625 -73.003906 37.347656 -73.914062 37.234375 -74.5 C 37.128906 -75.082031 36.894531 -75.773438 36.53125 -76.578125 L 53.59375 -76.578125 C 52.789062 -74.828125 52.257812 -73.078125 52 -71.328125 C 51.75 -69.578125 51.625 -66.878906 51.625 -63.234375 L 51.625 -13.453125 C 51.625 -9.804688 51.75 -7.085938 52 -5.296875 C 52.257812 -3.515625 52.789062 -1.75 53.59375 0 L 36.3125 0 C 37.1875 -1.75 37.75 -3.515625 38 -5.296875 C 38.257812 -7.085938 38.390625 -9.804688 38.390625 -13.453125 C 38.390625 -14.691406 38.390625 -16.492188 38.390625 -18.859375 C 38.390625 -21.234375 38.390625 -23.914062 38.390625 -26.90625 C 38.390625 -29.894531 38.40625 -32.898438 38.4375 -35.921875 C 38.476562 -38.953125 38.5 -41.742188 38.5 -44.296875 C 38.5 -46.847656 38.5 -48.90625 38.5 -50.46875 C 38.5 -52.039062 38.5 -52.828125 38.5 -52.828125 C 36.820312 -46.191406 35.253906 -39.957031 33.796875 -34.125 C 32.335938 -28.289062 30.953125 -22.617188 29.640625 -17.109375 C 28.328125 -11.609375 26.976562 -5.90625 25.59375 0 L 21.328125 0 C 19.941406 -5.90625 18.609375 -11.628906 17.328125 -17.171875 C 16.054688 -22.710938 14.742188 -28.378906 13.390625 -34.171875 C 12.046875 -39.972656 10.535156 -46.191406 8.859375 -52.828125 C 8.859375 -52.828125 8.859375 -52.039062 8.859375 -50.46875 C 8.859375 -48.90625 8.859375 -46.847656 8.859375 -44.296875 C 8.859375 -41.742188 8.875 -38.953125 8.90625 -35.921875 C 8.945312 -32.898438 8.96875 -29.894531 8.96875 -26.90625 C 8.96875 -23.914062 8.96875 -21.234375 8.96875 -18.859375 C 8.96875 -16.492188 8.96875 -14.691406 8.96875 -13.453125 C 8.96875 -9.804688 9.09375 -7.085938 9.34375 -5.296875 C 9.601562 -3.515625 10.171875 -1.75 11.046875 0 Z M 2.515625 0 "/></g></g></g><g fill="#e6dbc6" fill-opacity="0.3216"><g transform="translate(172.749963, 162.202792)"><g><path d="M 5.03125 -63.234375 C 5.03125 -66.878906 4.882812 -69.578125 4.59375 -71.328125 C 4.300781 -73.078125 3.644531 -74.828125 2.625 -76.578125 L 39.484375 -76.578125 L 39.484375 -51.84375 L 38.171875 -51.84375 C 38.171875 -55.644531 37.601562 -59.113281 36.46875 -62.25 C 35.34375 -65.382812 33.59375 -67.898438 31.21875 -69.796875 C 28.851562 -71.691406 25.8125 -72.640625 22.09375 -72.640625 L 17.9375 -72.640625 L 17.9375 -45.28125 L 19.796875 -45.28125 C 21.328125 -45.28125 22.929688 -45.753906 24.609375 -46.703125 C 26.285156 -47.648438 27.707031 -49.144531 28.875 -51.1875 C 30.039062 -53.226562 30.625 -55.859375 30.625 -59.078125 L 31.9375 -59.078125 L 31.9375 -27.671875 L 30.625 -27.671875 C 30.625 -30.953125 30.039062 -33.59375 28.875 -35.59375 C 27.707031 -37.601562 26.285156 -39.082031 24.609375 -40.03125 C 22.929688 -40.976562 21.328125 -41.453125 19.796875 -41.453125 L 17.9375 -41.453125 L 17.9375 -3.9375 C 23.039062 -3.789062 26.921875 -4.410156 29.578125 -5.796875 C 32.242188 -7.179688 34.175781 -9.441406 35.375 -12.578125 C 36.582031 -15.710938 37.515625 -19.757812 38.171875 -24.71875 L 39.484375 -24.71875 L 39.484375 0 L 2.625 0 C 3.644531 -1.75 4.300781 -3.5 4.59375 -5.25 C 4.882812 -7 5.03125 -9.695312 5.03125 -13.34375 Z M 5.03125 -63.234375 "/></g></g></g><g fill="#e6dbc6" fill-opacity="0.3216"><g transform="translate(208.413175, 162.202792)"><g><path d="M 2.515625 0 C 3.535156 -1.75 4.207031 -3.515625 4.53125 -5.296875 C 4.863281 -7.085938 5.03125 -9.804688 5.03125 -13.453125 L 5.03125 -63.234375 C 5.03125 -65.710938 4.957031 -67.71875 4.8125 -69.25 C 4.664062 -70.78125 4.425781 -72.09375 4.09375 -73.1875 C 3.769531 -74.28125 3.242188 -75.410156 2.515625 -76.578125 L 18.59375 -76.578125 L 36.96875 -20.015625 C 36.96875 -20.015625 36.96875 -20.925781 36.96875 -22.75 C 36.96875 -24.570312 36.96875 -26.976562 36.96875 -29.96875 C 36.96875 -32.957031 36.945312 -36.203125 36.90625 -39.703125 C 36.875 -43.203125 36.859375 -46.648438 36.859375 -50.046875 C 36.859375 -53.441406 36.859375 -56.453125 36.859375 -59.078125 C 36.859375 -61.703125 36.859375 -63.632812 36.859375 -64.875 C 36.859375 -67.351562 36.800781 -69.210938 36.6875 -70.453125 C 36.582031 -71.691406 36.347656 -72.726562 35.984375 -73.5625 C 35.617188 -74.40625 35.109375 -75.410156 34.453125 -76.578125 L 43.96875 -76.578125 C 43.019531 -74.828125 42.363281 -73.054688 42 -71.265625 C 41.632812 -69.484375 41.453125 -66.769531 41.453125 -63.125 C 41.453125 -62.101562 41.453125 -60.1875 41.453125 -57.375 C 41.453125 -54.5625 41.429688 -51.238281 41.390625 -47.40625 C 41.359375 -43.582031 41.34375 -39.519531 41.34375 -35.21875 C 41.34375 -30.914062 41.34375 -26.6875 41.34375 -22.53125 C 41.34375 -18.375 41.320312 -14.597656 41.28125 -11.203125 C 41.25 -7.816406 41.234375 -5.101562 41.234375 -3.0625 C 41.234375 -1.019531 41.234375 0 41.234375 0 L 29.421875 0 L 9.40625 -61.59375 C 9.40625 -61.59375 9.40625 -60.585938 9.40625 -58.578125 C 9.40625 -56.578125 9.421875 -53.96875 9.453125 -50.75 C 9.492188 -47.539062 9.515625 -44.039062 9.515625 -40.25 C 9.515625 -36.457031 9.53125 -32.753906 9.5625 -29.140625 C 9.601562 -25.535156 9.625 -22.328125 9.625 -19.515625 C 9.625 -16.710938 9.625 -14.691406 9.625 -13.453125 C 9.625 -9.804688 9.785156 -7.085938 10.109375 -5.296875 C 10.441406 -3.515625 11.082031 -1.75 12.03125 0 Z M 2.515625 0 "/></g></g></g><g fill="#e6dbc6" fill-opacity="0.3216"><g transform="translate(247.467689, 162.202792)"><g><path d="M 1.75 -51.84375 L 1.75 -76.578125 L 40.90625 -76.578125 L 40.90625 -51.84375 L 39.59375 -51.84375 C 39.59375 -55.644531 39.226562 -59.148438 38.5 -62.359375 C 37.769531 -65.566406 36.640625 -68.171875 35.109375 -70.171875 C 33.578125 -72.179688 31.644531 -73.1875 29.3125 -73.1875 L 27.78125 -73.296875 L 27.78125 -13.453125 C 27.78125 -9.804688 27.925781 -7.085938 28.21875 -5.296875 C 28.507812 -3.515625 29.164062 -1.75 30.1875 0 L 12.46875 0 C 13.488281 -1.75 14.144531 -3.515625 14.4375 -5.296875 C 14.726562 -7.085938 14.875 -9.804688 14.875 -13.453125 L 14.875 -73.296875 L 13.234375 -73.1875 C 10.898438 -73.1875 8.96875 -72.179688 7.4375 -70.171875 C 5.90625 -68.171875 4.773438 -65.566406 4.046875 -62.359375 C 3.316406 -59.148438 2.953125 -55.644531 2.953125 -51.84375 Z M 1.75 -51.84375 "/></g></g></g><g fill="#e6dbc6" fill-opacity="0.3216"><g transform="translate(282.693324, 162.202792)"><g><path d="M 25.59375 0.765625 C 21.070312 0.765625 17.1875 -0.851562 13.9375 -4.09375 C 10.695312 -7.34375 8.21875 -11.882812 6.5 -17.71875 C 4.789062 -23.550781 3.9375 -30.367188 3.9375 -38.171875 C 3.9375 -45.972656 4.789062 -52.8125 6.5 -58.6875 C 8.21875 -64.5625 10.695312 -69.117188 13.9375 -72.359375 C 17.1875 -75.609375 21.070312 -77.234375 25.59375 -77.234375 C 30.1875 -77.234375 34.085938 -75.609375 37.296875 -72.359375 C 40.503906 -69.117188 42.960938 -64.5625 44.671875 -58.6875 C 46.390625 -52.8125 47.25 -45.972656 47.25 -38.171875 C 47.25 -30.367188 46.390625 -23.550781 44.671875 -17.71875 C 42.960938 -11.882812 40.503906 -7.34375 37.296875 -4.09375 C 34.085938 -0.851562 30.1875 0.765625 25.59375 0.765625 Z M 17.28125 -38.171875 C 17.28125 -27.160156 17.84375 -18.609375 18.96875 -12.515625 C 20.101562 -6.429688 22.347656 -3.390625 25.703125 -3.390625 C 29.128906 -3.390625 31.367188 -6.429688 32.421875 -12.515625 C 33.484375 -18.609375 34.015625 -27.160156 34.015625 -38.171875 C 34.015625 -49.265625 33.484375 -57.851562 32.421875 -63.9375 C 31.367188 -70.03125 29.128906 -73.078125 25.703125 -73.078125 C 22.347656 -73.078125 20.101562 -70.03125 18.96875 -63.9375 C 17.84375 -57.851562 17.28125 -49.265625 17.28125 -38.171875 Z M 17.28125 -38.171875 "/></g></g></g><g fill="#e6dbc6" fill-opacity="1"><g transform="translate(37.500002, 159.978823)"><g><path d="M 2.515625 0 C 3.390625 -1.75 3.953125 -3.515625 4.203125 -5.296875 C 4.460938 -7.085938 4.59375 -9.804688 4.59375 -13.453125 L 4.59375 -63.234375 C 4.59375 -66.878906 4.460938 -69.578125 4.203125 -71.328125 C 3.953125 -73.078125 3.390625 -74.828125 2.515625 -76.578125 L 20.015625 -76.578125 C 19.648438 -75.773438 19.410156 -75.082031 19.296875 -74.5 C 19.191406 -73.914062 19.140625 -73.003906 19.140625 -71.765625 C 19.140625 -69.210938 19.59375 -65.65625 20.5 -61.09375 C 21.414062 -56.53125 22.53125 -51.515625 23.84375 -46.046875 C 25.15625 -40.578125 26.46875 -35.109375 27.78125 -29.640625 C 28.726562 -33.722656 29.765625 -37.84375 30.890625 -42 C 32.023438 -46.15625 33.082031 -50.128906 34.0625 -53.921875 C 35.050781 -57.722656 35.851562 -61.15625 36.46875 -64.21875 C 37.09375 -67.28125 37.40625 -69.796875 37.40625 -71.765625 C 37.40625 -73.003906 37.347656 -73.914062 37.234375 -74.5 C 37.128906 -75.082031 36.894531 -75.773438 36.53125 -76.578125 L 53.59375 -76.578125 C 52.789062 -74.828125 52.257812 -73.078125 52 -71.328125 C 51.75 -69.578125 51.625 -66.878906 51.625 -63.234375 L 51.625 -13.453125 C 51.625 -9.804688 51.75 -7.085938 52 -5.296875 C 52.257812 -3.515625 52.789062 -1.75 53.59375 0 L 36.3125 0 C 37.1875 -1.75 37.75 -3.515625 38 -5.296875 C 38.257812 -7.085938 38.390625 -9.804688 38.390625 -13.453125 C 38.390625 -14.691406 38.390625 -16.492188 38.390625 -18.859375 C 38.390625 -21.234375 38.390625 -23.914062 38.390625 -26.90625 C 38.390625 -29.894531 38.40625 -32.898438 38.4375 -35.921875 C 38.476562 -38.953125 38.5 -41.742188 38.5 -44.296875 C 38.5 -46.847656 38.5 -48.90625 38.5 -50.46875 C 38.5 -52.039062 38.5 -52.828125 38.5 -52.828125 C 36.820312 -46.191406 35.253906 -39.957031 33.796875 -34.125 C 32.335938 -28.289062 30.953125 -22.617188 29.640625 -17.109375 C 28.328125 -11.609375 26.976562 -5.90625 25.59375 0 L 21.328125 0 C 19.941406 -5.90625 18.609375 -11.628906 17.328125 -17.171875 C 16.054688 -22.710938 14.742188 -28.378906 13.390625 -34.171875 C 12.046875 -39.972656 10.535156 -46.191406 8.859375 -52.828125 C 8.859375 -52.828125 8.859375 -52.039062 8.859375 -50.46875 C 8.859375 -48.90625 8.859375 -46.847656 8.859375 -44.296875 C 8.859375 -41.742188 8.875 -38.953125 8.90625 -35.921875 C 8.945312 -32.898438 8.96875 -29.894531 8.96875 -26.90625 C 8.96875 -23.914062 8.96875 -21.234375 8.96875 -18.859375 C 8.96875 -16.492188 8.96875 -14.691406 8.96875 -13.453125 C 8.96875 -9.804688 9.09375 -7.085938 9.34375 -5.296875 C 9.601562 -3.515625 10.171875 -1.75 11.046875 0 Z M 2.515625 0 "/></g></g></g><g fill="#e6dbc6" fill-opacity="1"><g transform="translate(86.181393, 159.978823)"><g><path d="M 5.03125 -63.234375 C 5.03125 -66.878906 4.882812 -69.578125 4.59375 -71.328125 C 4.300781 -73.078125 3.644531 -74.828125 2.625 -76.578125 L 39.484375 -76.578125 L 39.484375 -51.84375 L 38.171875 -51.84375 C 38.171875 -55.644531 37.601562 -59.113281 36.46875 -62.25 C 35.34375 -65.382812 33.59375 -67.898438 31.21875 -69.796875 C 28.851562 -71.691406 25.8125 -72.640625 22.09375 -72.640625 L 17.9375 -72.640625 L 17.9375 -45.28125 L 19.796875 -45.28125 C 21.328125 -45.28125 22.929688 -45.753906 24.609375 -46.703125 C 26.285156 -47.648438 27.707031 -49.144531 28.875 -51.1875 C 30.039062 -53.226562 30.625 -55.859375 30.625 -59.078125 L 31.9375 -59.078125 L 31.9375 -27.671875 L 30.625 -27.671875 C 30.625 -30.953125 30.039062 -33.59375 28.875 -35.59375 C 27.707031 -37.601562 26.285156 -39.082031 24.609375 -40.03125 C 22.929688 -40.976562 21.328125 -41.453125 19.796875 -41.453125 L 17.9375 -41.453125 L 17.9375 -3.9375 C 23.039062 -3.789062 26.921875 -4.410156 29.578125 -5.796875 C 32.242188 -7.179688 34.175781 -9.441406 35.375 -12.578125 C 36.582031 -15.710938 37.515625 -19.757812 38.171875 -24.71875 L 39.484375 -24.71875 L 39.484375 0 L 2.625 0 C 3.644531 -1.75 4.300781 -3.5 4.59375 -5.25 C 4.882812 -7 5.03125 -9.695312 5.03125 -13.34375 Z M 5.03125 -63.234375 "/></g></g></g><g fill="#e6dbc6" fill-opacity="1"><g transform="translate(121.844606, 159.978823)"><g><path d="M 2.515625 0 C 3.390625 -1.75 3.953125 -3.515625 4.203125 -5.296875 C 4.460938 -7.085938 4.59375 -9.804688 4.59375 -13.453125 L 4.59375 -63.234375 C 4.59375 -66.878906 4.460938 -69.578125 4.203125 -71.328125 C 3.953125 -73.078125 3.390625 -74.828125 2.515625 -76.578125 L 20.015625 -76.578125 C 19.648438 -75.773438 19.410156 -75.082031 19.296875 -74.5 C 19.191406 -73.914062 19.140625 -73.003906 19.140625 -71.765625 C 19.140625 -69.210938 19.59375 -65.65625 20.5 -61.09375 C 21.414062 -56.53125 22.53125 -51.515625 23.84375 -46.046875 C 25.15625 -40.578125 26.46875 -35.109375 27.78125 -29.640625 C 28.726562 -33.722656 29.765625 -37.84375 30.890625 -42 C 32.023438 -46.15625 33.082031 -50.128906 34.0625 -53.921875 C 35.050781 -57.722656 35.851562 -61.15625 36.46875 -64.21875 C 37.09375 -67.28125 37.40625 -69.796875 37.40625 -71.765625 C 37.40625 -73.003906 37.347656 -73.914062 37.234375 -74.5 C 37.128906 -75.082031 36.894531 -75.773438 36.53125 -76.578125 L 53.59375 -76.578125 C 52.789062 -74.828125 52.257812 -73.078125 52 -71.328125 C 51.75 -69.578125 51.625 -66.878906 51.625 -63.234375 L 51.625 -13.453125 C 51.625 -9.804688 51.75 -7.085938 52 -5.296875 C 52.257812 -3.515625 52.789062 -1.75 53.59375 0 L 36.3125 0 C 37.1875 -1.75 37.75 -3.515625 38 -5.296875 C 38.257812 -7.085938 38.390625 -9.804688 38.390625 -13.453125 C 38.390625 -14.691406 38.390625 -16.492188 38.390625 -18.859375 C 38.390625 -21.234375 38.390625 -23.914062 38.390625 -26.90625 C 38.390625 -29.894531 38.40625 -32.898438 38.4375 -35.921875 C 38.476562 -38.953125 38.5 -41.742188 38.5 -44.296875 C 38.5 -46.847656 38.5 -48.90625 38.5 -50.46875 C 38.5 -52.039062 38.5 -52.828125 38.5 -52.828125 C 36.820312 -46.191406 35.253906 -39.957031 33.796875 -34.125 C 32.335938 -28.289062 30.953125 -22.617188 29.640625 -17.109375 C 28.328125 -11.609375 26.976562 -5.90625 25.59375 0 L 21.328125 0 C 19.941406 -5.90625 18.609375 -11.628906 17.328125 -17.171875 C 16.054688 -22.710938 14.742188 -28.378906 13.390625 -34.171875 C 12.046875 -39.972656 10.535156 -46.191406 8.859375 -52.828125 C 8.859375 -52.828125 8.859375 -52.039062 8.859375 -50.46875 C 8.859375 -48.90625 8.859375 -46.847656 8.859375 -44.296875 C 8.859375 -41.742188 8.875 -38.953125 8.90625 -35.921875 C 8.945312 -32.898438 8.96875 -29.894531 8.96875 -26.90625 C 8.96875 -23.914062 8.96875 -21.234375 8.96875 -18.859375 C 8.96875 -16.492188 8.96875 -14.691406 8.96875 -13.453125 C 8.96875 -9.804688 9.09375 -7.085938 9.34375 -5.296875 C 9.601562 -3.515625 10.171875 -1.75 11.046875 0 Z M 2.515625 0 "/></g></g></g><g fill="#e6dbc6" fill-opacity="1"><g transform="translate(170.525997, 159.978823)"><g><path d="M 5.03125 -63.234375 C 5.03125 -66.878906 4.882812 -69.578125 4.59375 -71.328125 C 4.300781 -73.078125 3.644531 -74.828125 2.625 -76.578125 L 39.484375 -76.578125 L 39.484375 -51.84375 L 38.171875 -51.84375 C 38.171875 -55.644531 37.601562 -59.113281 36.46875 -62.25 C 35.34375 -65.382812 33.59375 -67.898438 31.21875 -69.796875 C 28.851562 -71.691406 25.8125 -72.640625 22.09375 -72.640625 L 17.9375 -72.640625 L 17.9375 -45.28125 L 19.796875 -45.28125 C 21.328125 -45.28125 22.929688 -45.753906 24.609375 -46.703125 C 26.285156 -47.648438 27.707031 -49.144531 28.875 -51.1875 C 30.039062 -53.226562 30.625 -55.859375 30.625 -59.078125 L 31.9375 -59.078125 L 31.9375 -27.671875 L 30.625 -27.671875 C 30.625 -30.953125 30.039062 -33.59375 28.875 -35.59375 C 27.707031 -37.601562 26.285156 -39.082031 24.609375 -40.03125 C 22.929688 -40.976562 21.328125 -41.453125 19.796875 -41.453125 L 17.9375 -41.453125 L 17.9375 -3.9375 C 23.039062 -3.789062 26.921875 -4.410156 29.578125 -5.796875 C 32.242188 -7.179688 34.175781 -9.441406 35.375 -12.578125 C 36.582031 -15.710938 37.515625 -19.757812 38.171875 -24.71875 L 39.484375 -24.71875 L 39.484375 0 L 2.625 0 C 3.644531 -1.75 4.300781 -3.5 4.59375 -5.25 C 4.882812 -7 5.03125 -9.695312 5.03125 -13.34375 Z M 5.03125 -63.234375 "/></g></g></g><g fill="#e6dbc6" fill-opacity="1"><g transform="translate(206.189209, 159.978823)"><g><path d="M 2.515625 0 C 3.535156 -1.75 4.207031 -3.515625 4.53125 -5.296875 C 4.863281 -7.085938 5.03125 -9.804688 5.03125 -13.453125 L 5.03125 -63.234375 C 5.03125 -65.710938 4.957031 -67.71875 4.8125 -69.25 C 4.664062 -70.78125 4.425781 -72.09375 4.09375 -73.1875 C 3.769531 -74.28125 3.242188 -75.410156 2.515625 -76.578125 L 18.59375 -76.578125 L 36.96875 -20.015625 C 36.96875 -20.015625 36.96875 -20.925781 36.96875 -22.75 C 36.96875 -24.570312 36.96875 -26.976562 36.96875 -29.96875 C 36.96875 -32.957031 36.945312 -36.203125 36.90625 -39.703125 C 36.875 -43.203125 36.859375 -46.648438 36.859375 -50.046875 C 36.859375 -53.441406 36.859375 -56.453125 36.859375 -59.078125 C 36.859375 -61.703125 36.859375 -63.632812 36.859375 -64.875 C 36.859375 -67.351562 36.800781 -69.210938 36.6875 -70.453125 C 36.582031 -71.691406 36.347656 -72.726562 35.984375 -73.5625 C 35.617188 -74.40625 35.109375 -75.410156 34.453125 -76.578125 L 43.96875 -76.578125 C 43.019531 -74.828125 42.363281 -73.054688 42 -71.265625 C 41.632812 -69.484375 41.453125 -66.769531 41.453125 -63.125 C 41.453125 -62.101562 41.453125 -60.1875 41.453125 -57.375 C 41.453125 -54.5625 41.429688 -51.238281 41.390625 -47.40625 C 41.359375 -43.582031 41.34375 -39.519531 41.34375 -35.21875 C 41.34375 -30.914062 41.34375 -26.6875 41.34375 -22.53125 C 41.34375 -18.375 41.320312 -14.597656 41.28125 -11.203125 C 41.25 -7.816406 41.234375 -5.101562 41.234375 -3.0625 C 41.234375 -1.019531 41.234375 0 41.234375 0 L 29.421875 0 L 9.40625 -61.59375 C 9.40625 -61.59375 9.40625 -60.585938 9.40625 -58.578125 C 9.40625 -56.578125 9.421875 -53.96875 9.453125 -50.75 C 9.492188 -47.539062 9.515625 -44.039062 9.515625 -40.25 C 9.515625 -36.457031 9.53125 -32.753906 9.5625 -29.140625 C 9.601562 -25.535156 9.625 -22.328125 9.625 -19.515625 C 9.625 -16.710938 9.625 -14.691406 9.625 -13.453125 C 9.625 -9.804688 9.785156 -7.085938 10.109375 -5.296875 C 10.441406 -3.515625 11.082031 -1.75 12.03125 0 Z M 2.515625 0 "/></g></g></g><g fill="#e6dbc6" fill-opacity="1"><g transform="translate(245.243723, 159.978823)"><g><path d="M 1.75 -51.84375 L 1.75 -76.578125 L 40.90625 -76.578125 L 40.90625 -51.84375 L 39.59375 -51.84375 C 39.59375 -55.644531 39.226562 -59.148438 38.5 -62.359375 C 37.769531 -65.566406 36.640625 -68.171875 35.109375 -70.171875 C 33.578125 -72.179688 31.644531 -73.1875 29.3125 -73.1875 L 27.78125 -73.296875 L 27.78125 -13.453125 C 27.78125 -9.804688 27.925781 -7.085938 28.21875 -5.296875 C 28.507812 -3.515625 29.164062 -1.75 30.1875 0 L 12.46875 0 C 13.488281 -1.75 14.144531 -3.515625 14.4375 -5.296875 C 14.726562 -7.085938 14.875 -9.804688 14.875 -13.453125 L 14.875 -73.296875 L 13.234375 -73.1875 C 10.898438 -73.1875 8.96875 -72.179688 7.4375 -70.171875 C 5.90625 -68.171875 4.773438 -65.566406 4.046875 -62.359375 C 3.316406 -59.148438 2.953125 -55.644531 2.953125 -51.84375 Z M 1.75 -51.84375 "/></g></g></g><g fill="#e6dbc6" fill-opacity="1"><g transform="translate(280.469358, 159.978823)"><g><path d="M 25.59375 0.765625 C 21.070312 0.765625 17.1875 -0.851562 13.9375 -4.09375 C 10.695312 -7.34375 8.21875 -11.882812 6.5 -17.71875 C 4.789062 -23.550781 3.9375 -30.367188 3.9375 -38.171875 C 3.9375 -45.972656 4.789062 -52.8125 6.5 -58.6875 C 8.21875 -64.5625 10.695312 -69.117188 13.9375 -72.359375 C 17.1875 -75.609375 21.070312 -77.234375 25.59375 -77.234375 C 30.1875 -77.234375 34.085938 -75.609375 37.296875 -72.359375 C 40.503906 -69.117188 42.960938 -64.5625 44.671875 -58.6875 C 46.390625 -52.8125 47.25 -45.972656 47.25 -38.171875 C 47.25 -30.367188 46.390625 -23.550781 44.671875 -17.71875 C 42.960938 -11.882812 40.503906 -7.34375 37.296875 -4.09375 C 34.085938 -0.851562 30.1875 0.765625 25.59375 0.765625 Z M 17.28125 -38.171875 C 17.28125 -27.160156 17.84375 -18.609375 18.96875 -12.515625 C 20.101562 -6.429688 22.347656 -3.390625 25.703125 -3.390625 C 29.128906 -3.390625 31.367188 -6.429688 32.421875 -12.515625 C 33.484375 -18.609375 34.015625 -27.160156 34.015625 -38.171875 C 34.015625 -49.265625 33.484375 -57.851562 32.421875 -63.9375 C 31.367188 -70.03125 29.128906 -73.078125 25.703125 -73.078125 C 22.347656 -73.078125 20.101562 -70.03125 18.96875 -63.9375 C 17.84375 -57.851562 17.28125 -49.265625 17.28125 -38.171875 Z M 17.28125 -38.171875 "/></g></g></g><g fill="#e6dbc6" fill-opacity="0.3216"><g transform="translate(39.723968, 260.337512)"><g/></g></g><g fill="#e6dbc6" fill-opacity="1"><g transform="translate(37.500002, 258.113543)"><g/></g></g><g fill="#e6dbc6" fill-opacity="0.3216"><g transform="translate(54.16919, 260.337512)"><g><path d="M 2.515625 0 C 3.390625 -1.75 3.953125 -3.515625 4.203125 -5.296875 C 4.460938 -7.085938 4.59375 -9.804688 4.59375 -13.453125 L 4.59375 -63.234375 C 4.59375 -66.878906 4.460938 -69.578125 4.203125 -71.328125 C 3.953125 -73.078125 3.390625 -74.828125 2.515625 -76.578125 L 20.015625 -76.578125 C 19.648438 -75.773438 19.410156 -75.082031 19.296875 -74.5 C 19.191406 -73.914062 19.140625 -73.003906 19.140625 -71.765625 C 19.140625 -69.210938 19.59375 -65.65625 20.5 -61.09375 C 21.414062 -56.53125 22.53125 -51.515625 23.84375 -46.046875 C 25.15625 -40.578125 26.46875 -35.109375 27.78125 -29.640625 C 28.726562 -33.722656 29.765625 -37.84375 30.890625 -42 C 32.023438 -46.15625 33.082031 -50.128906 34.0625 -53.921875 C 35.050781 -57.722656 35.851562 -61.15625 36.46875 -64.21875 C 37.09375 -67.28125 37.40625 -69.796875 37.40625 -71.765625 C 37.40625 -73.003906 37.347656 -73.914062 37.234375 -74.5 C 37.128906 -75.082031 36.894531 -75.773438 36.53125 -76.578125 L 53.59375 -76.578125 C 52.789062 -74.828125 52.257812 -73.078125 52 -71.328125 C 51.75 -69.578125 51.625 -66.878906 51.625 -63.234375 L 51.625 -13.453125 C 51.625 -9.804688 51.75 -7.085938 52 -5.296875 C 52.257812 -3.515625 52.789062 -1.75 53.59375 0 L 36.3125 0 C 37.1875 -1.75 37.75 -3.515625 38 -5.296875 C 38.257812 -7.085938 38.390625 -9.804688 38.390625 -13.453125 C 38.390625 -14.691406 38.390625 -16.492188 38.390625 -18.859375 C 38.390625 -21.234375 38.390625 -23.914062 38.390625 -26.90625 C 38.390625 -29.894531 38.40625 -32.898438 38.4375 -35.921875 C 38.476562 -38.953125 38.5 -41.742188 38.5 -44.296875 C 38.5 -46.847656 38.5 -48.90625 38.5 -50.46875 C 38.5 -52.039062 38.5 -52.828125 38.5 -52.828125 C 36.820312 -46.191406 35.253906 -39.957031 33.796875 -34.125 C 32.335938 -28.289062 30.953125 -22.617188 29.640625 -17.109375 C 28.328125 -11.609375 26.976562 -5.90625 25.59375 0 L 21.328125 0 C 19.941406 -5.90625 18.609375 -11.628906 17.328125 -17.171875 C 16.054688 -22.710938 14.742188 -28.378906 13.390625 -34.171875 C 12.046875 -39.972656 10.535156 -46.191406 8.859375 -52.828125 C 8.859375 -52.828125 8.859375 -52.039062 8.859375 -50.46875 C 8.859375 -48.90625 8.859375 -46.847656 8.859375 -44.296875 C 8.859375 -41.742188 8.875 -38.953125 8.90625 -35.921875 C 8.945312 -32.898438 8.96875 -29.894531 8.96875 -26.90625 C 8.96875 -23.914062 8.96875 -21.234375 8.96875 -18.859375 C 8.96875 -16.492188 8.96875 -14.691406 8.96875 -13.453125 C 8.96875 -9.804688 9.09375 -7.085938 9.34375 -5.296875 C 9.601562 -3.515625 10.171875 -1.75 11.046875 0 Z M 2.515625 0 "/></g></g></g><g fill="#e6dbc6" fill-opacity="0.3216"><g transform="translate(102.850582, 260.337512)"><g><path d="M 25.59375 0.765625 C 21.070312 0.765625 17.1875 -0.851562 13.9375 -4.09375 C 10.695312 -7.34375 8.21875 -11.882812 6.5 -17.71875 C 4.789062 -23.550781 3.9375 -30.367188 3.9375 -38.171875 C 3.9375 -45.972656 4.789062 -52.8125 6.5 -58.6875 C 8.21875 -64.5625 10.695312 -69.117188 13.9375 -72.359375 C 17.1875 -75.609375 21.070312 -77.234375 25.59375 -77.234375 C 30.1875 -77.234375 34.085938 -75.609375 37.296875 -72.359375 C 40.503906 -69.117188 42.960938 -64.5625 44.671875 -58.6875 C 46.390625 -52.8125 47.25 -45.972656 47.25 -38.171875 C 47.25 -30.367188 46.390625 -23.550781 44.671875 -17.71875 C 42.960938 -11.882812 40.503906 -7.34375 37.296875 -4.09375 C 34.085938 -0.851562 30.1875 0.765625 25.59375 0.765625 Z M 17.28125 -38.171875 C 17.28125 -27.160156 17.84375 -18.609375 18.96875 -12.515625 C 20.101562 -6.429688 22.347656 -3.390625 25.703125 -3.390625 C 29.128906 -3.390625 31.367188 -6.429688 32.421875 -12.515625 C 33.484375 -18.609375 34.015625 -27.160156 34.015625 -38.171875 C 34.015625 -49.265625 33.484375 -57.851562 32.421875 -63.9375 C 31.367188 -70.03125 29.128906 -73.078125 25.703125 -73.078125 C 22.347656 -73.078125 20.101562 -70.03125 18.96875 -63.9375 C 17.84375 -57.851562 17.28125 -49.265625 17.28125 -38.171875 Z M 17.28125 -38.171875 "/></g></g></g><g fill="#e6dbc6" fill-opacity="0.3216"><g transform="translate(146.60914, 260.337512)"><g><path d="M 2.625 0 C 3.644531 -1.75 4.300781 -3.515625 4.59375 -5.296875 C 4.882812 -7.085938 5.03125 -9.804688 5.03125 -13.453125 L 5.03125 -62.578125 C 5.03125 -66.222656 4.882812 -69.046875 4.59375 -71.046875 C 4.300781 -73.054688 3.644531 -74.9375 2.625 -76.6875 C 4.519531 -76.6875 6.742188 -76.6875 9.296875 -76.6875 C 11.847656 -76.6875 14.414062 -76.6875 17 -76.6875 C 19.59375 -76.6875 21.875 -76.6875 23.84375 -76.6875 C 27.050781 -76.6875 30.039062 -76.300781 32.8125 -75.53125 C 35.582031 -74.769531 37.820312 -73.332031 39.53125 -71.21875 C 41.25 -69.101562 42.109375 -65.96875 42.109375 -61.8125 C 42.109375 -58.09375 41.175781 -54.679688 39.3125 -51.578125 C 37.457031 -48.472656 35.363281 -45.71875 33.03125 -43.3125 C 34.125 -38.9375 35.144531 -34.941406 36.09375 -31.328125 C 37.039062 -27.722656 37.878906 -24.460938 38.609375 -21.546875 C 40.210938 -15.566406 41.597656 -10.953125 42.765625 -7.703125 C 43.929688 -4.460938 45.242188 -1.894531 46.703125 0 L 28.21875 0 C 28.65625 -0.800781 28.910156 -2.148438 28.984375 -4.046875 C 29.054688 -5.941406 28.875 -8.019531 28.4375 -10.28125 C 28.289062 -11.082031 28.070312 -12.101562 27.78125 -13.34375 C 27.488281 -14.582031 27.160156 -15.96875 26.796875 -17.5 C 26.285156 -19.757812 25.628906 -22.203125 24.828125 -24.828125 C 24.023438 -27.453125 23.148438 -30.476562 22.203125 -33.90625 C 20.960938 -32.738281 19.941406 -31.460938 19.140625 -30.078125 C 18.335938 -28.691406 17.9375 -27.160156 17.9375 -25.484375 L 17.9375 -13.453125 C 17.9375 -9.804688 18.082031 -7.085938 18.375 -5.296875 C 18.664062 -3.515625 19.320312 -1.75 20.34375 0 Z M 21.875 -71.984375 L 17.9375 -71.984375 L 17.9375 -34.34375 C 19.394531 -35.875 21 -37.929688 22.75 -40.515625 C 24.5 -43.109375 26.03125 -46.210938 27.34375 -49.828125 C 28.65625 -53.441406 29.3125 -57.546875 29.3125 -62.140625 C 29.3125 -64.765625 28.671875 -67.0625 27.390625 -69.03125 C 26.117188 -71 24.28125 -71.984375 21.875 -71.984375 Z M 21.875 -71.984375 "/></g></g></g><g fill="#e6dbc6" fill-opacity="0.3216"><g transform="translate(186.976419, 260.337512)"><g><path d="M 2.515625 0 C 3.535156 -1.75 4.191406 -3.515625 4.484375 -5.296875 C 4.773438 -7.085938 4.921875 -9.804688 4.921875 -13.453125 L 4.921875 -63.234375 C 4.921875 -66.878906 4.773438 -69.578125 4.484375 -71.328125 C 4.191406 -73.078125 3.535156 -74.828125 2.515625 -76.578125 L 20.234375 -76.578125 C 19.578125 -75.410156 19.066406 -74.28125 18.703125 -73.1875 C 18.335938 -72.09375 18.097656 -70.78125 17.984375 -69.25 C 17.878906 -67.71875 17.828125 -65.710938 17.828125 -63.234375 L 17.828125 -13.453125 C 17.828125 -9.804688 17.972656 -7.085938 18.265625 -5.296875 C 18.554688 -3.515625 19.210938 -1.75 20.234375 0 Z M 2.515625 0 "/></g></g></g><g fill="#e6dbc6" fill-opacity="1"><g transform="translate(51.945225, 258.113543)"><g><path d="M 2.515625 0 C 3.390625 -1.75 3.953125 -3.515625 4.203125 -5.296875 C 4.460938 -7.085938 4.59375 -9.804688 4.59375 -13.453125 L 4.59375 -63.234375 C 4.59375 -66.878906 4.460938 -69.578125 4.203125 -71.328125 C 3.953125 -73.078125 3.390625 -74.828125 2.515625 -76.578125 L 20.015625 -76.578125 C 19.648438 -75.773438 19.410156 -75.082031 19.296875 -74.5 C 19.191406 -73.914062 19.140625 -73.003906 19.140625 -71.765625 C 19.140625 -69.210938 19.59375 -65.65625 20.5 -61.09375 C 21.414062 -56.53125 22.53125 -51.515625 23.84375 -46.046875 C 25.15625 -40.578125 26.46875 -35.109375 27.78125 -29.640625 C 28.726562 -33.722656 29.765625 -37.84375 30.890625 -42 C 32.023438 -46.15625 33.082031 -50.128906 34.0625 -53.921875 C 35.050781 -57.722656 35.851562 -61.15625 36.46875 -64.21875 C 37.09375 -67.28125 37.40625 -69.796875 37.40625 -71.765625 C 37.40625 -73.003906 37.347656 -73.914062 37.234375 -74.5 C 37.128906 -75.082031 36.894531 -75.773438 36.53125 -76.578125 L 53.59375 -76.578125 C 52.789062 -74.828125 52.257812 -73.078125 52 -71.328125 C 51.75 -69.578125 51.625 -66.878906 51.625 -63.234375 L 51.625 -13.453125 C 51.625 -9.804688 51.75 -7.085938 52 -5.296875 C 52.257812 -3.515625 52.789062 -1.75 53.59375 0 L 36.3125 0 C 37.1875 -1.75 37.75 -3.515625 38 -5.296875 C 38.257812 -7.085938 38.390625 -9.804688 38.390625 -13.453125 C 38.390625 -14.691406 38.390625 -16.492188 38.390625 -18.859375 C 38.390625 -21.234375 38.390625 -23.914062 38.390625 -26.90625 C 38.390625 -29.894531 38.40625 -32.898438 38.4375 -35.921875 C 38.476562 -38.953125 38.5 -41.742188 38.5 -44.296875 C 38.5 -46.847656 38.5 -48.90625 38.5 -50.46875 C 38.5 -52.039062 38.5 -52.828125 38.5 -52.828125 C 36.820312 -46.191406 35.253906 -39.957031 33.796875 -34.125 C 32.335938 -28.289062 30.953125 -22.617188 29.640625 -17.109375 C 28.328125 -11.609375 26.976562 -5.90625 25.59375 0 L 21.328125 0 C 19.941406 -5.90625 18.609375 -11.628906 17.328125 -17.171875 C 16.054688 -22.710938 14.742188 -28.378906 13.390625 -34.171875 C 12.046875 -39.972656 10.535156 -46.191406 8.859375 -52.828125 C 8.859375 -52.828125 8.859375 -52.039062 8.859375 -50.46875 C 8.859375 -48.90625 8.859375 -46.847656 8.859375 -44.296875 C 8.859375 -41.742188 8.875 -38.953125 8.90625 -35.921875 C 8.945312 -32.898438 8.96875 -29.894531 8.96875 -26.90625 C 8.96875 -23.914062 8.96875 -21.234375 8.96875 -18.859375 C 8.96875 -16.492188 8.96875 -14.691406 8.96875 -13.453125 C 8.96875 -9.804688 9.09375 -7.085938 9.34375 -5.296875 C 9.601562 -3.515625 10.171875 -1.75 11.046875 0 Z M 2.515625 0 "/></g></g></g><g fill="#e6dbc6" fill-opacity="1"><g transform="translate(100.626616, 258.113543)"><g><path d="M 25.59375 0.765625 C 21.070312 0.765625 17.1875 -0.851562 13.9375 -4.09375 C 10.695312 -7.34375 8.21875 -11.882812 6.5 -17.71875 C 4.789062 -23.550781 3.9375 -30.367188 3.9375 -38.171875 C 3.9375 -45.972656 4.789062 -52.8125 6.5 -58.6875 C 8.21875 -64.5625 10.695312 -69.117188 13.9375 -72.359375 C 17.1875 -75.609375 21.070312 -77.234375 25.59375 -77.234375 C 30.1875 -77.234375 34.085938 -75.609375 37.296875 -72.359375 C 40.503906 -69.117188 42.960938 -64.5625 44.671875 -58.6875 C 46.390625 -52.8125 47.25 -45.972656 47.25 -38.171875 C 47.25 -30.367188 46.390625 -23.550781 44.671875 -17.71875 C 42.960938 -11.882812 40.503906 -7.34375 37.296875 -4.09375 C 34.085938 -0.851562 30.1875 0.765625 25.59375 0.765625 Z M 17.28125 -38.171875 C 17.28125 -27.160156 17.84375 -18.609375 18.96875 -12.515625 C 20.101562 -6.429688 22.347656 -3.390625 25.703125 -3.390625 C 29.128906 -3.390625 31.367188 -6.429688 32.421875 -12.515625 C 33.484375 -18.609375 34.015625 -27.160156 34.015625 -38.171875 C 34.015625 -49.265625 33.484375 -57.851562 32.421875 -63.9375 C 31.367188 -70.03125 29.128906 -73.078125 25.703125 -73.078125 C 22.347656 -73.078125 20.101562 -70.03125 18.96875 -63.9375 C 17.84375 -57.851562 17.28125 -49.265625 17.28125 -38.171875 Z M 17.28125 -38.171875 "/></g></g></g><g fill="#e6dbc6" fill-opacity="1"><g transform="translate(144.385174, 258.113543)"><g><path d="M 2.625 0 C 3.644531 -1.75 4.300781 -3.515625 4.59375 -5.296875 C 4.882812 -7.085938 5.03125 -9.804688 5.03125 -13.453125 L 5.03125 -62.578125 C 5.03125 -66.222656 4.882812 -69.046875 4.59375 -71.046875 C 4.300781 -73.054688 3.644531 -74.9375 2.625 -76.6875 C 4.519531 -76.6875 6.742188 -76.6875 9.296875 -76.6875 C 11.847656 -76.6875 14.414062 -76.6875 17 -76.6875 C 19.59375 -76.6875 21.875 -76.6875 23.84375 -76.6875 C 27.050781 -76.6875 30.039062 -76.300781 32.8125 -75.53125 C 35.582031 -74.769531 37.820312 -73.332031 39.53125 -71.21875 C 41.25 -69.101562 42.109375 -65.96875 42.109375 -61.8125 C 42.109375 -58.09375 41.175781 -54.679688 39.3125 -51.578125 C 37.457031 -48.472656 35.363281 -45.71875 33.03125 -43.3125 C 34.125 -38.9375 35.144531 -34.941406 36.09375 -31.328125 C 37.039062 -27.722656 37.878906 -24.460938 38.609375 -21.546875 C 40.210938 -15.566406 41.597656 -10.953125 42.765625 -7.703125 C 43.929688 -4.460938 45.242188 -1.894531 46.703125 0 L 28.21875 0 C 28.65625 -0.800781 28.910156 -2.148438 28.984375 -4.046875 C 29.054688 -5.941406 28.875 -8.019531 28.4375 -10.28125 C 28.289062 -11.082031 28.070312 -12.101562 27.78125 -13.34375 C 27.488281 -14.582031 27.160156 -15.96875 26.796875 -17.5 C 26.285156 -19.757812 25.628906 -22.203125 24.828125 -24.828125 C 24.023438 -27.453125 23.148438 -30.476562 22.203125 -33.90625 C 20.960938 -32.738281 19.941406 -31.460938 19.140625 -30.078125 C 18.335938 -28.691406 17.9375 -27.160156 17.9375 -25.484375 L 17.9375 -13.453125 C 17.9375 -9.804688 18.082031 -7.085938 18.375 -5.296875 C 18.664062 -3.515625 19.320312 -1.75 20.34375 0 Z M 21.875 -71.984375 L 17.9375 -71.984375 L 17.9375 -34.34375 C 19.394531 -35.875 21 -37.929688 22.75 -40.515625 C 24.5 -43.109375 26.03125 -46.210938 27.34375 -49.828125 C 28.65625 -53.441406 29.3125 -57.546875 29.3125 -62.140625 C 29.3125 -64.765625 28.671875 -67.0625 27.390625 -69.03125 C 26.117188 -71 24.28125 -71.984375 21.875 -71.984375 Z M 21.875 -71.984375 "/></g></g></g><g fill="#e6dbc6" fill-opacity="1"><g transform="translate(184.752453, 258.113543)"><g><path d="M 2.515625 0 C 3.535156 -1.75 4.191406 -3.515625 4.484375 -5.296875 C 4.773438 -7.085938 4.921875 -9.804688 4.921875 -13.453125 L 4.921875 -63.234375 C 4.921875 -66.878906 4.773438 -69.578125 4.484375 -71.328125 C 4.191406 -73.078125 3.535156 -74.828125 2.515625 -76.578125 L 20.234375 -76.578125 C 19.578125 -75.410156 19.066406 -74.28125 18.703125 -73.1875 C 18.335938 -72.09375 18.097656 -70.78125 17.984375 -69.25 C 17.878906 -67.71875 17.828125 -65.710938 17.828125 -63.234375 L 17.828125 -13.453125 C 17.828125 -9.804688 17.972656 -7.085938 18.265625 -5.296875 C 18.554688 -3.515625 19.210938 -1.75 20.234375 0 Z M 2.515625 0 "/></g></g></g><g clip-path="url(#e702c95e46)"><path fill="#e6dbc6" d="M 252.769531 288.84375 C 252.867188 291.007812 252.292969 292.171875 250.046875 291.109375 C 248.308594 290.035156 248.304688 287.476562 248.242188 285.621094 C 248.644531 280.222656 250.355469 274.519531 248.355469 269.257812 C 247.929688 268.328125 246.351562 265.109375 245.492188 267.207031 C 245.457031 267.46875 244.953125 270.09375 245.4375 271.054688 C 247.582031 278.636719 246.84375 279.957031 244.6875 287.410156 C 244.480469 289.765625 245.96875 291.667969 246.230469 293.929688 C 246.332031 294.824219 246.488281 295.746094 246.570312 296.660156 C 246.675781 297.820312 246.453125 298.996094 245.898438 300.019531 C 245.722656 300.339844 245.507812 300.605469 245.046875 300.613281 C 243.855469 300.792969 243.046875 300.289062 242.617188 299.164062 C 241.746094 302.835938 242.859375 306.832031 241.078125 310.28125 C 235.238281 314.070312 238.75 300.777344 236.398438 296.839844 C 235.976562 296.132812 235.714844 295.339844 235.632812 294.519531 C 235.054688 288.671875 236.746094 282.351562 235.046875 276.71875 C 228.546875 273.074219 234.679688 269.054688 232.164062 263.75 C 227.773438 266.882812 232.636719 280.355469 227.503906 280.445312 C 223.851562 279.214844 224.40625 274.480469 224.523438 271.371094 C 217.738281 270.113281 209.292969 274.4375 203.46875 277.882812 C 201.386719 278.859375 199.082031 282.097656 196.683594 281.777344 C 187.488281 279.710938 181.386719 270.011719 182.023438 260.832031 C 182.25 258.332031 181.800781 254.386719 184.289062 252.996094 C 203.207031 238.230469 211.972656 226.292969 237.851562 227.007812 C 238.640625 226.832031 238.835938 226.839844 239.007812 225.980469 C 239.386719 224.785156 240.25 223.804688 240.667969 222.652344 C 237.878906 221.234375 240.089844 218.050781 241.535156 216.425781 C 242.933594 214.773438 242.625 212.328125 243.921875 210.628906 C 245.640625 208.398438 250.726562 209.902344 249.523438 208.257812 C 244.34375 198.78125 251.570312 188.570312 252.503906 178.875 C 252.859375 175.484375 252.75 172.078125 253.003906 168.675781 C 253.007812 168.488281 252.777344 167.792969 253.371094 167.488281 C 253.445312 167.675781 253.964844 170.355469 254.289062 172.410156 C 254.488281 173.648438 254.800781 174.859375 255.234375 176.039062 C 259.160156 186.644531 261.222656 199.40625 254.355469 209.21875 C 256.453125 209.0625 258.121094 207.558594 260.210938 207.6875 C 263.003906 208.921875 261.824219 213.675781 261.050781 215.984375 C 260.4375 218.3125 262.402344 220.597656 260.824219 222.792969 C 264.027344 223.136719 267.394531 222.128906 270.683594 222.277344 C 273.855469 222.253906 277.921875 219.980469 280.5 222.636719 C 283.949219 229.226562 263.667969 240.117188 257.925781 239.082031 C 256.851562 244.230469 269.300781 236.097656 272.652344 238.683594 C 273.84375 236.726562 276.371094 236.1875 277.871094 234.484375 C 279.96875 232.15625 282.410156 229.308594 282.195312 225.980469 C 281.523438 219.695312 279.992188 211.222656 286.128906 207.152344 C 286.234375 205.855469 285.804688 204.359375 286.582031 203.191406 C 290.992188 200.71875 293.046875 225.503906 293.183594 228.777344 C 294.460938 223.859375 295.699219 218.863281 301.554688 217.941406 C 304.457031 214.074219 309.699219 212.308594 314.394531 213.503906 C 324.175781 204.996094 305.089844 234.382812 302.398438 234.636719 C 295.183594 245.96875 293.847656 254.703125 281.472656 262.125 C 282.582031 269.457031 276.089844 269.167969 276.3125 264.304688 C 273.449219 265.792969 270.289062 266.605469 267.769531 268.5 C 267.816406 270.363281 268.621094 275.117188 266.925781 275.996094 C 266.515625 276.519531 266.949219 279.933594 266.085938 280.566406 C 259.238281 283.421875 265.300781 269.117188 262.699219 266.855469 C 261.691406 267.675781 261.808594 268.867188 261.480469 269.976562 C 261.265625 270.324219 261.421875 277.382812 261.480469 277.527344 C 261.441406 284.652344 262.132812 288.113281 260.109375 291.046875 C 259.234375 293.566406 259.617188 296.785156 259.535156 299.34375 C 260.117188 311.398438 258.5625 313.070312 257.625 313.351562 C 251.988281 315.355469 254.28125 302.054688 254.464844 299.128906 C 254.484375 295.621094 254.4375 292.042969 252.769531 288.84375 Z M 255.480469 302.558594 C 254.789062 304.445312 255.414062 311.171875 256.316406 312.257812 C 260.398438 311.539062 257.109375 296.871094 258.28125 293.074219 C 258.105469 289.59375 260.765625 289.242188 260.230469 286.152344 C 260.050781 283.050781 260.21875 279.9375 260.210938 276.84375 C 260.464844 273.988281 258.75 265.28125 263.328125 265.746094 C 265.046875 266.304688 264.679688 268.859375 264.496094 270.175781 C 264.460938 271.546875 263.78125 279.621094 264.621094 279.683594 C 266.042969 279.632812 264.390625 276.242188 266.515625 274.300781 C 266.671875 270.742188 266.074219 267.085938 266.832031 263.597656 C 268.527344 258.097656 278.582031 251.253906 277.976562 261.636719 C 278.023438 263.25 276.710938 266.523438 279.363281 266.492188 C 280.125 265.347656 279.945312 263.996094 280.25 262.792969 C 278.160156 256.921875 281.011719 258.15625 280.628906 254.972656 C 280.589844 254.640625 280.394531 254.355469 280.117188 254.183594 C 279.921875 254.0625 279.742188 253.914062 279.515625 253.832031 C 279.292969 253.75 279.070312 253.667969 278.867188 253.542969 C 277.027344 252.398438 276.828125 250.707031 276.472656 249.394531 C 276.195312 249.648438 269.625 253.761719 268.5 253.820312 C 266.5 252.863281 271.078125 250.980469 271.902344 250.609375 C 273.828125 250.167969 274.953125 248.398438 276.269531 247.082031 C 278.273438 244.953125 280.835938 242.625 280.660156 239.46875 C 278.945312 240.664062 277.09375 240.695312 275.097656 240.582031 C 272.941406 240.867188 271.164062 239.078125 268.964844 239.753906 C 264.679688 240.417969 262.554688 242.574219 257.894531 241.890625 C 257.730469 242.476562 257.953125 243.40625 257.355469 243.710938 C 256.648438 243.75 256.515625 243.632812 256.503906 242.949219 C 256.496094 240.910156 256.355469 238.859375 256.78125 236.851562 C 257.039062 235.199219 258.617188 236.195312 258.429688 233.808594 C 258.707031 232.402344 257.085938 225.820312 258.488281 223.148438 C 259.058594 222.386719 259.933594 221.769531 259.886719 220.699219 C 259.882812 220.621094 258.894531 216.695312 259.855469 215.082031 C 260.191406 213.808594 261.539062 210.929688 260.09375 209.429688 C 259.871094 209.203125 259.523438 209.144531 259.230469 209.269531 C 250.972656 212.84375 250.675781 209.070312 245.175781 210.917969 C 243.570312 212.300781 244.042969 215.992188 242.136719 217.640625 C 241.535156 218.390625 240.171875 220.359375 240.699219 221.21875 C 241.941406 222.484375 242.21875 218.328125 243.601562 219.238281 C 243.765625 220.402344 238.144531 228.777344 240.847656 227.789062 C 241.714844 226.289062 241.941406 224.234375 244.058594 224.132812 C 245.257812 222.757812 244.652344 220.773438 245.234375 219.152344 C 245.789062 218.285156 245.59375 216.679688 246.917969 216.609375 C 247.070312 218.300781 246.050781 219.929688 246.050781 221.628906 C 245.773438 224.464844 245.648438 224.710938 243.214844 225.75 C 242.410156 226.964844 242.277344 229.410156 240.421875 229.472656 C 239.480469 231.800781 236.828125 237.140625 241.671875 234.3125 C 242.261719 235.148438 241.019531 236.417969 240.101562 236.246094 C 239.84375 237.886719 240.316406 242.492188 238.761719 243.1875 C 237.976562 243.667969 236.519531 244.726562 235.792969 243.707031 C 235.882812 243.664062 238.511719 242.789062 238.40625 240.953125 C 233.738281 242.796875 227.527344 239.226562 223.863281 243.207031 C 223.429688 243.675781 222.925781 244.078125 222.351562 244.355469 C 221.753906 244.640625 221.132812 244.878906 220.648438 244.375 C 222.390625 242.429688 219.273438 242.894531 218.90625 243.117188 C 218.207031 243.1875 217.566406 243.863281 217.980469 244.679688 C 218.515625 244.699219 220.996094 246.960938 220.222656 248.179688 C 220.671875 250.546875 224.179688 249.339844 225.429688 251.003906 C 230.339844 258.066406 222.386719 273.4375 227.574219 279.003906 C 230.253906 277.359375 226.542969 263.253906 232.246094 262.238281 C 235.585938 263.835938 233.769531 269.304688 233.246094 272.425781 C 233.117188 274.1875 235.34375 274.660156 236.257812 275.820312 C 237.71875 280.15625 237.117188 285.050781 237.070312 289.59375 C 236.265625 296.191406 237.777344 294.578125 238.679688 299.664062 C 239.160156 300.675781 238.203125 312.070312 240.238281 308.710938 C 241.46875 306.378906 239.519531 296.3125 243.398438 297.410156 C 245.898438 303.089844 245.042969 294.339844 244.585938 292.734375 C 244.371094 291.414062 243.308594 290.339844 243.421875 288.941406 C 242.78125 284.835938 245.808594 282.570312 245.515625 278.9375 C 245.492188 278.644531 245.480469 278.351562 245.496094 278.058594 C 245.667969 274.8125 243.660156 272.0625 243.921875 268.78125 C 243.820312 265.34375 246.3125 263.652344 248.640625 266.773438 C 249.890625 269.101562 250.726562 271.695312 250.6875 274.320312 C 250.617188 276.96875 248.632812 286.867188 250.273438 289.332031 C 252.503906 292.664062 250.042969 284.476562 250.59375 283.605469 C 250.570312 281.667969 253.511719 281.164062 253.726562 283.273438 C 254.191406 284.800781 253.511719 286.4375 254.070312 287.949219 C 255.976562 292.578125 256.269531 297.808594 255.480469 302.558594 Z M 186.519531 272.835938 C 201.660156 290.84375 199.539062 269.460938 224.710938 269.378906 C 224.253906 263.71875 227.628906 257.691406 224.792969 252.3125 C 223.878906 250.59375 221.542969 251.492188 220.109375 250.386719 C 218.824219 249.664062 218.777344 248.261719 219.101562 247.015625 C 218.570312 246.449219 217.5625 245.921875 216.832031 245.933594 C 215.257812 246.449219 213.453125 246.308594 211.84375 246.976562 C 210.96875 247.230469 210.382812 247.820312 209.382812 247.78125 C 211.082031 245.691406 214.195312 245.480469 216.636719 244.746094 C 215.9375 240.625 221.441406 242.03125 223.878906 241.25 C 224.96875 240.707031 226.128906 240.011719 227.386719 239.988281 C 231.480469 239.152344 239.128906 242.90625 238.921875 236.398438 C 234.898438 234.730469 241.128906 228.375 238.433594 228.640625 C 228.816406 229.886719 219.398438 228.082031 211.109375 234.621094 C 202.144531 240.496094 193.820312 247.316406 185.144531 253.558594 C 181.140625 257.742188 184.117188 268.414062 186.519531 272.835938 Z M 284 258.007812 C 291.863281 253.941406 297.003906 240.207031 301.339844 232.320312 C 302.25 230.839844 301.28125 229.152344 301.570312 227.527344 C 301.804688 224.640625 302.8125 221.957031 303.820312 219.269531 C 295.488281 218.386719 296.414062 226.144531 293.140625 230.929688 C 289.996094 242.535156 291.695312 247.535156 284 258.007812 Z M 275.742188 229.324219 C 280.574219 220.039062 265.191406 224.9375 260.742188 223.785156 C 258.855469 223.59375 259.351562 226.707031 259.199219 227.949219 C 258.9375 230.5 260.765625 232.933594 259.621094 235.425781 C 258.808594 237.484375 257.835938 236.554688 258.097656 237.640625 C 264.925781 237.417969 271.097656 233.511719 275.742188 229.324219 Z M 289.644531 230.480469 C 280.957031 231.125 284.191406 244.171875 277.316406 248.089844 C 278.167969 249.324219 277.679688 251.34375 279.136719 252.101562 C 281.394531 252.757812 282.621094 255.066406 281.175781 257.851562 C 280.703125 258.550781 280.921875 259.28125 281.066406 260.035156 C 284.902344 253.972656 289.277344 247.761719 289.707031 240.335938 C 287.074219 238.875 288.554688 232.757812 289.644531 230.480469 Z M 283.679688 227.859375 C 283.640625 228.136719 283.640625 228.421875 283.636719 228.707031 C 283.628906 229.820312 281.933594 231.859375 281.492188 232.707031 C 279.914062 235.492188 277.1875 237.121094 274.707031 238.953125 C 277.8125 239.589844 281.132812 238.582031 281.96875 235.207031 C 283.023438 231.859375 286.503906 228.511719 290.210938 229.609375 C 292.742188 227.425781 291.050781 220.4375 290.585938 217.320312 C 286.917969 216.007812 286.992188 211.777344 286.125 208.671875 C 283.664062 210.414062 283.457031 213.503906 283.273438 216.230469 C 283.253906 216.507812 283.972656 225.726562 283.679688 227.859375 Z M 253.992188 177.132812 C 253.566406 187.101562 245.671875 198.253906 250.957031 208.085938 C 251.070312 206.96875 250.679688 205.757812 251.242188 204.730469 C 252.378906 202.597656 251.597656 200.082031 252.617188 197.910156 C 255.054688 195.445312 252.804688 207.507812 253.0625 208.546875 C 259.34375 199.699219 258.050781 186.539062 253.992188 177.132812 Z M 267.8125 267.054688 C 269.484375 265.183594 277.125 263.414062 276.65625 261.863281 C 277.050781 251.207031 266.511719 261.746094 267.8125 267.054688 Z M 308.714844 225.324219 C 306.605469 217.273438 319.425781 212.753906 307.792969 214.953125 C 306.976562 220.90625 305.417969 226.542969 303.148438 232.074219 C 305.308594 229.953125 306.855469 227.578125 308.714844 225.324219 Z M 252.367188 287.421875 C 252.550781 286.164062 252.722656 284.578125 252.304688 283.308594 C 251.4375 283.628906 252.175781 286.648438 252.367188 287.421875 Z M 305.308594 216.140625 C 304.554688 216.242188 303.75 217.351562 302.910156 217.859375 C 304.441406 218.160156 304.785156 217.382812 305.308594 216.140625 Z M 305.308594 216.140625 " fill-opacity="1" fill-rule="nonzero"/></g><path fill="#e6dbc6" d="M 238.71875 285.445312 C 238.964844 282.011719 238.464844 278.722656 237.65625 275.4375 C 237.4375 274.5625 237.339844 273.664062 237.363281 272.769531 C 237.476562 269.046875 237.421875 263.066406 241.308594 262.578125 C 242.742188 263.675781 241.042969 265.429688 241.308594 266.796875 C 241.324219 268.328125 241.6875 269.917969 242.117188 271.429688 C 242.390625 272.398438 242.464844 273.40625 242.351562 274.40625 C 241.859375 278.578125 242.03125 282.792969 241.414062 286.957031 C 240.359375 288.929688 238.207031 287.152344 238.71875 285.445312 Z M 240.367188 285.289062 C 240.75 283.011719 240.6875 280.613281 240.667969 278.285156 C 240.578125 276.347656 241.742188 274.488281 241.035156 272.558594 C 240.5 270.445312 239.890625 268.167969 240.011719 265.992188 C 240.113281 265.300781 240.980469 264.460938 240.40625 263.839844 C 239.371094 264.855469 238.472656 268.125 238.753906 272.175781 C 238.769531 272.691406 238.59375 273.269531 238.765625 273.722656 C 239.488281 276.777344 239.878906 283.308594 239.972656 285.53125 C 240.371094 285.820312 240.394531 285.710938 240.367188 285.289062 Z M 240.367188 285.289062 " fill-opacity="1" fill-rule="nonzero"/><path fill="#e6dbc6" d="M 257.601562 275.734375 C 258.953125 275.144531 258.296875 278.898438 258.539062 279.761719 C 258.804688 282.867188 259.449219 286.136719 257.332031 288.792969 C 256.765625 287.859375 257.324219 287.117188 257.429688 286.167969 C 258.097656 282.714844 256.613281 279.125 257.601562 275.734375 Z M 257.601562 275.734375 " fill-opacity="1" fill-rule="nonzero"/><path fill="#e6dbc6" d="M 261.292969 246.363281 C 260.972656 246.472656 260.867188 246.761719 260.425781 246.671875 C 259.253906 246.433594 258.066406 246.511719 256.9375 246.984375 C 255.207031 247.804688 253.257812 248.304688 251.355469 247.871094 C 250.566406 247.71875 249.46875 248.035156 248.855469 247.371094 C 249.238281 246.691406 249.6875 247.15625 250.242188 247.050781 C 254.308594 247.800781 258.683594 243.71875 261.292969 246.363281 Z M 261.292969 246.363281 " fill-opacity="1" fill-rule="nonzero"/><path fill="#e6dbc6" d="M 250.113281 259.367188 C 250.300781 259.527344 250.445312 259.65625 250.640625 259.828125 C 249.636719 261.207031 249.707031 263.703125 252.015625 262.636719 C 252.996094 263.769531 250.921875 264.277344 250.074219 263.890625 C 248.410156 263.113281 248.667969 260.269531 250.113281 259.367188 Z M 250.113281 259.367188 " fill-opacity="1" fill-rule="nonzero"/><path fill="#e6dbc6" d="M 242.636719 258.007812 C 242.800781 258.125 242.945312 258.226562 243.113281 258.347656 C 241.617188 261.769531 237.753906 258.082031 240.746094 255.894531 C 242.039062 255.867188 241.128906 256.640625 240.769531 257.195312 C 240.558594 257.535156 240.617188 257.886719 240.878906 258.136719 C 241.519531 258.863281 241.960938 258.269531 242.636719 258.007812 Z M 242.636719 258.007812 " fill-opacity="1" fill-rule="nonzero"/><path fill="#e6dbc6" d="M 228.972656 256.839844 C 228.03125 256.683594 228.386719 254.078125 227.835938 253.132812 C 227.617188 252.726562 227.121094 252.390625 227.285156 251.839844 C 227.292969 251.808594 227.292969 251.769531 227.285156 251.734375 C 227.238281 251.539062 227.441406 251.359375 227.632812 251.417969 C 229.019531 251.824219 229.667969 255.648438 228.972656 256.839844 Z M 228.972656 256.839844 " fill-opacity="1" fill-rule="nonzero"/><path fill="#e6dbc6" d="M 271.558594 242.464844 C 271.6875 241.433594 275.410156 241.792969 276.222656 242.140625 C 275.765625 243.574219 273.59375 242.84375 272.441406 242.957031 C 272.0625 243 272.058594 242.960938 271.558594 242.464844 Z M 271.558594 242.464844 " fill-opacity="1" fill-rule="nonzero"/><path fill="#e6dbc6" d="M 232.769531 244.570312 C 232.289062 245.714844 231.910156 244.128906 228.757812 245.316406 C 226.847656 244.242188 231.808594 242.835938 232.769531 244.570312 Z M 232.769531 244.570312 " fill-opacity="1" fill-rule="nonzero"/><path fill="#e6dbc6" d="M 243.71875 231.394531 C 244.261719 231.539062 244.707031 231 245.210938 231.292969 C 245.046875 231.742188 245 232.140625 244.472656 232.246094 C 243.058594 233.542969 241.550781 230.203125 243.042969 229.4375 C 244.523438 229.308594 243.035156 230.742188 243.71875 231.394531 Z M 243.71875 231.394531 " fill-opacity="1" fill-rule="nonzero"/><path fill="#e6dbc6" d="M 241.726562 240.476562 C 241.738281 240.03125 241.464844 239.628906 241.628906 239.234375 C 241.828125 238.640625 241.609375 237.933594 242.15625 237.476562 C 243.238281 237.464844 242.878906 240.882812 241.726562 240.476562 Z M 241.726562 240.476562 " fill-opacity="1" fill-rule="nonzero"/><path fill="#e6dbc6" d="M 262.890625 246.453125 C 263.101562 245.851562 263.09375 245.46875 263.894531 245.886719 C 264.984375 246.75 263.566406 246.832031 262.890625 246.453125 Z M 262.890625 246.453125 " fill-opacity="1" fill-rule="nonzero"/></svg>